<svg xmlns="http://www.w3.org/2000/svg" viewBox="0 0 37905 105" width="37905" height="105"><path d="M62.689 69.603l-10.114-.057c-3.372-.019-6.744-.038-10.115-.057-3.339-5.859-6.678-11.717-10.017-17.576 3.404-5.821 6.809-11.641 10.213-17.462 6.743.038 13.487.075 20.23.113 3.339 5.859 6.677 11.717 10.016 17.576-3.404 5.821-6.809 11.642-10.213 17.463M167.689 69.603l-9.946-.056c-3.532.105-6.752.087-10.283-.058-3.499-5.887-6.735-11.565-10.017-17.576 3.349-5.973 6.649-11.615 10.213-17.462 6.848-.086 13.384-.05 20.23.113 3.498 5.887 6.734 11.565 10.016 17.576-3.349 5.973-6.649 11.615-10.213 17.463M272.689 69.603l-9.777-.055c-3.693.229-6.762.211-10.452-.059-3.658-5.915-6.792-11.414-10.017-17.576 3.294-6.126 6.489-11.588 10.213-17.462 6.952-.211 13.281-.175 20.23.113 3.658 5.915 6.791 11.414 10.016 17.576-3.294 6.126-6.489 11.589-10.213 17.463M377.689 69.603l-9.609-.054c-3.853.352-6.771.336-10.62-.06-3.818-5.944-6.849-11.262-10.017-17.576 3.238-6.278 6.329-11.562 10.213-17.462 7.056-.335 13.178-.301 20.23.113 3.818 5.944 6.848 11.262 10.016 17.576-3.238 6.278-6.329 11.562-10.213 17.463" fill="#66817a"/><path d="M482.689 69.603l-9.44-.053c-4.014.476-6.781.461-10.789-.061-3.978-5.972-6.906-11.11-10.017-17.576 3.183-6.431 6.169-11.535 10.213-17.462 7.161-.459 13.075-.426 20.23.113 3.978 5.972 6.906 11.11 10.016 17.576-3.183 6.431-6.169 11.536-10.213 17.463" fill="#66807a"/><path d="M587.689 69.603l-9.272-.052c-4.174.6-6.79.585-10.957-.062-4.138-6-6.963-10.958-10.017-17.576 3.128-6.583 6.009-11.509 10.213-17.462 7.265-.583 12.972-.551 20.23.113 4.137 6 6.963 10.958 10.016 17.576-3.128 6.583-6.009 11.509-10.213 17.463" fill="#65807a"/><path d="M692.689 69.603l-9.103-.051c-4.335.724-6.799.71-11.126-.063-4.297-6.028-7.02-10.806-10.017-17.576 3.072-6.735 5.848-11.482 10.213-17.462 7.37-.707 12.869-.677 20.23.113 4.297 6.029 7.02 10.806 10.016 17.576-3.072 6.736-5.849 11.483-10.213 17.463" fill="#657f79"/><path d="M797.689 69.603l-8.934-.05c-4.496.848-6.809.835-11.295-.064-4.457-6.057-7.077-10.654-10.017-17.576 3.017-6.888 5.688-11.456 10.213-17.462 7.474-.831 12.766-.802 20.23.113 4.457 6.057 7.077 10.654 10.016 17.576-3.017 6.888-5.688 11.456-10.213 17.463" fill="#657e79"/><path d="M902.689 69.603l-8.766-.049c-4.656.971-6.818.959-11.463-.065-4.617-6.085-7.134-10.502-10.017-17.576 2.962-7.04 5.528-11.429 10.213-17.462 7.578-.956 12.663-.927 20.23.113 4.616 6.085 7.134 10.503 10.016 17.576-2.962 7.041-5.528 11.43-10.213 17.463" fill="#647e79"/><path d="M1007.689 69.603l-8.597-.048c-4.817 1.095-6.828 1.084-11.632-.066-4.777-6.113-7.191-10.351-10.017-17.576 2.906-7.193 5.368-11.403 10.213-17.462 7.683-1.08 12.56-1.053 20.23.113 4.776 6.114 7.191 10.351 10.016 17.576-2.906 7.193-5.368 11.403-10.213 17.463" fill="#647c78"/><path d="M1112.689 69.603l-8.429-.048c-4.977 1.22-6.837 1.209-11.8-.066-4.936-6.142-7.248-10.199-10.017-17.576 2.851-7.345 5.208-11.376 10.213-17.462 7.787-1.204 12.457-1.178 20.23.113 4.936 6.142 7.248 10.199 10.016 17.576-2.851 7.346-5.208 11.377-10.213 17.463" fill="#637b78"/><path d="M1217.689 69.603l-8.26-.047c-5.138 1.344-6.847 1.334-11.969-.067-5.096-6.17-7.306-10.047-10.017-17.576 2.796-7.498 5.048-11.35 10.213-17.462 7.891-1.328 12.354-1.303 20.23.113 5.096 6.17 7.305 10.047 10.016 17.576-2.796 7.498-5.048 11.35-10.213 17.463" fill="#627977"/><path d="M1322.689 69.603l-8.092-.046c-5.298 1.468-6.855 1.459-12.137-.068-5.256-6.198-7.363-9.895-10.017-17.576 2.74-7.65 4.888-11.323 10.213-17.462 7.996-1.452 12.251-1.429 20.23.113 5.255 6.199 7.362 9.895 10.016 17.576-2.74 7.651-4.888 11.324-10.213 17.463" fill="#617876"/><path d="M1427.689 69.603l-7.923-.045c-5.459 1.591-6.865 1.583-12.306-.069-5.416-6.227-7.42-9.743-10.017-17.576 2.685-7.803 4.728-11.297 10.213-17.462 8.1-1.576 12.148-1.554 20.23.113 5.415 6.227 7.419 9.743 10.016 17.576-2.685 7.803-4.728 11.297-10.213 17.463" fill="#607576"/><path d="M1532.689 69.603l-7.754-.044c-5.62 1.715-6.875 1.708-12.475-.07-5.575-6.255-7.477-9.591-10.017-17.576 2.63-7.955 4.568-11.27 10.213-17.462 8.205-1.701 12.045-1.679 20.23.113 5.575 6.255 7.476 9.592 10.016 17.576-2.63 7.956-4.568 11.271-10.213 17.463" fill="#5f7375"/><path d="M1637.689 69.603l-7.586-.043c-5.78 1.839-6.884 1.833-12.643-.071-5.735-6.283-7.534-9.439-10.017-17.576 2.574-8.108 4.408-11.244 10.213-17.462 8.309-1.825 11.942-1.805 20.23.113 5.735 6.283 7.533 9.44 10.016 17.576-2.574 8.108-4.408 11.244-10.213 17.463" fill="#5d7074"/><path d="M1742.689 69.603l-7.417-.042c-5.941 1.963-6.894 1.957-12.812-.072-5.895-6.312-7.591-9.288-10.017-17.576 2.519-8.26 4.248-11.217 10.213-17.462 8.413-1.949 11.839-1.93 20.23.113 5.894 6.312 7.59 9.288 10.016 17.576-2.519 8.261-4.248 11.218-10.213 17.463" fill="#5c6e73"/><path d="M1847.689 69.603l-7.249-.041c-6.101 2.087-6.903 2.082-12.98-.073-6.054-6.34-7.648-9.136-10.017-17.576 2.464-8.413 4.088-11.19 10.213-17.462 8.518-2.073 11.736-2.055 20.23.113 6.054 6.34 7.647 9.136 10.016 17.576-2.464 8.413-4.088 11.191-10.213 17.463" fill="#5a6b71"/><path d="M1952.689 69.603l-7.08-.04c-6.262 2.21-6.912 2.207-13.149-.074-6.214-6.368-7.705-8.984-10.017-17.576 2.408-8.565 3.928-11.164 10.213-17.462 8.622-2.197 11.633-2.18 20.23.113 6.214 6.368 7.704 8.984 10.016 17.576-2.408 8.566-3.928 11.165-10.213 17.463" fill="#596870"/><path d="M2057.689 69.603l-6.912-.039c-6.422 2.334-6.921 2.331-13.317-.075-6.374-6.396-7.762-8.832-10.017-17.576 2.353-8.718 3.768-11.137 10.213-17.462 8.727-2.321 11.53-2.306 20.23.113 6.373 6.397 7.761 8.832 10.016 17.576-2.353 8.718-3.768 11.138-10.213 17.463" fill="#57656f"/><path d="M2162.689 69.603l-6.743-.038c-6.583 2.458-6.931 2.456-13.486-.076-6.534-6.425-7.819-8.68-10.017-17.576 2.298-8.87 3.608-11.111 10.213-17.462 8.831-2.446 11.427-2.431 20.23.113 6.533 6.425 7.818 8.681 10.016 17.576-2.298 8.871-3.608 11.112-10.213 17.463" fill="#56636e"/><path d="M2267.689 69.603l-6.574-.037c-6.744 2.582-6.941 2.581-13.655-.077-6.693-6.453-7.876-8.528-10.017-17.576 2.242-9.023 3.448-11.084 10.213-17.462 8.935-2.57 11.324-2.556 20.23.113 6.693 6.453 7.875 8.529 10.016 17.576-2.242 9.023-3.448 11.085-10.213 17.463" fill="#55616d"/><path d="M2372.689 69.603l-6.406-.036c-6.904 2.706-6.95 2.705-13.823-.078-6.853-6.481-7.933-8.377-10.017-17.576 2.187-9.175 3.288-11.058 10.213-17.462 9.04-2.694 11.221-2.682 20.23.113 6.853 6.482 7.932 8.377 10.016 17.576-2.187 9.176-3.288 11.059-10.213 17.463" fill="#545e6d"/><path d="M2477.689 69.603l-6.237-.035c-7.065 2.829-6.959 2.83-13.992-.079-7.013-6.51-7.99-8.225-10.017-17.576 2.132-9.328 3.128-11.031 10.213-17.462 9.144-2.818 11.118-2.807 20.23.113 7.012 6.51 7.989 8.225 10.016 17.576-2.132 9.328-3.128 11.032-10.213 17.463" fill="#535c6c"/><path d="M2582.689 69.603l-6.069-.034c-7.225 2.953-6.968 2.955-14.16-.08-7.173-6.538-8.047-8.073-10.017-17.576 2.076-9.48 2.968-11.005 10.213-17.462 9.248-2.942 11.015-2.932 20.23.113 7.172 6.538 8.046 8.073 10.016 17.576-2.076 9.481-2.968 11.006-10.213 17.463" fill="#525a6b"/><path d="M2687.689 69.603l-5.9-.033c-7.386 3.077-6.978 3.079-14.329-.081-7.332-6.566-8.104-7.921-10.017-17.576 2.021-9.632 2.808-10.978 10.213-17.462 9.353-3.066 10.912-3.058 20.23.113 7.332 6.567 8.103 7.921 10.016 17.576-2.021 9.633-2.808 10.979-10.213 17.463" fill="#51596a"/><path d="M2792.689 69.603l-5.732-.032c-7.546 3.201-6.987 3.204-14.497-.082-7.492-6.595-8.161-7.769-10.017-17.576 1.966-9.785 2.648-10.952 10.213-17.462 9.457-3.191 10.809-3.183 20.23.113 7.491 6.595 8.16 7.77 10.016 17.576-1.966 9.786-2.648 10.953-10.213 17.463" fill="#50576a"/><path d="M2897.689 69.603l-5.563-.031c-7.707 3.325-6.997 3.329-14.666-.083-7.652-6.623-8.218-7.617-10.017-17.576 1.91-9.937 2.488-10.925 10.213-17.462 9.562-3.315 10.706-3.308 20.23.113 7.651 6.623 8.218 7.618 10.016 17.576-1.91 9.938-2.488 10.926-10.213 17.463" fill="#4f5669"/><path d="M3002.689 69.603l-5.394-.03c-7.868 3.448-7.007 3.453-14.835-.084-7.812-6.651-8.275-7.465-10.017-17.576 1.855-10.09 2.328-10.899 10.213-17.462 9.666-3.439 10.603-3.434 20.23.113 7.811 6.652 8.275 7.466 10.016 17.576-1.855 10.091-2.328 10.9-10.213 17.463" fill="#4f5469"/><path d="M3107.689 69.603l-5.226-.029c-8.028 3.572-7.015 3.578-15.003-.085-7.971-6.68-8.332-7.314-10.017-17.576 1.8-10.242 2.168-10.872 10.213-17.462 9.77-3.563 10.5-3.559 20.23.113 7.971 6.68 8.332 7.314 10.016 17.576-1.8 10.243-2.168 10.873-10.213 17.463" fill="#4e5368"/><path d="M3212.689 69.603l-5.057-.028c-8.189 3.696-7.025 3.703-15.172-.086-8.131-6.708-8.389-7.162-10.017-17.576 1.744-10.395 2.008-10.846 10.213-17.462 9.875-3.687 10.397-3.684 20.23.113 8.13 6.708 8.389 7.162 10.016 17.576-1.744 10.395-2.008 10.846-10.213 17.463" fill="#4d5268"/><path d="M3317.689 69.603l-4.889-.028c-8.349 3.821-7.034 3.828-15.34-.086-8.291-6.736-8.447-7.01-10.017-17.576 1.689-10.547 1.848-10.819 10.213-17.462 9.979-3.811 10.294-3.81 20.23.113 8.29 6.737 8.446 7.01 10.016 17.576-1.689 10.548-1.848 10.82-10.213 17.463" fill="#4d5167"/><path d="M3422.689 69.603l-4.72-.027c-8.51 3.945-7.044 3.953-15.509-.087-8.45-6.764-8.504-6.858-10.017-17.576 1.633-10.7 1.688-10.793 10.213-17.462 10.083-3.935 10.191-3.935 20.23.113 8.45 6.765 8.503 6.858 10.016 17.576-1.633 10.7-1.688 10.793-10.213 17.463" fill="#4c5067"/><path d="M3527.689 69.603l-4.552-.026c-8.67 4.068-7.053 4.077-15.677-.088-8.61-6.793-8.561-6.706-10.017-17.576 1.578-10.852 1.528-10.766 10.213-17.462 10.188-4.06 10.088-4.06 20.23.113 8.61 6.793 8.56 6.707 10.016 17.576-1.578 10.853-1.528 10.767-10.213 17.463" fill="#4c4f67"/><path d="M3632.689 69.603l-4.383-.025c-8.831 4.192-7.063 4.202-15.846-.089-8.77-6.821-8.618-6.554-10.017-17.576 1.523-11.005 1.368-10.74 10.213-17.462 10.292-4.184 9.985-4.186 20.23.113 8.769 6.822 8.617 6.555 10.016 17.576-1.523 11.005-1.368 10.74-10.213 17.463M3737.689 69.603l-4.214-.024c-8.992 4.316-7.072 4.327-16.015-.09-8.93-6.849-8.675-6.402-10.017-17.576 1.467-11.157 1.208-10.713 10.213-17.462 10.397-4.308 9.882-4.311 20.23.113 8.929 6.85 8.674 6.403 10.016 17.576-1.467 11.158-1.208 10.714-10.213 17.463" fill="#4b4e66"/><path d="M3842.689 69.603l-4.046-.023c-9.152 4.44-7.081 4.451-16.183-.091-9.089-6.878-8.732-6.251-10.017-17.576 1.412-11.31 1.048-10.687 10.213-17.462 10.501-4.432 9.779-4.436 20.23.113 9.089 6.878 8.731 6.251 10.016 17.576-1.412 11.31-1.048 10.687-10.213 17.463" fill="#4b4d66"/><path d="M3947.689 69.603l-3.877-.022c-9.313 4.564-7.091 4.576-16.352-.092-9.249-6.906-8.789-6.099-10.017-17.576 1.357-11.462.888-10.66 10.213-17.462 10.605-4.556 9.676-4.562 20.23.113 9.248 6.907 8.788 6.099 10.016 17.576-1.357 11.463-.888 10.661-10.213 17.463M4052.689 69.603l-3.709-.021c-9.473 4.687-7.1 4.701-16.52-.093-9.409-6.934-8.846-5.947-10.017-17.576 1.301-11.615.728-10.633 10.213-17.462 10.71-4.68 9.573-4.687 20.23.113 9.408 6.935 8.845 5.947 10.016 17.576-1.301 11.615-.728 10.634-10.213 17.463" fill="#4a4c66"/><path d="M4157.689 69.603l-3.54-.02c-9.634 4.811-7.11 4.825-16.689-.094-9.569-6.963-8.903-5.795-10.017-17.576 1.246-11.767.568-10.607 10.213-17.462 10.814-4.805 9.47-4.812 20.23.113 9.568 6.963 8.902 5.796 10.016 17.576-1.246 11.768-.568 10.608-10.213 17.463M4262.689 69.603l-3.371-.019c-9.795 4.935-7.119 4.95-16.858-.095-9.728-6.991-8.96-5.643-10.017-17.576 1.191-11.92.408-10.58 10.213-17.462 10.918-4.929 9.367-4.938 20.23.113 9.728 6.992 8.959 5.644 10.016 17.576-1.191 11.92-.408 10.581-10.213 17.463" fill="#4a4b65"/><path d="M4367.689 69.603l-3.203-.018c-9.955 5.059-7.128 5.075-17.026-.096-9.888-7.019-9.017-5.491-10.017-17.576 1.135-12.072.248-10.554 10.213-17.462 11.023-5.053 9.264-5.063 20.23.113 9.887 7.02 9.016 5.492 10.016 17.576-1.135 12.073-.248 10.555-10.213 17.463" fill="#494b65"/><path d="M4472.689 69.603l-3.034-.017c-10.116 5.183-7.138 5.199-17.195-.097-10.048-7.048-9.074-5.339-10.017-17.576 1.08-12.225.088-10.527 10.213-17.462 11.127-5.177 9.161-5.188 20.23.113 10.047 7.048 9.073 5.34 10.016 17.576-1.08 12.225-.088 10.528-10.213 17.463M4577.689 69.603l-2.866-.016c-10.276 5.306-7.147 5.324-17.363-.098-10.208-7.076-9.131-5.188-10.017-17.576 1.025-12.377-.073-10.501 10.213-17.462 11.232-5.301 9.058-5.314 20.23.113 10.207 7.077 9.13 5.188 10.016 17.576-1.025 12.378.073 10.502-10.213 17.463" fill="#494a65"/><path d="M4682.689 69.603l-2.697-.015c-10.437 5.43-7.157 5.449-17.532-.099-10.367-7.104-9.188-5.036-10.017-17.576.969-12.529-.233-10.474 10.213-17.462 11.336-5.425 8.955-5.439 20.23.113 10.366 7.105 9.187 5.036 10.016 17.576-.969 12.53.233 10.475-10.213 17.463" fill="#494965"/><path d="M4787.689 69.603l-2.529-.014c-10.597 5.554-7.166 5.573-17.7-.1-10.527-7.132-9.245-4.884-10.017-17.576.914-12.682-.393-10.448 10.213-17.462 11.44-5.55 8.852-5.564 20.23.113 10.526 7.133 9.244 4.885 10.016 17.576-.914 12.683.393 10.449-10.213 17.463M4892.689 69.603l-2.36-.013c-10.758 5.678-7.175 5.698-17.869-.101-10.687-7.161-9.302-4.732-10.017-17.576.859-12.834-.553-10.421 10.213-17.462 11.545-5.674 8.749-5.689 20.23.113 10.686 7.161 9.301 4.733 10.016 17.576-.859 12.835.553 10.422-10.213 17.463" fill="#494964"/><path d="M4997.689 69.603l-2.191-.012c-10.919 5.802-7.185 5.823-18.038-.102-10.846-7.189-9.359-4.58-10.017-17.576.803-12.987-.713-10.395 10.213-17.462 11.649-5.798 8.646-5.815 20.23.113 10.846 7.19 9.358 4.581 10.016 17.576-.803 12.988.713 10.396-10.213 17.463M5102.689 69.603l-2.023-.011c-11.079 5.925-7.194 5.947-18.206-.103-11.006-7.217-9.416-4.428-10.017-17.576.748-13.139-.873-10.368 10.213-17.462 11.753-5.922 8.543-5.94 20.23.113 11.005 7.218 9.415 4.429 10.016 17.576-.748 13.14.873 10.369-10.213 17.463" fill="#484964"/><path d="M5207.689 69.603l-1.854-.01c-11.24 6.049-7.204 6.072-18.375-.104-11.166-7.246-9.473-4.276-10.017-17.576.693-13.292-1.033-10.342 10.213-17.462 11.858-6.046 8.44-6.065 20.23.113 11.165 7.246 9.473 4.277 10.016 17.576-.693 13.293 1.033 10.343-10.213 17.463M5312.689 69.603l-1.686-.009c-11.4 6.173-7.213 6.196-18.543-.105-11.326-7.274-9.531-4.125-10.017-17.576.637-13.444-1.193-10.315 10.213-17.462 11.962-6.17 8.337-6.191 20.23.113 11.325 7.275 9.53 4.125 10.016 17.576-.637 13.445 1.193 10.316-10.213 17.463M5417.689 69.603l-1.517-.009c-11.561 6.298-7.223 6.322-18.712-.105-11.485-7.302-9.588-3.973-10.017-17.576.582-13.597-1.353-10.289 10.213-17.462 12.067-6.295 8.234-6.316 20.23.113 11.485 7.303 9.587 3.974 10.016 17.576-.582 13.598 1.353 10.29-10.213 17.463M5522.689 69.603l-1.349-.008c-11.721 6.422-7.231 6.447-18.88-.106-11.645-7.331-9.645-3.821-10.017-17.576.527-13.749-1.513-10.262 10.213-17.462 12.171-6.419 8.131-6.441 20.23.113 11.644 7.331 9.644 3.822 10.016 17.576-.527 13.75 1.513 10.263-10.213 17.463M5627.689 69.603l-1.18-.007c-11.882 6.545-7.241 6.571-19.049-.107-11.805-7.359-9.702-3.669-10.017-17.576.471-13.902-1.673-10.236 10.213-17.462 12.275-6.543 8.028-6.567 20.23.113 11.804 7.36 9.701 3.67 10.016 17.576-.471 13.903 1.673 10.237-10.213 17.463M5732.689 69.603l-1.011-.006c-12.043 6.669-7.251 6.696-19.218-.108-11.965-7.387-9.759-3.517-10.017-17.576.416-14.054-1.833-10.209 10.213-17.462 12.38-6.667 7.925-6.692 20.23.113 11.964 7.388 9.758 3.518 10.016 17.576-.416 14.055 1.833 10.21-10.213 17.463M5837.689 69.603l-.843-.005c-12.203 6.793-7.26 6.821-19.386-.109-12.124-7.415-9.816-3.365-10.017-17.576.361-14.207-1.993-10.183 10.213-17.462 12.484-6.791 7.822-6.817 20.23.113 12.123 7.416 9.815 3.366 10.016 17.576-.361 14.208 1.993 10.184-10.213 17.463M5942.689 69.603l-.674-.004c-12.364 6.917-7.27 6.945-19.555-.11-12.284-7.444-9.873-3.213-10.017-17.576.305-14.359-2.153-10.156 10.213-17.462 12.588-6.915 7.719-6.943 20.23.113 12.283 7.445 9.872 3.214 10.016 17.576-.305 14.36 2.153 10.157-10.213 17.463M6047.689 69.603l-.506-.003c-12.524 7.041-7.279 7.07-19.723-.111-12.444-7.472-9.93-3.062-10.017-17.576.25-14.512-2.313-10.13 10.213-17.462 12.693-7.04 7.616-7.068 20.23.113 12.443 7.473 9.929 3.063 10.016 17.576-.25 14.513 2.313 10.131-10.213 17.463M6152.689 69.603l-.337-.002c-12.685 7.164-7.288 7.195-19.892-.112-12.604-7.5-9.987-2.91-10.017-17.576.195-14.664-2.473-10.103 10.213-17.462 12.797-7.164 7.513-7.193 20.23.113 12.603 7.501 9.986 2.911 10.016 17.576-.195 14.665 2.473 10.104-10.213 17.463M6257.689 69.603l-.169-.001c-12.845 7.288-7.297 7.319-20.06-.113-12.763-7.529-10.044-2.758-10.017-17.576.139-14.817-2.633-10.077 10.213-17.462 12.902-7.288 7.41-7.319 20.23.113 12.762 7.53 10.043 2.759 10.016 17.576-.139 14.818 2.633 10.078-10.213 17.463M6362.689 69.603c-13.006 7.412-7.307 7.444-20.229-.114-12.923-7.557-10.101-2.606-10.017-17.576.084-14.969-2.793-10.05 10.213-17.462 13.006-7.412 7.307-7.444 20.23.113 12.922 7.558 10.1 2.607 10.016 17.576-.084 14.97 2.793 10.051-10.213 17.463zM6467.689 69.603c-13.031 7.426-7.282 7.459-20.229-.114-12.948-7.572-10.101-2.577-10.017-17.576.084-14.998-2.818-10.036 10.213-17.462 13.031-7.426 7.282-7.459 20.23.113 12.947 7.573 10.1 2.578 10.016 17.576-.084 14.999 2.818 10.037-10.213 17.463zM6572.689 69.603c-13.108 7.47-7.206 7.503-20.229-.114-13.024-7.616-10.102-2.489-10.017-17.576.085-15.086-2.895-9.992 10.213-17.462 13.108-7.47 7.206-7.503 20.23.113 13.023 7.617 10.101 2.49 10.016 17.576-.085 15.087 2.895 9.993-10.213 17.463zM6677.689 69.603c-13.234 7.542-7.08 7.577-20.229-.114-13.15-7.69-10.102-2.343-10.017-17.576.085-15.232-3.021-9.92 10.213-17.462 13.234-7.542 7.08-7.577 20.23.113 13.149 7.691 10.101 2.344 10.016 17.576-.085 15.233 3.021 9.921-10.213 17.463zM6782.689 69.603c-13.412 7.643-6.904 7.68-20.229-.114-13.326-7.793-10.104-2.139-10.017-17.576.087-15.436-3.199-9.819 10.213-17.462 13.412-7.643 6.904-7.68 20.23.113 13.325 7.794 10.103 2.14 10.016 17.576-.087 15.437 3.199 9.82-10.213 17.463zM6887.689 69.603c-13.641 7.774-6.677 7.813-20.229-.114-13.553-7.926-10.105-1.876-10.017-17.576.088-15.699-3.428-9.688 10.213-17.462 13.641-7.774 6.677-7.813 20.23.113 13.552 7.927 10.104 1.877 10.016 17.576-.088 15.7 3.428 9.689-10.213 17.463zM6992.689 69.603c-13.92 7.933-6.399 7.975-20.229-.114-13.831-8.088-10.107-1.554-10.017-17.576.09-16.021-3.707-9.529 10.213-17.462 13.92-7.933 6.399-7.975 20.23.113 13.83 8.089 10.106 1.555 10.016 17.576-.09 16.022 3.707 9.53-10.213 17.463zM7097.689 69.603c-14.25 8.121-6.071 8.167-20.229-.114-14.159-8.28-10.109-1.175-10.017-17.576.092-16.4-4.037-9.341 10.213-17.462s6.071-8.167 20.23.113c14.158 8.281 10.108 1.176 10.016 17.576-.092 16.401 4.037 9.342-10.213 17.463zM7202.689 69.603c-14.63 8.338-5.693 8.388-20.229-.114-14.537-8.501-10.112-.736-10.017-17.576.095-16.839-4.417-9.124 10.213-17.462 14.63-8.338 5.693-8.388 20.23.113 14.536 8.502 10.111.737 10.016 17.576-.095 16.84 4.417 9.125-10.213 17.463zM7307.689 69.603c-15.062 8.584-5.264 8.638-20.229-.114s-10.114-.24-10.017-17.576c.097-17.335-4.849-8.878 10.213-17.462s5.265-8.639 20.23.113c14.965 8.753 10.113.241 10.016 17.576-.097 17.336 4.849 8.879-10.213 17.463zM7412.689 69.603c-15.544 8.858-4.785 8.919-20.229-.114-15.445-9.032-10.117.315-10.017-17.576.1-17.89-5.331-8.604 10.213-17.462 15.544-8.859 4.785-8.919 20.23.113 15.444 9.033 10.116-.314 10.016 17.576-.1 17.891 5.331 8.604-10.213 17.463zM7517.689 69.603c-16.077 9.162-4.256 9.228-20.229-.114-15.974-9.342-10.121.929-10.017-17.576.104-18.504-5.864-8.3 10.213-17.462 16.077-9.162 4.256-9.229 20.23.113 15.973 9.343 10.12-.928 10.016 17.576-.104 18.505 5.864 8.301-10.213 17.463zM7622.689 69.603c-16.661 9.495-3.676 9.568-20.229-.114-16.554-9.681-10.125 1.601-10.017-17.576.108-19.176-6.448-7.967 10.213-17.462 16.661-9.495 3.676-9.568 20.23.113 16.553 9.682 10.124-1.6 10.016 17.576-.108 19.177 6.448 7.968-10.213 17.463zM7727.689 69.603c-17.296 9.856-3.045 9.936-20.229-.114-17.184-10.05-10.129 2.331-10.017-17.576.112-19.906-7.083-7.606 10.213-17.462 17.296-9.857 3.046-9.937 20.23.113 17.184 10.051 10.128-2.33 10.016 17.576-.112 19.907 7.083 7.606-10.213 17.463zM7832.689 69.603c-17.981 10.247-2.364 10.334-20.229-.114s-10.133 3.12-10.017-17.576c.116-20.695-7.768-7.215 10.213-17.462 17.981-10.247 2.365-10.335 20.23.113 17.865 10.449 10.132-3.119 10.016 17.576-.116 20.696 7.768 7.216-10.213 17.463zM7937.689 69.603c-18.717 10.666-1.633 10.762-20.229-.114-18.596-10.876-10.138 3.967-10.017-17.576.121-21.542-8.504-6.796 10.213-17.462 18.717-10.667 1.634-10.763 20.23.113 18.596 10.877 10.137-3.966 10.016 17.576-.121 21.543 8.504 6.796-10.213 17.463zM8042.689 69.603c-19.504 11.115-.851 11.219-20.229-.114s-10.143 4.873-10.017-17.576c.126-22.448-9.291-6.347 10.213-17.462 19.504-11.115.852-11.22 20.23.113 19.378 11.334 10.142-4.872 10.016 17.576-.126 22.449 9.291 6.348-10.213 17.463z" fill="#484864"/><path d="M8147.689 69.603c-20.341 11.592-.019 11.706-20.229-.114s-10.148 5.837-10.017-17.576c.131-23.412-10.128-5.87 10.213-17.462 20.341-11.593.02-11.707 20.23.113 20.21 11.821 10.147-5.836 10.016 17.576-.131 23.413 10.128 5.87-10.213 17.463zM8252.689 69.603c-21.23 12.098.864 12.222-20.229-.114s-10.154 6.859-10.017-17.576c.137-24.434-11.017-5.364 10.213-17.462 21.23-12.099-.863-12.223 20.23.113 21.093 12.337 10.153-6.858 10.016 17.576-.137 24.435 11.017 5.364-10.213 17.463z" fill="#494964"/><path d="M8357.689 69.603c-21.862 12.459 1.492 12.589-20.229-.114-21.721-12.703-10.158 7.587-10.017-17.576.141-25.162-11.649-5.003 10.213-17.462 21.862-12.46-1.491-12.59 20.23.113 21.721 12.704 10.157-7.586 10.016 17.576-.141 25.163 11.649 5.003-10.213 17.463z" fill="#494a65"/><path d="M8462.689 69.603c-21.376 12.181 1.009 12.307-20.229-.114-21.238-12.421-10.155 7.027-10.017-17.576.138-24.602-11.163-5.281 10.213-17.462 21.376-12.182-1.008-12.308 20.23.113 21.238 12.422 10.154-7.026 10.016 17.576-.138 24.603 11.163 5.281-10.213 17.463z" fill="#4a4a65"/><path d="M8567.689 69.603c-20.94 11.933.576 12.054-20.229-.114-20.805-12.167-10.152 6.525-10.017-17.576.135-24.1-10.727-5.529 10.213-17.462 20.94-11.934-.575-12.054 20.23.113 20.805 12.168 10.151-6.524 10.016 17.576-.135 24.101 10.727 5.529-10.213 17.463z" fill="#4b4b65"/><path d="M8672.689 69.603c-20.555 11.714.193 11.83-20.229-.114s-10.15 6.082-10.017-17.576c.133-23.657-10.342-5.748 10.213-17.462 20.555-11.714-.192-11.831 20.23.113 20.422 11.945 10.149-6.081 10.016 17.576-.133 23.658 10.342 5.749-10.213 17.463z" fill="#4b4c65"/><path d="M8777.689 69.603c-20.221 11.523-.139 11.636-20.229-.114-20.09-11.749-10.148 5.698-10.017-17.576.131-23.273-10.008-5.939 10.213-17.462 20.221-11.524.14-11.636 20.23.113 20.09 11.75 10.147-5.697 10.016 17.576-.131 23.274 10.008 5.939-10.213 17.463z" fill="#4c4d66"/><path d="M8882.689 69.603c-19.937 11.362-.421 11.471-20.229-.114s-10.146 5.371-10.017-17.576c.129-22.946-9.724-6.1 10.213-17.462 19.937-11.362.422-11.472 20.23.113 19.808 11.586 10.145-5.37 10.016 17.576-.129 22.947 9.724 6.101-10.213 17.463z" fill="#4d4f66"/><path d="M8987.689 69.603c-19.704 11.229-.652 11.336-20.229-.114-19.577-11.449-10.144 5.103-10.017-17.576.127-22.678-9.491-6.233 10.213-17.462 19.704-11.23.653-11.336 20.23.113 19.577 11.45 10.143-5.102 10.016 17.576-.127 22.679 9.491 6.233-10.213 17.463z" fill="#4f5067"/><path d="M9092.689 69.603c-19.522 11.125-.833 11.23-20.229-.114-19.396-11.344-10.143 4.894-10.017-17.576.126-22.469-9.309-6.337 10.213-17.462 19.522-11.126.834-11.231 20.23.113 19.396 11.345 10.142-4.893 10.016 17.576-.126 22.47 9.309 6.337-10.213 17.463z" fill="#505268"/><path d="M9197.689 69.603c-19.391 11.05-.963 11.154-20.229-.114-19.266-11.267-10.142 4.743-10.017-17.576.125-22.318-9.178-6.412 10.213-17.462 19.391-11.051.964-11.154 20.23.113 19.266 11.268 10.141-4.742 10.016 17.576-.125 22.319 9.178 6.412-10.213 17.463z" fill="#525468"/><path d="M9302.689 69.603c-19.311 11.005-1.043 11.107-20.229-.114s-10.142 4.65-10.017-17.576c.125-22.225-9.098-6.457 10.213-17.462 19.311-11.005 1.044-11.108 20.23.113 19.186 11.222 10.141-4.649 10.016 17.576-.125 22.226 9.098 6.458-10.213 17.463z" fill="#545669"/><path d="M9407.689 69.603c-19.281 10.988-1.073 11.09-20.229-.114-19.157-11.203-10.142 4.616-10.017-17.576.125-22.191-9.068-6.474 10.213-17.462s1.073-11.09 20.23.113c19.156 11.204 10.141-4.615 10.016 17.576-.125 22.192 9.068 6.475-10.213 17.463z" fill="#56596a"/><path d="M9512.689 69.603c-19.302 11-1.052 11.102-20.229-.114-19.178-11.216-10.142 4.64-10.017-17.576.125-22.215-9.089-6.462 10.213-17.462s1.052-11.103 20.23.113c19.177 11.217 10.141-4.639 10.016 17.576-.125 22.216 9.089 6.463-10.213 17.463z" fill="#585b6b"/><path d="M9617.689 69.603c-19.374 11.041-.98 11.144-20.229-.114-19.249-11.257-10.142 4.723-10.017-17.576.125-22.298-9.161-6.421 10.213-17.462s.981-11.144 20.23.113c19.249 11.258 10.141-4.722 10.016 17.576-.125 22.299 9.161 6.422-10.213 17.463z" fill="#5a5e6c"/><path d="M9722.689 69.603c-19.496 11.111-.859 11.215-20.229-.114-19.371-11.329-10.143 4.864-10.017-17.576.126-22.439-9.283-6.351 10.213-17.462s.859-11.216 20.23.113c19.37 11.33 10.142-4.863 10.016 17.576-.126 22.44 9.283 6.352-10.213 17.463z" fill="#5d616d"/><path d="M9827.689 69.603c-19.67 11.209-.686 11.316-20.229-.114-19.543-11.429-10.144 5.064-10.017-17.576.127-22.639-9.457-6.253 10.213-17.462 19.67-11.21.687-11.316 20.23.113 19.543 11.43 10.143-5.063 10.016 17.576-.127 22.64 9.457 6.253-10.213 17.463z" fill="#5f636e"/><path d="M9932.689 69.603c-19.894 11.337-.464 11.446-20.229-.114-19.766-11.56-10.146 5.322-10.017-17.576.129-22.897-9.681-6.125 10.213-17.462 19.894-11.338.464-11.447 20.23.113 19.765 11.561 10.145-5.321 10.016 17.576-.129 22.898 9.681 6.125-10.213 17.463z" fill="#61666f"/><path d="M10037.689 69.603c-20.169 11.494-.19 11.606-20.229-.114-20.039-11.719-10.147 5.638-10.017-17.576.13-23.213-9.956-5.968 10.213-17.462 20.169-11.494.191-11.606 20.23.113 20.039 11.72 10.146-5.637 10.016 17.576-.13 23.214 9.956 5.969-10.213 17.463z" fill="#636870"/><path d="M10142.689 69.603c-20.495 11.679.133 11.795-20.229-.114s-10.149 6.013-10.017-17.576c.132-23.588-10.282-5.783 10.213-17.462 20.495-11.68-.132-11.796 20.23.113 20.362 11.91 10.148-6.012 10.016 17.576-.132 23.589 10.282 5.783-10.213 17.463z" fill="#656b70"/><path d="M10247.689 69.603c-20.871 11.894.507 12.013-20.229-.114s-10.152 6.446-10.017-17.576c.135-24.021-10.658-5.568 10.213-17.462 20.871-11.895-.506-12.014 20.23.113 20.736 12.128 10.151-6.445 10.016 17.576-.135 24.022 10.658 5.568-10.213 17.463z" fill="#666d71"/><path d="M10352.689 69.603c-21.298 12.137.931 12.262-20.229-.114-21.161-12.376-10.155 6.938-10.017-17.576.138-24.513-11.085-5.325 10.213-17.462 21.298-12.138-.931-12.263 20.23.113 21.16 12.377 10.154-6.937 10.016 17.576-.138 24.514 11.085 5.325-10.213 17.463z" fill="#686f72"/><path d="M10457.689 69.603c-21.776 12.409 1.406 12.539-20.229-.114-21.635-12.653-10.158 7.488-10.017-17.576.141-25.063-11.563-5.053 10.213-17.462 21.776-12.41-1.405-12.54 20.23.113 21.635 12.654 10.157-7.487 10.016 17.576-.141 25.064 11.563 5.053-10.213 17.463z" fill="#6a7072"/><path d="M10562.689 69.603c-21.792 12.418 1.422 12.548-20.229-.114s-10.158 7.506-10.017-17.576c.141-25.081-11.579-5.044 10.213-17.462 21.792-12.419-1.421-12.549 20.23.113 21.651 12.663 10.157-7.505 10.016 17.576-.141 25.082 11.579 5.044-10.213 17.463z" fill="#6b7273"/><path d="M10667.689 69.603c-21.547 12.279 1.179 12.406-20.229-.114-21.408-12.52-10.156 7.224-10.017-17.576.139-24.799-11.334-5.183 10.213-17.462 21.547-12.28-1.178-12.407 20.23.113 21.408 12.521 10.155-7.223 10.016 17.576-.139 24.8 11.334 5.183-10.213 17.463z" fill="#6c7373"/><path d="M10772.689 69.603c-21.353 12.168.986 12.294-20.229-.114-21.215-12.408-10.155 7.001-10.017-17.576.138-24.576-11.14-5.294 10.213-17.462 21.353-12.169-.985-12.295 20.23.113 21.215 12.409 10.154-7 10.016 17.576-.138 24.577 11.14 5.294-10.213 17.463z" fill="#6d7574"/><path d="M10877.689 69.603c-21.21 12.087.844 12.21-20.229-.114-21.073-12.324-10.154 6.836-10.017-17.576.137-24.411-10.997-5.375 10.213-17.462 21.21-12.088-.843-12.211 20.23.113 21.073 12.325 10.153-6.835 10.016 17.576-.137 24.412 10.997 5.375-10.213 17.463z" fill="#6e7674"/><path d="M10982.689 69.603c-21.118 12.034.752 12.157-20.229-.114-20.981-12.271-10.153 6.73-10.017-17.576.136-24.305-10.905-5.428 10.213-17.462 21.118-12.035-.751-12.158 20.23.113 20.981 12.272 10.152-6.729 10.016 17.576-.136 24.306 10.905 5.428-10.213 17.463z" fill="#6f7775"/><path d="M11087.689 69.603c-21.076 12.011.711 12.133-20.229-.114-20.94-12.247-10.153 6.682-10.017-17.576.136-24.257-10.863-5.451 10.213-17.462 21.076-12.012-.71-12.134 20.23.113 20.94 12.248 10.152-6.681 10.016 17.576-.136 24.258 10.863 5.451-10.213 17.463z" fill="#707875"/><path d="M11192.689 69.603c-21.085 12.016.72 12.138-20.229-.114-20.949-12.252-10.153 6.693-10.017-17.576.136-24.268-10.872-5.446 10.213-17.462 21.085-12.017-.719-12.139 20.23.113 20.949 12.253 10.152-6.692 10.016 17.576-.136 24.269 10.872 5.446-10.213 17.463z" fill="#717976"/><path d="M11297.689 69.603c-21.145 12.05.78 12.173-20.229-.114s-10.154 6.762-10.017-17.576c.137-24.337-10.932-5.412 10.213-17.462 21.145-12.051-.779-12.174 20.23.113 21.009 12.288 10.153-6.761 10.016 17.576-.137 24.338 10.932 5.412-10.213 17.463z" fill="#727a76"/><path d="M11402.689 69.603c-21.256 12.113.89 12.237-20.229-.114s-10.154 6.889-10.017-17.576c.137-24.464-11.043-5.349 10.213-17.462 21.256-12.114-.889-12.238 20.23.113 21.119 12.352 10.153-6.888 10.016 17.576-.137 24.465 11.043 5.349-10.213 17.463z" fill="#727b76"/><path d="M11507.689 69.603c-21.418 12.205 1.05 12.331-20.229-.114s-10.155 7.075-10.017-17.576c.138-24.65-11.205-5.257 10.213-17.462 21.418-12.206-1.049-12.332 20.23.113 21.279 12.446 10.154-7.074 10.016 17.576-.138 24.651 11.205 5.257-10.213 17.463z" fill="#737c76"/><path d="M11612.689 69.603c-21.63 12.326 1.261 12.454-20.229-.114-21.49-12.568-10.157 7.32-10.017-17.576.14-24.895-11.417-5.136 10.213-17.462 21.63-12.327-1.26-12.455 20.23.113 21.49 12.569 10.156-7.319 10.016 17.576-.14 24.896 11.417 5.136-10.213 17.463zM11717.689 69.603c-21.893 12.476 1.522 12.607-20.229-.114-21.751-12.721-10.159 7.622-10.017-17.576.142-25.197-11.68-4.986 10.213-17.462 21.893-12.477-1.521-12.608 20.23.113 21.751 12.722 10.158-7.621 10.016 17.576-.142 25.198 11.68 4.986-10.213 17.463z" fill="#747d77"/><path d="M11822.689 69.603c-21.827 12.438 1.457 12.569-20.229-.114-21.686-12.683-10.158 7.546-10.017-17.576.141-25.121-11.614-5.024 10.213-17.462 21.827-12.439-1.456-12.57 20.23.113 21.686 12.684 10.157-7.545 10.016 17.576-.141 25.122 11.614 5.024-10.213 17.463z" fill="#757e77"/><path d="M11927.689 69.603c-21.676 12.353 1.307 12.481-20.229-.114-21.536-12.595-10.157 7.373-10.017-17.576.14-24.948-11.463-5.109 10.213-17.462s-1.306-12.482 20.23.113c21.536 12.596 10.156-7.372 10.016 17.576-.14 24.949 11.463 5.11-10.213 17.463z" fill="#757f77"/><path d="M12032.689 69.603c-21.576 12.296 1.208 12.423-20.229-.114-21.437-12.537-10.156 7.258-10.017-17.576.139-24.833-11.363-5.166 10.213-17.462 21.576-12.297-1.207-12.424 20.23.113 21.437 12.538 10.155-7.257 10.016 17.576-.139 24.834 11.363 5.166-10.213 17.463z" fill="#767f78"/><path d="M12137.689 69.603c-21.527 12.268 1.159 12.395-20.229-.114-21.388-12.509-10.156 7.201-10.017-17.576.139-24.776-11.314-5.194 10.213-17.462 21.527-12.269-1.158-12.396 20.23.113 21.388 12.51 10.155-7.2 10.016 17.576-.139 24.777 11.314 5.194-10.213 17.463zM12242.689 69.603c-21.529 12.269 1.161 12.396-20.229-.114-21.39-12.51-10.156 7.203-10.017-17.576.139-24.778-11.316-5.193 10.213-17.462 21.529-12.27-1.16-12.397 20.23.113 21.39 12.511 10.155-7.202 10.016 17.576-.139 24.779 11.316 5.193-10.213 17.463z" fill="#768078"/><path d="M12347.689 69.603c-21.582 12.299 1.213 12.426-20.229-.114-21.442-12.54-10.156 7.264-10.017-17.576.139-24.839-11.369-5.163 10.213-17.462 21.582-12.3-1.212-12.427 20.23.113 21.442 12.541 10.155-7.263 10.016 17.576-.139 24.84 11.369 5.163-10.213 17.463z" fill="#778078"/><path d="M12452.689 69.603c-21.685 12.358 1.316 12.486-20.229-.114-21.545-12.6-10.157 7.383-10.017-17.576.14-24.958-11.472-5.104 10.213-17.462s-1.315-12.487 20.23.113c21.545 12.601 10.156-7.382 10.016 17.576-.14 24.959 11.472 5.105-10.213 17.463zM12557.689 69.603c-21.839 12.445 1.469 12.576-20.229-.114-21.698-12.69-10.158 7.56-10.017-17.576.141-25.135-11.626-5.017 10.213-17.462 21.839-12.446-1.468-12.577 20.23.113 21.698 12.691 10.157-7.559 10.016 17.576-.141 25.136 11.626 5.017-10.213 17.463z" fill="#778178"/><path d="M12662.668 69.567c-22.294 12.704 1.964 12.84-20.187-.114-22.15-12.955-10.14 8.121-9.996-17.54.144-25.659-12.103-4.721 10.192-17.426 22.294-12.705-1.963-12.841 20.188.113 22.15 12.956 10.139-8.12 9.995 17.54-.144 25.66 12.103 4.721-10.192 17.427z" fill="#788178"/><path d="M12767.605 69.456c-23.278 13.265 3.068 13.413-20.06-.113-23.127-13.526-10.083 9.363-9.933-17.429.151-26.792-13.15-4.051 10.128-17.316 23.278-13.266-3.067-13.414 20.061.112 23.127 13.527 10.082-9.362 9.932 17.429-.151 26.793 13.15 4.051-10.128 17.317zM12872.542 69.345c-24.261 13.826 4.172 13.986-19.932-.112-24.105-14.097-10.027 10.606-9.871-17.318.157-27.924-14.198-3.381 10.064-17.206 24.261-13.827-4.171-13.987 19.933.111 24.105 14.098 10.026-10.605 9.87 17.318-.157 27.925 14.198 3.381-10.064 17.207zM12977.479 69.235c-25.245 14.386 5.277 14.557-19.805-.112s-9.971 11.849-9.807-17.208c.163-29.055-15.246-2.71 9.999-17.096 25.245-14.387-5.276-14.558 19.806.111 25.082 14.67 9.97-11.848 9.806 17.208-.163 29.056 15.246 2.71-9.999 17.097zM13082.416 69.124c-26.228 14.947 6.381 15.13-19.678-.111-26.059-15.24-9.914 13.092-9.744-17.097.169-30.187-16.294-2.039 9.935-16.986 26.228-14.948-6.38-15.131 19.679.11 26.059 15.241 9.913-13.091 9.743 17.097-.169 30.188 16.294 2.039-9.935 16.987z" fill="#788279"/><path d="M13187.353 69.014c-27.212 15.507 7.485 15.702-19.551-.11-27.036-15.812-9.857 14.333-9.681-16.987.176-31.32-17.341-1.369 9.871-16.877 27.212-15.508-7.484-15.703 19.552.109 27.036 15.813 9.856-14.332 9.68 16.987-.176 31.321 17.341 1.369-9.871 16.878z" fill="#798279"/><path d="M13292.29 68.903c-28.195 16.068 8.59 16.274-19.423-.109-28.014-16.384-9.801 15.576-9.619-16.876.182-32.452-18.389-.699 9.807-16.767 28.195-16.069-8.589-16.275 19.424.108 28.014 16.385 9.8-15.575 9.618 16.877-.182 32.452 18.389.698-9.807 16.767zM13397.227 68.793c-29.179 16.628 9.694 16.846-19.296-.109-28.991-16.955-9.744 16.819-9.555-16.766.188-33.583-19.437-.028 9.742-16.657 29.179-16.629-9.693-16.847 19.297.108 28.991 16.956 9.743-16.818 9.554 16.766-.188 33.584 19.437.028-9.742 16.658zM13502.164 68.682c-30.162 17.189 10.799 17.419-19.169-.108-29.968-17.526-9.687 18.061-9.492-16.655.195-34.715-20.485.642 9.678-16.547 30.162-17.19-10.798-17.42 19.17.107 29.967 17.527 9.686-18.06 9.491 16.655-.195 34.716 20.485-.642-9.678 16.548zM13607.101 68.572c-31.146 17.749 11.903 17.99-19.042-.108s-9.63 19.304-9.429-16.544c.201-35.848-21.532 1.312 9.614-16.438s-11.902-17.991 19.043.107c30.944 18.098 9.629-19.303 9.428 16.544-.201 35.849 21.532-1.312-9.614 16.439zM13712.038 68.461c-32.129 18.31 13.007 18.563-18.915-.106-31.921-18.67-9.573 20.546-9.366-16.435.208-36.979-22.58 1.983 9.55-16.327 32.129-18.311-13.006-18.564 18.915.105 31.922 18.671 9.573-20.545 9.366 16.435-.208 36.98 22.58-1.983-9.55 16.328zM13816.975 68.351c-33.113 18.87 14.112 19.135-18.787-.106-32.899-19.241-9.518 21.788-9.304-16.324.214-38.111-23.627 2.653 9.486-16.218s-14.111-19.136 18.788.105c32.899 19.242 9.517-21.787 9.303 16.324-.214 38.112 23.627-2.653-9.486 16.219zM13921.912 68.24c-34.096 19.431 15.216 19.708-18.66-.105s-9.461 23.031-9.24-16.213c.22-39.243-24.676 3.323 9.421-16.108 34.096-19.432-15.215-19.708 18.661.104 33.876 19.813 9.46-23.03 9.239 16.213-.22 39.244 24.676-3.323-9.421 16.109zM14026.849 68.129c-35.08 19.992 16.32 20.28-18.533-.104s-9.404 24.274-9.177-16.102c.226-40.376-25.723 3.993 9.357-15.999s-16.319-20.28 18.534.104c34.853 20.385 9.403-24.273 9.176 16.103-.226 40.376 25.723-3.994-9.357 15.998zM14131.786 68.019c-36.063 20.552 17.425 20.852-18.406-.104-35.83-20.955-9.347 25.516-9.114-15.992.233-41.507-26.771 4.664 9.293-15.888 36.063-20.553-17.424-20.853 18.406.103 35.831 20.956 9.347-25.516 9.114 15.992-.233 41.508 26.771-4.664-9.293 15.889zM14236.723 67.908c-37.047 21.113 18.529 21.425-18.278-.103-36.808-21.526-9.291 26.759-9.052-15.881.24-42.639-27.818 5.334 9.229-15.779s-18.528-21.424 18.279.103c36.808 21.527 9.29-26.758 9.051 15.881-.24 42.64 27.818-5.334-9.229 15.779zM14341.66 67.798c-38.03 21.673 19.633 21.996-18.151-.102-37.785-22.099-9.234 28.001-8.988-15.771.245-43.771-28.867 6.004 9.164-15.669 38.03-21.674-19.632-21.997 18.152.101 37.785 22.099 9.233-28 8.987 15.772-.245 43.771 28.867-6.005-9.164 15.669zM14446.597 67.687c-39.014 22.234 20.738 22.569-18.024-.101-38.762-22.67-9.177 29.243-8.925-15.661.252-44.903-29.914 6.675 9.1-15.559 39.014-22.234-20.737-22.569 18.025.101 38.762 22.671 9.176-29.243 8.924 15.661-.252 44.904 29.914-6.675-9.1 15.559zM14551.534 67.577c-39.997 22.794 21.842 23.141-17.897-.101-39.739-23.241-9.121 30.486-8.862-15.55.258-46.035-30.962 7.345 9.036-15.449 39.997-22.795-21.841-23.141 17.897.1 39.739 23.242 9.121-30.485 8.862 15.55-.258 46.036 30.962-7.345-9.036 15.45zM14656.471 67.466c-40.981 23.355 22.947 23.713-17.77-.1-40.716-23.813-9.064 31.729-8.799-15.439.265-47.167-32.009 8.015 8.972-15.34s-22.946-23.713 17.77.1c40.716 23.813 9.064-31.728 8.799 15.439-.265 47.168 32.009-8.015-8.972 15.34zM14761.409 67.356c-41.965 23.914 24.05 24.285-17.643-.1-41.694-24.384-9.008 32.971-8.737-15.328.271-48.299-33.057 8.685 8.908-15.23 41.964-23.915-24.05-24.286 17.643.099s9.007-32.971 8.736 15.329c-.271 48.299 33.057-8.686-8.907 15.23zM14866.346 67.245c-42.949 24.475 25.154 24.858-17.516-.099-42.671-24.955-8.951 34.214-8.673-15.218.277-49.431-34.105 9.356 8.843-15.119 42.948-24.476-25.154-24.858 17.516.098s8.95-34.213 8.672 15.218c-.277 49.432 34.105-9.356-8.842 15.12zM14971.283 67.135c-43.932 25.035 26.259 25.429-17.389-.098-43.647-25.528-8.894 35.456-8.61-15.108.284-50.563-35.153 10.026 8.779-15.01 43.931-25.036-26.259-25.43 17.389.097 43.647 25.528 8.893-35.455 8.609 15.108-.284 50.564 35.153-10.026-8.778 15.011zM15076.22 67.024c-44.916 25.596 27.363 26.002-17.262-.097-44.624-26.099-8.837 36.698-8.547-14.997.29-51.695-36.2 10.696 8.715-14.9 44.915-25.597-27.363-26.003 17.261.096 44.625 26.1 8.837-36.698 8.547 14.998-.29 51.695 36.2-10.697-8.714 14.9zM15181.157 66.914c-45.899 26.156 28.467 26.574-17.134-.097-45.602-26.67-8.781 37.941-8.485-14.886.297-52.828-37.248 11.366 8.651-14.791 45.898-26.157-28.467-26.574 17.134.096 45.602 26.671 8.78-37.941 8.484 14.887-.297 52.828 37.248-11.367-8.65 14.791zM15286.094 66.803c-46.882 26.717 29.572 27.146-17.007-.096s-8.724 39.184-8.421-14.776c.302-53.959-38.296 12.037 8.586-14.68 46.881-26.718-29.572-27.147 17.007.095 46.579 27.242 8.723-39.183 8.42 14.776-.302 53.96 38.296-12.037-8.585 14.681zM15391.031 66.692c-47.866 27.278 30.676 27.719-16.88-.095-47.556-27.813-8.668 40.426-8.358-14.665.309-55.091-39.344 12.707 8.522-14.571 47.865-27.278-30.676-27.719 16.88.095 47.556 27.813 8.667-40.426 8.357 14.665-.309 55.092 39.344-12.707-8.521 14.571zM15495.968 66.582c-48.849 27.838 31.781 28.291-16.753-.094-48.533-28.385-8.611 41.668-8.295-14.555.315-56.223-40.391 13.377 8.458-14.461 48.848-27.839-31.781-28.291 16.752.093 48.534 28.386 8.611-41.668 8.295 14.556-.315 56.223 40.391-13.378-8.457 14.461zM15600.905 66.471c-49.833 28.399 32.885 28.863-16.626-.093-49.51-28.956-8.554 42.911-8.232-14.445.322-57.355-41.439 14.048 8.394-14.351 49.832-28.399-32.885-28.863 16.625.093 49.511 28.957 8.554-42.91 8.232 14.445-.322 57.356 41.439-14.048-8.393 14.351zM15705.842 66.361c-50.816 28.959 33.989 29.435-16.498-.093-50.488-29.528-8.498 44.154-8.169-14.334.328-58.487-42.487 14.718 8.329-14.241 50.815-28.96-33.989-29.436 16.498.092 50.487 29.528 8.497-44.153 8.168 14.334-.328 58.488 42.487-14.718-8.328 14.242zM15810.779 66.25c-51.8 29.52 35.094 30.008-16.371-.092-51.465-30.099-8.441 45.396-8.106-14.223.334-59.619-43.535 15.388 8.265-14.132 51.799-29.52-35.094-30.007 16.371.092 51.464 30.1 8.44-45.396 8.105 14.224-.334 59.619 43.535-15.389-8.264 14.131zM15915.716 66.14c-52.783 30.08 36.198 30.579-16.244-.092-52.442-30.67-8.384 46.639-8.043-14.112.341-60.751-44.582 16.058 8.201-14.022 52.782-30.081-36.198-30.58 16.243.091 52.442 30.671 8.384-46.638 8.043 14.113-.341 60.751 44.582-16.059-8.2 14.022zM16020.653 66.029c-53.767 30.641 37.302 31.152-16.117-.091-53.419-31.242-8.327 47.882-7.98-14.002.347-61.883-45.63 16.729 8.137-13.912 53.766-30.641-37.302-31.152 16.116.091 53.419 31.242 8.327-47.881 7.98 14.002-.347 61.884 45.63-16.729-8.136 13.912zM16125.59 65.919c-54.75 31.201 38.407 31.724-15.989-.09-54.397-31.814-8.272 49.123-7.918-13.892.354-63.015-46.677 17.399 8.073-13.802 54.749-31.202-38.407-31.724 15.989.089 54.396 31.814 8.271-49.123 7.917 13.893-.354 63.015 46.677-17.4-8.072 13.802zM16230.527 65.808c-55.734 31.762 39.511 32.296-15.862-.089-55.373-32.385-8.215 50.366-7.854-13.781.359-64.147-47.726 18.069 8.008-13.693 55.733-31.762-39.511-32.296 15.862.089 55.373 32.386 8.214-50.366 7.853 13.782-.359 64.147 47.726-18.07-8.007 13.692zM16335.464 65.698c-56.717 32.322 40.615 32.868-15.735-.089s-8.158 51.609-7.791-13.671c.366-65.278-48.773 18.74 7.944-13.582 56.716-32.323-40.615-32.869 15.734.088 56.351 32.957 8.158-51.608 7.791 13.671-.366 65.279 48.773-18.74-7.943 13.583zM16440.401 65.587c-57.701 32.883 41.72 33.441-15.608-.088-57.327-33.528-8.101 52.851-7.728-13.56.373-66.411-49.821 19.41 7.88-13.473 57.7-32.883-41.72-33.44 15.607.088 57.328 33.528 8.101-52.851 7.728 13.56-.373 66.412 49.821-19.41-7.879 13.473zM16545.338 65.476c-58.684 33.444 42.824 34.014-15.481-.087-58.304-34.099-8.044 54.094-7.665-13.449.379-67.543-50.868 20.08 7.816-13.363 58.683-33.444-42.824-34.013 15.48.087 58.305 34.1 8.044-54.094 7.665 13.45-.379 67.543 50.868-20.081-7.815 13.362zM16650.275 65.366c-59.668 34.004 43.929 34.585-15.353-.087-59.282-34.671-7.988 55.337-7.602-13.338.385-68.675-51.917 20.75 7.751-13.254 59.667-34.004-43.929-34.585 15.353.087 59.282 34.671 7.987-55.336 7.601 13.339-.385 68.675 51.917-20.751-7.75 13.253zM16755.212 65.255c-60.651 34.565 45.033 35.158-15.226-.085s-7.931 56.578-7.539-13.229c.391-69.806-52.964 21.421 7.687-13.143 60.65-34.565-45.033-35.157 15.225.085 60.259 35.243 7.931-56.578 7.539 13.229-.391 69.807 52.964-21.421-7.686 13.143zM16860.149 65.145c-61.635 35.124 46.137 35.73-15.099-.085-61.236-35.814-7.874 57.821-7.476-13.118.398-70.939-54.012 22.091 7.623-13.034 61.634-35.124-46.137-35.729 15.098.085 61.236 35.814 7.874-57.821 7.476 13.119-.398 70.939 54.012-22.092-7.622 13.033zM16965.086 65.034c-62.618 35.685 47.242 36.302-14.972-.084-62.213-36.385-7.818 59.064-7.413-13.007.404-72.071-55.059 22.761 7.559-12.924 62.617-35.685-47.242-36.302 14.971.084 62.213 36.386 7.818-59.063 7.413 13.008-.404 72.071 55.059-22.762-7.558 12.923zM17070.023 64.924c-63.602 36.245 48.346 36.874-14.844-.084-63.191-36.957-7.762 60.306-7.351-12.897.411-73.202-56.107 23.432 7.495-12.813 63.601-36.246-48.346-36.874 14.844.083s7.761-60.306 7.35 12.897c-.411 73.203 56.107-23.432-7.494 12.814zM17174.96 64.813c-64.585 36.806 49.45 37.447-14.717-.083-64.168-37.528-7.705 61.549-7.287-12.786.416-74.334-57.155 24.102 7.43-12.704 64.584-36.806-49.45-37.446 14.716.083 64.168 37.528 7.705-61.549 7.287 12.787-.416 74.334 57.155-24.103-7.429 12.703zM17279.897 64.703c-65.569 37.366 50.555 38.018-14.59-.082s-7.648 62.791-7.224-12.676c.423-75.467-58.203 24.772 7.366-12.594 65.568-37.367-50.555-38.019 14.589.081 65.145 38.101 7.648-62.79 7.224 12.677-.423 75.467 58.203-24.773-7.365 12.594zM17384.834 64.592c-66.552 37.927 51.659 38.591-14.463-.081-66.122-38.672-7.591 64.033-7.161-12.565.43-76.599-59.25 25.442 7.302-12.485 66.551-37.927-51.659-38.59 14.462.081 66.122 38.672 7.591-64.033 7.161 12.566-.43 76.599 59.25-25.443-7.301 12.484zM17489.771 64.482c-67.536 38.487 52.763 39.163-14.336-.081-67.099-39.243-7.534 65.276-7.098-12.455.436-77.73-60.298 26.113 7.238-12.374 67.535-38.488-52.763-39.163 14.335.08 67.099 39.243 7.534-65.276 7.098 12.455-.436 77.731 60.298-26.113-7.237 12.375zM17594.708 64.371c-68.519 39.048 53.868 39.735-14.208-.08-68.076-39.814-7.478 66.519-7.035-12.344.442-78.862-61.346 26.783 7.173-12.265 68.518-39.048-53.868-39.735 14.208.08 68.076 39.815 7.477-66.519 7.034 12.345-.442 78.862 61.346-26.784-7.172 12.264zM17699.645 64.26c-69.503 39.609 54.972 40.308-14.081-.079-69.053-40.386-7.422 67.761-6.972-12.233.448-79.995-62.394 27.453 7.109-12.155 69.502-39.609-54.972-40.307 14.08.079 69.054 40.386 7.422-67.761 6.972 12.234-.448 79.995 62.394-27.454-7.108 12.154zM17804.582 64.15c-70.486 40.169 56.077 40.88-13.954-.079-70.03-40.957-7.365 69.004-6.909-12.123.455-81.126-63.441 28.124 7.045-12.045 70.485-40.169-56.077-40.879 13.953.079 70.03 40.957 7.365-69.004 6.909 12.123-.455 81.127 63.441-28.124-7.044 12.045z" fill="#798379"/><path d="M17909.519 64.039c-71.47 40.73 57.181 41.452-13.827-.077-71.007-41.529-7.308 70.246-6.846-12.013.461-82.258-64.489 28.794 6.981-11.935 71.469-40.73-57.181-41.452 13.826.077 71.007 41.529 7.308-70.246 6.846 12.014-.461 82.258 64.489-28.795-6.98 11.934z" fill="#798278"/><path d="M18014.456 63.929c-72.453 41.29 58.285 42.024-13.699-.077-71.985-42.101-7.252 71.489-6.784-11.902.468-83.39-65.536 29.464 6.917-11.826 72.452-41.29-58.285-42.023 13.699.077 71.984 42.101 7.251-71.488 6.783 11.903-.468 83.39 65.536-29.465-6.916 11.825z" fill="#7a8278"/><path d="M18119.393 63.818c-73.437 41.851 59.39 42.597-13.572-.076-72.962-42.672-7.195 72.731-6.72-11.791.474-84.523-66.585 30.134 6.852-11.716 73.436-41.851-59.39-42.596 13.571.076 72.962 42.672 7.195-72.731 6.72 11.792-.474 84.523 66.585-30.135-6.851 11.715z" fill="#7a8177"/><path d="M18224.33 63.708c-74.42 42.411 60.494 43.168-13.445-.076-73.939-43.243-7.138 73.974-6.657-11.681.48-85.654-67.632 30.805 6.788-11.606 74.419-42.411-60.494-43.168 13.444.076 73.939 43.243 7.138-73.974 6.657 11.682-.48 85.654 67.632-30.806-6.787 11.605z" fill="#7a8076"/><path d="M18329.267 63.597c-75.404 42.972 61.598 43.741-13.318-.075-74.916-43.814-7.081 75.217-6.594-11.57.487-86.786-68.68 31.475 6.724-11.496 75.403-42.972-61.598-43.74 13.317.075 74.916 43.815 7.081-75.216 6.594 11.571-.487 86.786 68.68-31.476-6.723 11.495z" fill="#7b7f75"/><path d="M18434.204 63.487c-76.387 43.532 62.703 44.313-13.191-.074-75.893-44.387-7.024 76.458-6.531-11.46.493-87.919-69.727 32.145 6.66-11.387 76.386-43.532-62.703-44.312 13.19.074 75.893 44.387 7.024-76.458 6.531 11.461-.493 87.919 69.727-32.146-6.659 11.386z" fill="#7b7e74"/><path d="M18539.141 63.376c-77.371 44.093 63.807 44.885-13.063-.073-76.871-44.958-6.969 77.701-6.468-11.349.499-89.051-70.776 32.815 6.595-11.277 77.37-44.093-63.807-44.884 13.062.073 76.871 44.958 6.969-77.701 6.468 11.35-.499 89.051 70.776-32.816-6.594 11.276z" fill="#7c7c73"/><path d="M18644.078 63.266c-78.354 44.653 64.911 45.457-12.936-.073-77.848-45.529-6.912 78.944-6.405-11.239.505-90.182-71.823 33.486 6.531-11.167 78.353-44.653-64.911-45.456 12.935.073 77.848 45.529 6.912-78.944 6.405 11.24-.505 90.182 71.823-33.487-6.53 11.166z" fill="#7d7b71"/><path d="M18749.015 63.155c-79.338 45.214 66.016 46.03-12.809-.072-78.825-46.101-6.855 80.186-6.342-11.128.512-91.314-72.871 34.156 6.467-11.057 79.337-45.214-66.016-46.029 12.808.072 78.825 46.101 6.855-80.186 6.342 11.129-.512 91.314 72.871-34.157-6.466 11.056z" fill="#7e786f"/><path d="M18853.952 63.045c-80.321 45.774 67.12 46.601-12.682-.072-79.801-46.672-6.798 81.429-6.279-11.017.519-92.447-73.918 34.826 6.403-10.948 80.32-45.774-67.12-46.6 12.681.072 79.801 46.672 6.798-81.429 6.279 11.018-.519 92.447 73.918-34.827-6.402 10.947z" fill="#7f766c"/><path d="M18958.924 62.995c-80.752 46.02 67.605 46.853-12.625-.071-80.23-46.922-6.773 81.974-6.251-10.968.521-92.942-74.378 35.121 6.374-10.898 80.751-46.02-67.605-46.852 12.624.071 80.23 46.922 6.773-81.974 6.251 10.969-.521 92.942 74.378-35.122-6.373 10.897z" fill="#80736a"/><path d="M19063.917 62.983c-80.805 46.051 67.672 46.884-12.611-.07s-6.767 82.047-6.244-10.957c.521-93.004-74.439 35.164 6.367-10.886 80.804-46.051-67.672-46.883 12.61.07 80.283 46.954 6.767-82.047 6.244 10.958-.521 93.004 74.439-35.165-6.366 10.885z" fill="#827067"/><path d="M19168.904 62.961c-80.909 46.109 67.801 46.944-12.585-.071-80.386-47.014-6.754 82.189-6.231-10.934.522-93.123-74.555 35.245 6.354-10.864 80.908-46.109-67.801-46.943 12.584.071 80.386 47.014 6.754-82.189 6.231 10.935-.522 93.123 74.555-35.246-6.353 10.863z" fill="#836d64"/><path d="M19273.885 62.927c-81.062 46.197 67.992 47.034-12.546-.071-80.539-47.103-6.736 82.4-6.212-10.9.523-93.299-74.729 35.366 6.334-10.83 81.061-46.197-67.992-47.033 12.545.071 80.539 47.103 6.736-82.4 6.212 10.901-.523 93.299 74.729-35.367-6.333 10.829z" fill="#856960"/><path d="M19378.86 62.882c-81.266 46.313 68.245 47.152-12.495-.07-80.741-47.221-6.712 82.678-6.187-10.855.524-93.534-74.957 35.526 6.308-10.786 81.265-46.313-68.245-47.151 12.494.07 80.741 47.221 6.712-82.678 6.187 10.856-.524 93.534 74.957-35.527-6.307 10.785z" fill="#87665d"/><path d="M19483.828 62.827c-81.519 46.456 68.561 47.299-12.431-.07s-6.682 83.025-6.155-10.8c.526-93.825-75.243 35.726 6.276-10.731 81.518-46.456-68.561-47.298 12.43.07 80.992 47.369 6.682-83.025 6.155 10.801-.526 93.825 75.243-35.727-6.275 10.73z" fill="#886259"/><path d="M19588.79 62.76c-81.823 46.63 68.939 47.476-12.354-.069-81.294-47.545-6.646 83.441-6.117-10.733.528-94.175-75.585 35.965 6.237-10.665 81.822-46.63-68.939-47.475 12.353.07 81.294 47.544 6.646-83.442 6.117 10.733-.528 94.175 75.585-35.966-6.236 10.664z" fill="#8a5f56"/><path d="M19693.746 62.682c-82.176 46.831 69.379 47.682-12.265-.069-81.645-47.75-6.604 83.926-6.073-10.655.531-94.581-75.983 36.244 6.192-10.587 82.175-46.831-69.38-47.681 12.264.069 81.645 47.75 6.604-83.926 6.073 10.656-.531 94.581 75.983-36.245-6.191 10.586z" fill="#8c5b53"/><path d="M19798.695 62.594c-82.579 47.061 69.883 47.917-12.163-.069-82.045-47.984-6.556 84.479-6.022-10.566.533-95.046-76.438 36.561 6.141-10.5 82.578-47.061-69.883-47.916 12.162.069 82.045 47.984 6.556-84.479 6.022 10.567-.533 95.046 76.438-36.562-6.14 10.499z" fill="#8d5850"/><path d="M19903.638 62.494c-83.032 47.319 70.448 48.181-12.048-.068-82.495-48.247-6.502 85.1-5.965-10.467.536-95.567-76.95 36.919 6.083-10.4 83.031-47.319-70.448-48.18 12.047.068 82.496 48.248 6.502-85.1 5.965 10.468-.536 95.567 76.95-36.92-6.082 10.399z" fill="#8f554d"/><path d="M20008.575 62.384c-83.535 47.605 71.075 48.474-11.92-.067-82.996-48.541-6.443 85.789-5.903-10.357.539-96.146-77.517 37.316 6.019-10.29 83.534-47.606-71.075-48.474 11.92.067 82.995 48.54 6.442-85.79 5.902 10.357-.539 96.146 77.517-37.317-6.018 10.29z" fill="#90524a"/><path d="M20113.506 62.262c-84.089 47.921 71.764 48.796-11.781-.066s-6.376 86.548-5.833-10.235c.543-96.783-78.141 37.751 5.948-10.17 84.088-47.921-71.765-48.795 11.78.067 83.545 48.861 6.376-86.548 5.833 10.235-.543 96.783 78.141-37.752-5.947 10.169z" fill="#915048"/><path d="M20218.43 62.129c-84.692 48.265 72.516 49.148-11.628-.065-84.144-49.212-6.305 87.375-5.757-10.102.546-97.477-78.821 38.227 5.87-10.038 84.692-48.265-72.516-49.147 11.628.065 84.145 49.213 6.305-87.374 5.757 10.103-.546 97.477 78.821-38.228-5.87 10.037z" fill="#924d45"/><path d="M20323.348 61.986c-85.345 48.637 73.331 49.528-11.462-.064-84.794-49.592-6.228 88.27-5.676-9.959.551-98.229-79.558 38.742 5.787-9.895 85.345-48.638-73.33-49.528 11.463.064 84.793 49.592 6.227-88.27 5.675 9.959-.551 98.229 79.558-38.743-5.787 9.895z" fill="#934b43"/><path d="M20428.26 61.831c-86.048 49.038 74.207 49.938-11.284-.063-85.492-50-6.144 89.234-5.588-9.804.555-99.039-80.351 39.296 5.697-9.742s-74.207-49.937 11.285.063c85.492 50.001 6.143-89.233 5.587 9.805-.555 99.039 80.351-39.297-5.697 9.741z" fill="#944941"/><path d="M20533.166 61.666c-86.801 49.467 75.145 50.376-11.094-.062-86.24-50.438-6.054 90.266-5.494-9.639.561-99.905-81.2 39.89 5.601-9.577 86.801-49.468-75.145-50.376 11.095.062 86.24 50.438 6.053-90.266 5.493 9.639-.561 99.905 81.2-39.891-5.601 9.577z" fill="#95473f"/><path d="M20638.065 61.49c-87.604 49.924 76.147 50.843-10.891-.062-87.038-50.904-5.958 91.367-5.393-9.462.566-100.83-82.105 40.523 5.499-9.402 87.604-49.925-76.147-50.843 10.891.061 87.038 50.905 5.958-91.366 5.393 9.463-.566 100.83 82.105-40.524-5.499 9.402z" fill="#96453e"/><path d="M20742.958 61.302c-88.457 50.411 77.21 51.341-10.675-.06-87.885-51.4-5.857 92.536-5.286-9.275.572-101.811-83.067 41.195 5.39-9.215 88.457-50.412-77.21-51.341 10.675.06 87.886 51.4 5.857-92.536 5.286 9.275-.572 101.811 83.067-41.196-5.39 9.215z" fill="#97443c"/><path d="M20847.845 61.104c-89.36 50.925 78.336 51.866-10.446-.059-88.783-51.925-5.75 93.774-5.173-9.077.577-102.85-84.086 41.908 5.274-9.018s-78.336-51.866 10.447.059 5.749-93.774 5.172 9.077c-.577 102.85 84.086-41.909-5.274 9.018z" fill="#97423b"/><path d="M20952.824 61.066c-89.53 51.022 78.547 51.966-10.404-.058s-5.73 94.006-5.151-9.039c.578-103.046-84.277 42.04 5.252-8.981 89.53-51.023-78.547-51.966 10.405.058 88.951 52.024 5.729-94.006 5.15 9.039-.578 103.046 84.277-42.041-5.252 8.981z" fill="#98413a"/><path d="M21057.883 61.17c-89.06 50.754 77.961 51.692-10.523-.059-88.484-51.752-5.785 93.362-5.21-9.143.575-102.505-83.748 41.671 5.312-9.084 89.06-50.755-77.961-51.692 10.523.059 88.485 51.751 5.785-93.362 5.21 9.143-.575 102.505 83.748-41.672-5.312 9.084z" fill="#984038"/><path d="M21162.935 61.262c-88.64 50.515 77.439 51.447-10.628-.06-88.068-51.507-5.836 92.788-5.263-9.235.572-102.022-83.275 41.34 5.366-9.175 88.64-50.516-77.439-51.447 10.629.06 88.068 51.507 5.835-92.788 5.262 9.235-.572 102.022 83.275-41.341-5.366 9.175z" fill="#993f37"/><path d="M21267.982 61.343c-88.271 50.305 76.978 51.232-10.722-.06-87.701-51.293-5.88 92.281-5.31-9.316.57-101.597-82.858 41.049 5.414-9.256 88.27-50.306-76.979-51.232 10.722.06 87.701 51.293 5.879-92.281 5.309 9.316-.57 101.597 82.858-41.05-5.413 9.256z" fill="#9a3e36"/><path d="M21373.022 61.413c-87.952 50.123 76.579 51.046-10.803-.06-87.384-51.107-5.918 91.843-5.35-9.387.568-101.229-82.497 40.797 5.455-9.325 87.951-50.124-76.58-51.046 10.803.06 87.383 51.107 5.917-91.843 5.349 9.387-.568 101.229 82.497-40.798-5.454 9.325z" fill="#9a3d35"/><path d="M21478.055 61.472c-87.681 49.969 76.244 50.89-10.871-.061-87.115-50.95-5.949 91.474-5.383-9.445.566-100.919-82.193 40.584 5.489-9.385 87.681-49.969-76.244-50.889 10.871.061 87.116 50.95 5.949-91.473 5.383 9.446-.566 100.919 82.193-40.585-5.489 9.384z" fill="#9a3c34"/><path d="M21583.083 61.521c-87.462 49.843 75.97 50.761-10.927-.062-86.897-50.822-5.975 91.173-5.41-9.493.564-100.667-81.946 40.411 5.516-9.433s-75.97-50.761 10.927.061c86.898 50.823 5.975-91.172 5.41 9.494-.564 100.667 81.946-40.412-5.516 9.433z" fill="#9b3b34"/><path d="M21688.104 61.558c-87.292 49.747 75.759 50.662-10.969-.062-86.729-50.723-5.996 90.94-5.432-9.531.563-100.47-81.755 40.278 5.538-9.469 87.292-49.748-75.758-50.662 10.97.061 86.729 50.724 5.995-90.94 5.431 9.532-.563 100.47 81.755-40.279-5.538 9.469z" fill="#9b3a33"/><path d="M21793.119 61.584c-87.173 49.679 75.609 50.593-11-.061-86.609-50.655-6.01 90.775-5.447-9.558.563-100.333-81.619 40.183 5.554-9.496s-75.609-50.592 11 .062c86.61 50.654 6.01-90.776 5.447 9.558-.563 100.333 81.619-40.184-5.554 9.495z" fill="#9b3932"/><path d="M21898.128 61.6c-87.103 49.639 75.522 50.552-11.018-.062s-6.018 90.68-5.455-9.573c.562-100.253-81.541 40.128 5.562-9.511 87.103-49.64-75.522-50.552 11.018.062 86.541 50.614 6.018-90.68 5.455 9.573-.562 100.253 81.541-40.129-5.562 9.511z" fill="#9c3932"/><path d="M22003.13 61.604c-87.083 49.628 75.498 50.541-11.022-.062-86.521-50.602-6.021 90.653-5.458-9.577.562-100.23-81.519 40.113 5.565-9.515 87.083-49.629-75.498-50.541 11.023.062 86.521 50.602 6.02-90.654 5.457 9.577-.562 100.23 81.519-40.114-5.565 9.515z" fill="#9c3831"/><path d="M22108.127 61.597c-87.114 49.645 75.535 50.559-11.015-.062-86.551-50.619-6.017 90.695-5.455-9.57.563-100.265-81.552 40.136 5.562-9.509 87.113-49.645-75.536-50.558 11.015.062s6.016-90.694 5.454 9.571c-.563 100.265 81.552-40.137-5.561 9.508z" fill="#9c3830"/><path d="M22213.117 61.58c-87.194 49.69 75.635 50.605-10.995-.062-86.631-50.666-6.008 90.804-5.444-9.553.563-100.357-81.643 40.2 5.551-9.491 87.193-49.691-75.636-50.605 10.995.062 86.63 50.666 6.007-90.805 5.443 9.553-.563 100.357 81.643-40.201-5.55 9.491zM22318.1 61.551c-87.324 49.765 75.798 50.681-10.961-.061-86.76-50.743-5.993 90.982-5.428-9.525.564-100.507-81.79 40.303 5.534-9.462 87.324-49.766-75.798-50.681 10.962.061s5.992-90.983 5.427 9.525c-.564 100.507 81.79-40.304-5.534 9.462z" fill="#9d3730"/><path d="M22423.078 61.511c-87.504 49.868 76.022 50.786-10.916-.061-86.939-50.847-5.971 91.23-5.406-9.484.565-100.715-81.993 40.444 5.512-9.424 87.503-49.868-76.023-50.785 10.916.062 86.939 50.846 5.97-91.23 5.405 9.484-.565 100.715 81.993-40.445-5.511 9.423zM22528.049 61.461c-87.734 49.999 76.309 50.92-10.858-.061s-5.943 91.545-5.377-9.434c.567-100.979-82.252 40.626 5.482-9.373 87.734-50-76.309-50.92 10.859.061 87.167 50.98 5.942-91.546 5.376 9.434-.567 100.979 82.252-40.627-5.482 9.373z" fill="#9d362f"/><path d="M22633.014 61.399c-88.015 50.159 76.658 51.083-10.787-.06-87.446-51.143-5.91 91.929-5.342-9.373.569-101.301-82.568 40.847 5.446-9.312 88.015-50.159-76.658-51.082 10.788.061s5.909-91.929 5.341 9.373c-.569 101.301 82.568-40.848-5.446 9.311z" fill="#9d362e"/><path d="M22737.972 61.327c-88.344 50.346 77.07 51.275-10.703-.06-87.774-51.335-5.871 92.381-5.3-9.3.57-101.682-82.941 41.106 5.404-9.24 88.344-50.347-77.07-51.275 10.704.06s5.87-92.382 5.299 9.3c-.57 101.682 82.941-41.107-5.404 9.24z" fill="#9d352e"/><path d="M22842.925 61.243c-88.725 50.563 77.543 51.497-10.607-.059-88.152-51.556-5.826 92.902-5.253-9.217.573-102.118-83.369 41.407 5.355-9.156 88.725-50.564-77.543-51.497 10.608.059 88.152 51.556 5.825-92.903 5.252 9.217-.573 102.118 83.369-41.408-5.355 9.156zM22947.871 61.149c-89.154 50.808 78.079 51.747-10.498-.059-88.579-51.806-5.775 93.492-5.199-9.122.575-102.614-83.854 41.745 5.3-9.063 89.154-50.809-78.079-51.747 10.499.059 88.579 51.806 5.774-93.492 5.198 9.122-.575 102.614 83.854-41.746-5.3 9.063zM23052.811 61.043c-89.635 51.082 78.677 52.027-10.377-.058-89.056-52.085-5.718 94.15-5.139-9.016.579-103.167-84.395 42.123 5.239-8.958 89.635-51.083-78.677-52.027 10.378.058 89.056 52.085 5.717-94.15 5.138 9.016-.579 103.167 84.395-42.124-5.239 8.958z" fill="#9e352e"/><path d="M23157.814 61.049c-89.607 51.066 78.644 52.011-10.384-.058s-5.721 94.113-5.142-9.022c.579-103.135-84.364 42.102 5.243-8.964 89.607-51.067-78.644-52.011 10.385.058 89.028 52.069 5.72-94.113 5.141 9.022-.579 103.135 84.364-42.103-5.243 8.964zM23262.844 61.103c-89.365 50.928 78.343 51.869-10.445-.059-88.788-51.928-5.749 93.781-5.172-9.076.577-102.856-84.092 41.912 5.274-9.017 89.365-50.929-78.342-51.869 10.445.059 88.789 51.928 5.749-93.781 5.172 9.076-.577 102.856 84.092-41.913-5.274 9.017zM23367.869 61.145c-89.174 50.819 78.102 51.758-10.494-.059-88.597-51.817-5.773 93.518-5.197-9.118.576-102.636-83.875 41.76 5.299-9.059 89.173-50.82-78.103-51.758 10.494.059s5.772-93.518 5.196 9.118c-.576 102.636 83.875-41.761-5.298 9.059zM23472.886 61.176c-89.031 50.738 77.926 51.675-10.529-.059-88.456-51.734-5.79 93.323-5.214-9.149.575-102.472-83.716 41.648 5.316-9.09 89.031-50.739-77.926-51.675 10.53.059 88.456 51.734 5.789-93.323 5.213 9.149-.575 102.472 83.716-41.649-5.316 9.09zM23577.898 61.196c-88.939 50.686 77.811 51.622-10.553-.059-88.365-51.681-5.8 93.197-5.226-9.169.575-102.367-83.611 41.575 5.328-9.11 88.939-50.687-77.811-51.622 10.554.059 88.365 51.681 5.799-93.197 5.225 9.169-.575 102.367 83.611-41.576-5.328 9.11zM23682.903 61.205c-88.897 50.662 77.759 51.598-10.563-.059-88.323-51.656-5.806 93.14-5.231-9.178.574-102.318-83.564 41.542 5.333-9.119 88.897-50.663-77.759-51.598 10.564.059 88.323 51.656 5.805-93.14 5.23 9.178-.574 102.318 83.564-41.543-5.333 9.119zM23787.902 61.204c-88.905 50.666 77.769 51.601-10.561-.06-88.331-51.661-5.805 93.151-5.23-9.176.574-102.327-83.573 41.548 5.332-9.118 88.905-50.667-77.769-51.601 10.562.06s5.804-93.151 5.229 9.176c-.574 102.327 83.573-41.549-5.332 9.118zM23892.895 61.191c-88.963 50.699 77.841 51.635-10.547-.059-88.388-51.695-5.797 93.23-5.223-9.164.575-102.394-83.638 41.594 5.325-9.105 88.963-50.7-77.841-51.635 10.548.059 88.388 51.695 5.796-93.23 5.222 9.164-.575 102.394 83.638-41.595-5.325 9.105zM23997.881 61.167c-89.071 50.761 77.976 51.699-10.519-.059-88.496-51.757-5.785 93.378-5.209-9.14.575-102.518-83.76 41.679 5.311-9.081 89.071-50.762-77.976-51.699 10.52.059 88.496 51.757 5.784-93.378 5.208 9.14-.575 102.518 83.76-41.68-5.311 9.081zM24102.862 61.132c-89.229 50.851 78.172 51.791-10.48-.058-88.653-51.849-5.766 93.594-5.189-9.106.576-102.699-83.938 41.804 5.29-9.047 89.229-50.851-78.172-51.79 10.481.059 88.652 51.849 5.765-93.594 5.188 9.106-.576 102.699 83.938-41.805-5.29 9.046zM24207.836 61.087c-89.437 50.969 78.431 51.911-10.427-.059-88.859-51.97-5.742 93.879-5.164-9.06.578-102.938-84.172 41.968 5.265-9.001 89.436-50.97-78.432-51.911 10.427.059 88.859 51.97 5.741-93.879 5.163 9.06-.578 102.938 84.172-41.969-5.264 9.001zM24312.803 61.03c-89.694 51.116 78.753 52.062-10.361-.058-89.116-52.12-5.711 94.232-5.132-9.003.58-103.236-84.463 42.171 5.232-8.945 89.694-51.117-78.753-52.062 10.362.058 89.116 52.12 5.71-94.232 5.131 9.003-.58 103.236 84.463-42.172-5.232 8.945zM24417.806 61.035c-89.675 51.104 78.728 52.05-10.367-.059-89.096-52.108-5.713 94.206-5.134-9.007.579-103.213-84.44 42.155 5.234-8.95 89.675-51.105-78.728-52.05 10.368.059 89.096 52.108 5.712-94.206 5.133 9.007-.579 103.213 84.44-42.156-5.234 8.95zM24522.825 61.069c-89.519 51.016 78.534 51.959-10.406-.059-88.941-52.017-5.731 93.992-5.153-9.041.578-103.034-84.265 42.032 5.254-8.984 89.519-51.017-78.534-51.959 10.407.059 88.94 52.017 5.73-93.992 5.152 9.041-.578 103.034 84.265-42.033-5.254 8.984zM24627.839 61.092c-89.413 50.955 78.401 51.898-10.433-.058-88.836-51.956-5.744 93.846-5.167-9.066.578-102.911-84.145 41.949 5.268-9.006 89.412-50.956-78.402-51.898 10.433.058 88.836 51.956 5.743-93.846 5.166 9.066-.578 102.911 84.145-41.95-5.267 9.006zM24732.846 61.104c-89.357 50.924 78.331 51.865-10.448-.058-88.779-51.924-5.75 93.769-5.173-9.078.577-102.847-84.082 41.905 5.275-9.018 89.356-50.925-78.332-51.865 10.448.058 88.779 51.924 5.749-93.769 5.172 9.078-.577 102.847 84.082-41.906-5.274 9.018zM24837.846 61.106c-89.35 50.92 78.324 51.861-10.448-.059-88.774-51.92-5.752 93.761-5.175-9.079s-84.075 41.9 5.276-9.02c89.35-50.921-78.324-51.861 10.449.059 88.774 51.92 5.751-93.761 5.174 9.079s84.075-41.901-5.276 9.02zM24942.841 61.096c-89.395 50.945 78.379 51.887-10.438-.059-88.817-51.945-5.746 93.822-5.169-9.069.578-102.89-84.124 41.935 5.27-9.01 89.395-50.946-78.379-51.887 10.439.058 88.817 51.946 5.745-93.821 5.168 9.07-.578 102.89 84.124-41.936-5.27 9.01zM25047.829 61.075c-89.489 50.999 78.496 51.942-10.414-.058s-5.735 93.95-5.157-9.048c.578-102.999-84.231 42.008 5.258-8.99 89.489-51-78.496-51.942 10.415.058 88.91 52 5.734-93.95 5.156 9.048-.578 102.999 84.231-42.009-5.258 8.99zM25152.811 61.044c-89.633 51.08 78.675 52.025-10.377-.058-89.054-52.084-5.718 94.147-5.139-9.017.579-103.164-84.394 42.122 5.239-8.959 89.633-51.081-78.675-52.025 10.378.058 89.054 52.084 5.717-94.147 5.138 9.017-.579 103.164 84.394-42.123-5.239 8.959zM25257.79 61.007c-89.797 51.174 78.881 52.121-10.335-.058-89.217-52.179-5.698 94.373-5.118-8.98.58-103.353-84.579 42.252 5.218-8.922 89.797-51.175-78.881-52.121 10.336.058 89.216 52.179 5.697-94.373 5.117 8.98-.58 103.353 84.578-42.253-5.218 8.922zM25362.772 60.976c-89.501 51.005 78.605 51.98-10.317-.027-88.923-52.007-5.66 94.033-5.082-8.98.578-103.012-84.319 42.083 5.182-8.922 89.501-51.006-78.605-51.918 10.318.089s5.713-94.064 5.135 8.949c-.578 103.013 84.265-42.116-5.236 8.891zM25467.726 60.896c-88.728 50.565 77.883 51.611-10.271.053-88.155-51.558-5.563 93.144-4.99-8.979.573-102.123-83.638 41.642 5.09-8.923 88.728-50.566-77.884-51.389 10.271.169s5.755-93.254 5.182 8.869c-.573 102.123 83.446-41.756-5.282 8.811zM25572.652 60.766c-87.478 49.852 76.715 51.015-10.197.183-86.913-50.832-5.405 91.706-4.84-8.978.565-100.685-82.538 40.929 4.94-8.924 87.478-49.854-76.717-50.534 10.196.298s5.822-91.945 5.257 8.74c-.565 100.685 82.123-41.173-5.356 8.681zM25677.55 60.586c-85.751 48.869 75.101 50.191-10.095.363-85.197-49.828-5.187 89.72-4.634-8.977.554-98.697-81.017 39.944 4.734-8.925 85.751-48.87-75.106-49.352 10.091.476 85.198 49.829 5.916-90.135 5.362 8.562-.554 98.697 80.293-40.369-5.458 8.501zM25782.42 60.357c-83.548 47.613 73.042 49.14-9.965.592-83.008-48.548-4.909 87.185-4.37-8.976.54-96.16-79.077 38.687 4.47-8.926 83.547-47.614-73.05-47.844 9.958.704s6.035-87.826 5.495 8.334 77.959-39.342-5.588 8.272zM25887.261 60.078c-80.867 46.085 70.537 47.861-9.806.871-80.344-46.99-4.571 84.101-4.049-8.974.522-93.075-76.717 37.157 4.149-8.928 80.866-46.086-70.548-46.009 9.796.981s6.179-85.018 5.657 8.057c-.522 93.075 75.119-38.093-5.747 7.993zM25992.074 59.75c-77.709 44.285 67.587 46.354-9.619 1.199-77.207-45.155-4.173 80.468-3.671-8.972.502-89.44-73.937 35.355 3.771-8.93 77.708-44.286-67.601-43.848 9.606 1.307 77.206 45.155 6.349-81.709 5.847 7.731-.502 89.44 71.774-36.621-5.934 7.665zM26096.858 59.372c-74.073 42.214 64.191 44.62-9.403 1.577-73.595-43.043-3.714 76.287-3.236-8.97.478-85.256-70.737 33.282 3.336-8.932s-64.209-41.36 9.386 1.683c73.595 43.042 6.545-77.901 6.067 7.355-.478 85.256 67.924-34.928-6.15 7.287zM26201.615 58.945c-69.962 39.87 60.349 42.657-9.16 2.004-69.51-40.653-3.196 71.557-2.744-8.967.452-80.523-67.117 30.935 2.844-8.935 69.961-39.871-60.372-38.546 9.137 2.107 69.51 40.653 6.768-73.592 6.316 6.931-.452 80.523 63.568-33.012-6.393 6.86zM26306.343 58.467c-65.372 37.255 56.061 40.468-8.888 2.482-64.95-37.986-2.617 66.278-2.195-8.964.422-75.241-63.077 28.317 2.295-8.938s-56.09-35.405 8.86 2.581c64.95 37.987 7.015-68.784 6.593 6.457-.422 75.241 58.707-30.873-6.665 6.382zM26411.043 57.941c-60.306 34.367 51.328 38.051-8.588 3.008-59.917-35.043-1.978 60.45-1.589-8.96.39-69.41-58.617 25.426 1.689-8.942 60.306-34.368-51.363-31.938 8.554 3.105 59.917 35.042 7.289-63.477 6.899 5.933-.389 69.41 53.341-28.513-6.965 5.856zM26515.714 57.364c-54.763 31.209 46.149 35.406-8.259 3.585-54.409-31.821-1.279 54.074-.926-8.957.354-63.03-53.737 22.264 1.026-8.945 54.763-31.209-46.19-28.145 8.219 3.677s7.588-57.669 7.234 5.361c-.353 63.03 47.469-25.93-7.294 5.279zM26620.358 56.739c-48.743 27.777 40.524 32.533-7.903 4.21-48.428-28.323-.52 47.149-.205-8.953.315-56.101-48.438 18.829.305-8.949s-40.573-24.025 7.856 4.299c48.427 28.323 7.912-51.362 7.597 4.739-.314 56.101 41.092-23.125-7.65 4.654zM26724.973 56.063c-42.246 24.075 34.454 29.434-7.518 4.886-41.973-24.548.3 39.675.572-8.948.273-48.623-42.717 15.121-.472-8.954 42.245-24.075-34.51-19.578 7.463 4.97 41.972 24.548 8.263-44.555 7.99 4.068-.272 48.623 34.21-20.098-8.035 3.978zM26829.559 55.338c-35.27 20.1 27.939 26.106-7.104 5.611-35.044-20.495 1.179 31.652 1.407-8.944.228-40.595-36.578 11.142-1.307-8.958 35.271-20.101-28.002-14.805 7.042 5.691 35.043 20.495 8.639-37.249 8.411 3.347-.227 40.595 26.822-16.848-8.449 3.253zM26934.118 54.563c-27.82 15.854 20.976 22.551-6.663 6.386-27.64-16.165 2.119 23.081 2.298-8.939.18-32.019-30.018 6.891-2.198-8.963s-21.049-9.706 6.592 6.46c27.639 16.166 9.041-29.442 8.861 2.578-.179 32.019 18.93-13.377-8.89 2.478zM27038.648 53.739c-19.891 11.336 13.569 18.768-6.193 7.21-19.763-11.558 3.119 13.961 3.247-8.933.129-22.894-23.038 2.367-3.147-8.969 19.891-11.336-13.651-4.28 6.113 7.279 19.762 11.559 9.469-21.136 9.34 1.759-.128 22.894 10.532-9.683-9.36 1.654zM27143.15 52.865c-11.485 6.546 5.716 14.758-5.695 8.084-11.412-6.674 4.179 4.292 4.253-8.928.074-13.219-15.639-2.429-4.153-8.974s-5.807 1.473 5.605 8.148c11.411 6.674 9.922-12.33 9.848.89-.074 13.219 1.628-5.766-9.858.78zM27247.778 52.212c-5.203 2.965-.154 11.76-5.323 8.737-5.17-3.023 4.972-2.935 5.005-8.924.034-5.987-10.108-6.013-4.905-8.978s.055 5.773 5.225 8.797c5.169 3.023 10.262-5.748 10.228.241-.033 5.988-5.027-2.839-10.23.127zM27353.052 52.692c-9.823 5.598 4.162 13.964-5.597 8.257-9.76-5.707 4.389 2.379 4.452-8.927.064-11.305-14.175-3.377-4.352-8.975s-4.256 2.611 5.504 8.319c9.759 5.708 10.013-10.587 9.949.719-.063 11.305-.134-4.991-9.956.607zM27458.297 53.123c-13.965 7.958 8.033 15.941-5.842 7.826-13.876-8.115 3.867 7.145 3.956-8.929.091-16.074-17.821-1.014-3.856-8.973 13.965-7.959-8.121-.224 5.755 7.891 13.875 8.115 9.788-14.927 9.698 1.147-.09 16.073 4.255-6.922-9.711 1.038zM27563.514 53.504c-17.631 10.048 11.458 17.69-6.059 7.445-17.518-10.245 3.404 11.361 3.518-8.932.114-20.292-21.049 1.078-3.418-8.97s-11.542-2.733 5.976 7.513c17.517 10.245 9.591-18.768 9.477 1.525-.113 20.292 8.138-8.629-9.494 1.419zM27668.703 53.836c-20.819 11.864 14.437 19.211-6.248 7.113-20.686-12.098 3.002 15.029 3.136-8.934.135-23.963-23.856 2.897-3.036-8.968s-14.517-4.915 6.169 7.183c20.685 12.098 9.419-22.108 9.284 1.855-.134 23.963 11.515-10.115-9.305 1.751zM27773.864 54.118c-23.531 13.41 16.97 20.504-6.409 6.831-23.38-13.673 2.66 18.149 2.811-8.936.153-27.083-26.242 4.444-2.711-8.966 23.531-13.41-17.048-6.771 6.333 6.903 23.379 13.674 9.272-24.949 9.12 2.135-.151 27.084 14.387-11.379-9.144 2.033zM27878.996 54.35c-25.766 14.683 19.058 21.571-6.541 6.599-25.6-14.972 2.378 20.719 2.544-8.937.167-29.656-28.21 5.719-2.444-8.965 25.766-14.684-19.133-8.3 6.468 6.672 25.599 14.972 9.152-27.29 8.985 2.366-.166 29.656 16.754-12.42-9.012 2.265zM27984.101 54.533c-27.524 15.685 20.699 22.409-6.646 6.416-27.346-15.993 2.157 22.741 2.334-8.938.178-31.679-29.758 6.721-2.234-8.964 27.524-15.686-20.773-9.503 6.574 6.491 27.345 15.993 9.057-29.132 8.879 2.547-.177 31.679 18.616-13.239-8.907 2.448zM28089.176 54.666c-28.804 16.415 21.897 23.02-6.721 6.283-28.619-16.737 1.995 24.214 2.181-8.939.186-33.153-30.885 7.452-2.081-8.963 28.804-16.415-21.968-10.379 6.651 6.359 28.618 16.737 8.988-30.474 8.802 2.679-.186 33.152 19.973-13.835-8.832 2.581zM28194.224 54.749c-29.608 16.873 22.647 23.404-6.769 6.2-29.417-17.204 1.894 25.138 2.084-8.94.192-34.077-31.592 7.911-1.984-8.962 29.608-16.873-22.717-10.929 6.7 6.276 29.416 17.204 8.944-31.316 8.753 2.762-.191 34.077 20.824-14.21-8.784 2.664zM28299.243 54.783c-29.934 17.059 22.952 23.56-6.788 6.166-29.741-17.394 1.853 25.514 2.045-8.94.194-34.453-31.879 8.097-1.945-8.962 29.934-17.059-23.022-11.153 6.719 6.242 29.741 17.394 8.928-31.658 8.734 2.796-.193 34.453 21.17-14.362-8.765 2.698zM28404.234 54.768c-29.783 16.973 22.812 23.487-6.779 6.181-29.592-17.306 1.872 25.34 2.063-8.94.193-34.28-31.747 8.011-1.963-8.962s-22.882-11.05 6.71 6.257c29.591 17.307 8.936-31.499 8.743 2.781-.192 34.28 21.01-14.292-8.774 2.683zM28509.197 54.702c-29.156 16.616 22.225 23.189-6.742 6.247-28.968-16.942 1.951 24.618 2.138-8.94.189-33.557-31.194 7.653-2.038-8.962 29.156-16.616-22.296-10.62 6.672 6.322s8.97-30.842 8.781 2.716c-.188 33.557 20.345-13.999-8.811 2.617zM28614.132 54.587c-28.052 15.986 21.193 22.662-6.677 6.362-27.871-16.3 2.09 23.348 2.271-8.939.181-32.286-30.222 7.023-2.171-8.963 28.051-15.986-21.265-9.864 6.606 6.436 27.87 16.3 9.028-29.685 8.847 2.602-.181 32.286 19.175-13.485-8.876 2.502zM28719.038 54.423c-26.47 15.085 19.715 21.907-6.583 6.526-26.299-15.381 2.289 21.528 2.46-8.938.171-30.465-28.83 6.121-2.36-8.964s-19.789-8.782 6.51 6.6c26.298 15.381 9.114-28.028 8.943 2.438-.17 30.465 17.5-12.748-8.97 2.338zM28823.916 54.209c-24.411 13.911 17.792 20.925-6.461 6.74-24.254-14.185 2.549 19.16 2.706-8.936.158-28.096-27.017 4.945-2.606-8.966 24.411-13.912-17.868-7.373 6.386 6.812 24.253 14.185 9.225-25.871 9.067 2.226-.157 28.096 15.319-11.788-9.092 2.124zM28928.766 53.945c-21.875 12.467 15.422 19.715-6.311 7.004-21.734-12.711 2.869 16.243 3.01-8.935.141-25.177-24.785 3.499-2.91-8.967 21.875-12.466-15.502-5.637 6.232 7.074 21.734 12.711 9.363-23.214 9.221 1.964-.141 25.177 12.633-10.607-9.242 1.86zM29033.587 53.632c-18.862 10.749 12.608 18.277-6.132 7.317-18.741-10.96 3.249 12.778 3.37-8.933.122-21.709-22.132 1.78-3.27-8.969 18.862-10.749-12.691-3.576 6.05 7.386 18.741 10.96 9.525-20.058 9.403 1.652-.121 21.71 9.442-9.203-9.421 1.547z" fill="#9e342d"/><path d="M29138.381 53.269c-15.373 8.761 9.347 16.612-5.926 7.68-15.274-8.932 3.689 8.763 3.788-8.93.099-17.693-19.06-.212-3.688-8.972 15.372-8.761-9.434-1.187 5.84 7.746 15.273 8.933 9.713-16.402 9.613 1.292-.099 17.693 5.745-7.577-9.627 1.184z" fill="#9e352e"/><path d="M29243.146 52.857c-11.406 6.5 5.641 14.719-5.691 8.092-11.333-6.627 4.189 4.2 4.262-8.928.074-13.127-15.568-2.474-4.162-8.974 11.406-6.5-5.733 1.528 5.6 8.156 11.332 6.627 9.927-12.246 9.853.882-.073 13.127 1.543-5.729-9.862.772zM29347.882 52.395c-6.961 3.967 1.489 12.599-5.427 8.554-6.917-4.045 4.75-.912 4.794-8.925.045-8.012-11.656-5.01-4.694-8.977 6.962-3.967-1.586 4.569 5.331 8.615 6.917 4.045 10.167-7.59 10.122.423-.044 8.012-3.164-3.658-10.126.31zM29452.797 52.245c-5.519 3.145.141 11.911-5.342 8.704-5.484-3.207 4.932-2.572 4.967-8.924.036-6.351-10.386-5.833-4.867-8.978 5.519-3.145-.239 5.556 5.244 8.764 5.483 3.206 10.245-6.078 10.209.274-.035 6.351-4.693-2.986-10.211.16z" fill="#9d352e"/><path d="M29557.939 52.495c-7.923 4.515 2.388 13.058-5.484 8.454-7.873-4.604 4.629.194 4.679-8.925.052-9.119-12.502-4.462-4.579-8.977 7.923-4.515-2.483 3.911 5.39 8.516 7.871 4.603 10.114-8.598 10.063.522-.051 9.119-2.146-4.106-10.069.41z" fill="#9d362f"/><path d="M29663.053 52.695c-9.85 5.614 4.189 13.978-5.598 8.254-9.788-5.724 4.386 2.411 4.449-8.927.063-11.337-14.199-3.362-4.349-8.975 9.85-5.614-4.282 2.592 5.506 8.317 9.787 5.723 10.011-10.617 9.947.721-.063 11.337-.104-5.004-9.955.61zM29768.139 52.846c-11.3 6.44 5.543 14.669-5.684 8.103-11.228-6.566 4.203 4.08 4.275-8.928.073-13.006-15.476-2.534-4.175-8.974 11.301-6.44-5.635 1.599 5.594 8.167 11.227 6.566 9.932-12.136 9.859.871-.072 13.006 1.432-5.68-9.869.761z" fill="#9c3730"/><path d="M29873.197 52.947c-12.274 6.995 6.453 15.134-5.742 8.002-12.196-7.132 4.08 5.199 4.159-8.928.079-14.127-16.333-1.979-4.059-8.974 12.274-6.995-6.543.933 5.652 8.066 12.195 7.132 9.881-13.156 9.801.972-.079 14.127 2.463-6.134-9.811.862z" fill="#9b3831"/><path d="M29978.226 52.999c-12.77 7.277 6.917 15.37-5.771 7.95-12.689-7.42 4.017 5.77 4.099-8.929.083-14.698-16.769-1.695-3.999-8.973 12.77-7.278-7.006.594 5.682 8.015 12.688 7.42 9.854-13.676 9.771 1.023-.082 14.698 2.989-6.365-9.782.914z" fill="#9b3932"/><path d="M30083.228 53.001c-12.79 7.288 6.934 15.38-5.773 7.948-12.708-7.432 4.015 5.792 4.097-8.929.083-14.72-16.787-1.685-3.997-8.973 12.79-7.289-7.024.58 5.684 8.013 12.706 7.432 9.852-13.696 9.769 1.025-.082 14.72 3.009-6.374-9.78.916z" fill="#9a3a33"/><path d="M30188.2 52.953c-12.331 7.028 6.507 15.162-5.745 7.996-12.253-7.166 4.073 5.266 4.152-8.928.08-14.194-16.384-1.946-4.052-8.974 12.332-7.028-6.597.894 5.656 8.06 12.252 7.166 9.877-13.216 9.797.978-.079 14.193 2.524-6.16-9.808.868z" fill="#993b34"/><path d="M30293.145 52.856c-11.397 6.495 5.633 14.715-5.69 8.093-11.324-6.622 4.19 4.19 4.263-8.928.074-13.117-15.56-2.479-4.163-8.974s-5.725 1.533 5.599 8.157c11.324 6.622 9.928-12.237 9.854.881-.073 13.117 1.534-5.725-9.863.771z" fill="#983c35"/><path d="M30398.061 52.709c-9.985 5.69 4.314 14.042-5.606 8.24-9.921-5.802 4.369 2.566 4.432-8.927.065-11.492-14.317-3.285-4.332-8.975 9.985-5.69-4.407 2.5 5.514 8.303 9.921 5.802 10.004-10.758 9.939.735-.064 11.492.039-5.067-9.947.624z" fill="#973d36"/><path d="M30502.95 52.513c-8.097 4.614 2.549 13.14-5.495 8.436-8.045-4.704 4.607.394 4.658-8.926.053-9.318-12.654-4.362-4.558-8.976 8.096-4.614-2.645 3.792 5.4 8.498 8.044 4.704 10.106-8.779 10.053.54-.052 9.318-1.962-4.187-10.058.428z" fill="#963f38"/><path d="M30607.809 52.267c-5.73 3.265.339 12.012-5.354 8.682-5.694-3.33 4.905-2.328 4.942-8.924.037-6.595-10.572-5.713-4.842-8.978 5.73-3.265-.437 5.412 5.257 8.742 5.693 3.33 10.233-6.3 10.196.296-.036 6.595-4.468-3.085-10.199.182z" fill="#954039"/><path d="M30712.777 52.21c-5.185 2.955-.17 11.752-5.322 8.739-5.153-3.013 4.974-2.955 5.007-8.924.034-5.967-10.093-6.023-4.907-8.978s.071 5.784 5.224 8.798c5.152 3.013 10.263-5.729 10.229.24-.033 5.968-5.045-2.831-10.231.125z" fill="#94423b"/><path d="M30817.869 52.372c-6.742 3.842 1.285 12.495-5.414 8.577-6.7-3.918 4.778-1.164 4.82-8.925.044-7.76-11.463-5.135-4.72-8.977 6.743-3.842-1.381 4.719 5.318 8.638 6.699 3.917 10.179-7.361 10.135.4-.043 7.76-3.396-3.556-10.139.287z" fill="#93443d"/><path d="M30922.933 52.484c-7.822 4.458 2.294 13.01-5.478 8.465-7.773-4.545 4.641.079 4.691-8.925.051-9.003-12.413-4.519-4.591-8.977s-2.389 3.98 5.383 8.526c7.772 4.545 10.121-8.492 10.07.512-.05 9.003-2.252-4.059-10.075.399z" fill="#91463f"/><path d="M31027.969 52.547c-8.425 4.801 2.857 13.298-5.514 8.402-8.372-4.896 4.565.772 4.619-8.926.055-9.697-12.944-4.175-4.519-8.976 8.425-4.801-2.952 3.567 5.42 8.464 8.371 4.895 10.088-9.124 10.033.574-.054 9.697-1.614-4.34-10.039.462z" fill="#904841"/><path d="M31132.977 52.56c-8.552 4.873 2.974 13.358-5.522 8.389-8.497-4.969 4.549.917 4.604-8.926.056-9.842-13.055-4.103-4.504-8.976 8.551-4.873-3.069 3.481 5.427 8.451 8.496 4.968 10.082-9.256 10.026.587-.055 9.842-1.48-4.399-10.031.475z" fill="#8e4a43"/><path d="M31237.956 52.524c-8.2 4.673 2.646 13.19-5.501 8.425-8.148-4.765 4.594.513 4.646-8.926.053-9.437-12.746-4.303-4.546-8.976 8.2-4.673-2.742 3.721 5.406 8.487 8.147 4.765 10.1-8.888 10.047.551-.052 9.438-1.852-4.235-10.052.439z" fill="#8c4c45"/><path d="M31342.907 52.438c-7.372 4.2 1.872 12.794-5.452 8.511-7.325-4.283 4.698-.44 4.745-8.925.048-8.484-12.017-4.776-4.645-8.977 7.372-4.201-1.969 4.288 5.356 8.573 7.324 4.283 10.145-8.02 10.097.465-.047 8.484-2.729-3.849-10.101.353z" fill="#8a4f48"/><path d="M31447.829 52.302c-6.066 3.457.653 12.172-5.374 8.647-6.028-3.525 4.863-1.941 4.901-8.924.04-6.982-10.868-5.521-4.801-8.978s-.751 5.181 5.277 8.707c6.028 3.525 10.215-6.652 10.176.331-.038 6.982-4.112-3.241-10.179.217z" fill="#89514a"/><path d="M31552.724 52.117c-4.289 2.444-1.008 11.324-5.269 8.832-4.262-2.492 5.087-3.986 5.114-8.923.028-4.936-9.303-6.535-5.014-8.979 4.289-2.444.908 6.398 5.17 8.891 4.261 2.492 10.311-4.79 10.283.147-.027 4.936-5.995-2.413-10.284.032" fill="#87544d"/><path d="M31658.396 53.296l-.682-.004c-4.227 2.278-1.395 10.558-5.596 8.233-4.199-2.719 4.294-4.507 4.094-9.507.256-4.995-8.217-6.879-3.987-9.55 4.454-2.277 1.756 5.971 6.185 8.299 4.199 2.719 10.066-3.677 10.265 1.322-.255 4.995-6.05-1.466-10.279 1.207" fill="#85564f"/><path d="M31763.96 54.285l-1.254-.007c-4.176 2.139-1.72 9.915-5.87 7.73-4.148-2.909 3.628-4.945 3.237-9.996.447-5.046-7.305-7.168-3.126-10.031 4.594-2.136 2.468 5.614 7.038 7.802 4.147 2.91 9.86-2.743 10.25 2.309-.446 5.046-6.096-.67-10.275 2.193" fill="#845851"/><path d="M31869.465 55.171l-1.767-.01c-4.129 2.014-2.01 9.34-6.116 7.28-4.1-3.08 3.032-5.337 2.471-10.435.618-5.09-6.488-7.427-2.354-10.461 4.718-2.01 3.106 5.294 7.801 7.358 4.1 3.08 9.676-1.906 10.236 3.192-.617 5.09-6.137.042-10.271 3.076" fill="#825b54"/><path d="M31974.926 55.981l-2.235-.012c-4.086 1.9-2.276 8.813-6.34 6.867-4.058-3.236 2.487-5.694 1.77-10.835.774-5.132-5.742-7.663-1.649-10.854 4.832-1.895 3.688 5.001 8.499 6.951 4.057 3.236 9.507-1.142 10.224 3.999-.774 5.132-6.175.693-10.269 3.884" fill="#805d56"/><path d="M32080.353 56.731l-2.668-.015c-4.047 1.794-2.522 8.326-6.548 6.486-4.018-3.38 1.983-6.026 1.121-11.206.919-5.169-5.051-7.882-.996-11.217 4.937-1.789 4.228 4.729 9.144 6.575 4.018 3.38 9.352-.435 10.213 4.746-.918 5.169-6.21 1.295-10.266 4.631" fill="#7f5f58"/><path d="M32185.752 57.43l-3.073-.017c-4.011 1.695-2.751 7.871-6.742 6.131-3.981-3.515 1.513-6.335.517-11.552 1.054-5.205-4.408-8.087-.388-11.557 5.035-1.69 4.731 4.477 9.746 6.224 3.981 3.515 9.207.226 10.202 5.443-1.053 5.205-6.242 1.857-10.262 5.328" fill="#7d615a"/><path d="M32291.125 58.086l-3.452-.02c-3.976 1.603-2.966 7.446-6.923 5.798-3.947-3.641 1.071-6.625-.051-11.877 1.181-5.238-3.803-8.277.184-11.874 5.126-1.597 5.201 4.24 10.31 5.895 3.947 3.641 9.071.844 10.192 6.096-1.18 5.238-6.273 2.384-10.26 5.982" fill="#7c635c"/><path d="M32396.477 58.703l-3.809-.022c-3.944 1.517-3.168 7.045-7.094 5.484-3.915-3.76.656-6.897-.585-12.182 1.299-5.269-3.235-8.458.721-12.174 5.213-1.509 5.646 4.017 10.842 5.585 3.914 3.76 8.942 1.427 10.182 6.712-1.298 5.269-6.301 2.88-10.257 6.597" fill="#7b645d"/><path d="M32501.809 59.286l-4.146-.024c-3.913 1.435-3.36 6.666-7.256 5.188-3.883-3.872.264-7.155-1.089-12.47 1.412-5.299-2.698-8.629 1.229-12.457 5.295-1.427 6.065 3.806 11.344 5.292 3.883 3.872 8.821 1.978 10.173 7.293-1.411 5.298-6.328 3.349-10.255 7.178" fill="#7a665f"/><path d="M32607.124 59.838l-4.466-.025c-3.884 1.356-3.541 6.307-7.409 4.907-3.854-3.979-.107-7.4-1.567-12.744 1.519-5.327-2.188-8.789 1.71-12.725 5.372-1.348 6.462 3.606 11.82 5.015 3.854 3.979 8.706 2.499 10.165 7.843-1.518 5.327-6.355 3.793-10.253 7.729" fill="#786861"/><path d="M32712.423 60.362l-4.769-.027c-3.857 1.283-3.713 5.967-7.554 4.641-3.827-4.08-.461-7.632-2.021-13.003 1.62-5.354-1.706-8.943 2.166-12.979 5.446-1.274 6.839 3.416 12.271 4.752 3.826 4.079 8.598 2.993 10.157 8.365-1.619 5.353-6.379 4.214-10.25 8.251" fill="#776962"/><path d="M32817.706 60.86l-5.056-.029c-3.831 1.213-3.877 5.644-7.692 4.388-3.801-4.175-.796-7.852-2.452-13.25 1.716-5.378-1.247-9.087 2.599-13.22 5.516-1.203 7.198 3.237 12.701 4.502 3.799 4.175 8.493 3.464 10.149 8.861-1.715 5.379-6.402 4.615-10.249 8.748" fill="#766b64"/><path d="M32922.977 61.334l-5.332-.03c-3.805 1.146-4.031 5.335-7.823 4.147-3.775-4.267-1.114-8.062-2.862-13.485 1.808-5.402-.81-9.226 3.013-13.45 5.582-1.136 7.538 3.065 13.108 4.264 3.775 4.267 8.395 3.911 10.142 9.334-1.807 5.402-6.424 4.995-10.246 9.22" fill="#756c65"/><path d="M33028.234 61.786l-5.592-.032c-3.782 1.082-4.18 5.042-7.949 3.917-3.752-4.354-1.418-8.261-3.252-13.707 1.894-5.426-.394-9.359 3.405-13.67 5.646-1.072 7.864 2.902 13.497 4.037 3.752 4.354 8.302 4.338 10.136 9.784-1.895 5.426-6.445 5.359-10.245 9.671" fill="#746d66"/><path d="M33133.48 62.216l-5.842-.032c-3.759 1.021-4.321 4.761-8.068 3.697-3.729-4.436-1.708-8.451-3.625-13.92 1.978-5.447.003-9.484 3.78-13.879 5.707-1.01 8.174 2.746 13.869 3.821 3.728 4.437 8.212 4.744 10.129 10.214-1.978 5.447-6.466 5.705-10.243 10.099" fill="#746e67"/><path d="M33238.714 62.628l-6.08-.035c-3.737.964-4.455 4.495-8.181 3.489-3.708-4.516-1.985-8.633-3.981-14.124 2.057-5.468.381-9.604 4.138-14.078 5.764-.952 8.469 2.597 14.223 3.615 3.706 4.516 8.126 5.132 10.122 10.623-2.057 5.468-6.484 6.035-10.241 10.51" fill="#737069"/><path d="M33343.938 63.02l-6.307-.035c-3.717.908-4.585 4.239-8.291 3.289-3.686-4.591-2.248-8.807-4.32-14.318 2.133-5.488.743-9.719 4.48-14.269 5.819-.896 8.752 2.455 14.561 3.418 3.686 4.591 8.045 5.502 10.116 11.014-2.132 5.488-6.502 6.351-10.239 10.901" fill="#72716a"/><path d="M33449.151 63.395l-6.523-.036c-3.698.855-4.708 3.995-8.395 3.098-3.666-4.663-2.501-8.972-4.645-14.504 2.205-5.507 1.089-9.828 4.807-14.45 5.872-.843 9.022 2.319 14.884 3.229 3.666 4.664 7.967 5.857 10.111 11.388-2.206 5.507-6.52 6.653-10.239 11.275" fill="#71726b"/><path d="M33554.356 63.754l-6.731-.038c-3.679.805-4.825 3.763-8.494 2.916-3.648-4.732-2.743-9.131-4.956-14.681 2.275-5.525 1.42-9.933 5.12-14.625 5.922-.792 9.279 2.191 15.192 3.05 3.647 4.732 7.893 6.195 10.105 11.746-2.274 5.525-6.536 6.94-10.236 11.632" fill="#70736c"/><path d="M33659.551 64.097l-6.929-.04c-3.661.757-4.938 3.54-8.589 2.743-3.63-4.799-2.973-9.283-5.252-14.851 2.341-5.543 1.735-10.034 5.418-14.791 5.97-.744 9.526 2.066 15.487 2.877 3.63 4.799 7.822 6.519 10.1 12.088-2.34 5.542-6.552 7.216-10.235 11.974" fill="#70746d"/><path d="M33764.738 64.424l-7.119-.04c-3.643.711-5.045 3.327-8.68 2.576-3.612-4.862-3.193-9.428-5.535-15.014 2.404-5.558 2.037-10.128 5.703-14.949 6.016-.697 9.761 1.948 15.77 2.713 3.612 4.861 7.753 6.828 10.095 12.414-2.404 5.559-6.568 7.479-10.234 12.3" fill="#6f746d"/><path d="M33869.916 64.738l-7.3-.042c-3.627.667-5.148 3.124-8.766 2.417-3.596-4.922-3.405-9.566-5.807-15.169 2.465-5.574 2.326-10.22 5.976-15.101 6.06-.653 9.987 1.834 16.04 2.555 3.595 4.922 7.688 7.124 10.09 12.727-2.464 5.574-6.582 7.731-10.233 12.613" fill="#6f756e"/><path d="M33975.087 65.037l-7.473-.042c-3.612.624-5.246 2.929-8.85 2.264-3.58-4.98-3.606-9.698-6.066-15.316 2.523-5.59 2.602-10.308 6.237-15.247 6.102-.611 10.203 1.726 16.298 2.405 3.58 4.979 7.626 7.406 10.086 13.025-2.523 5.59-6.597 7.972-10.232 12.911" fill="#6e766f"/><path d="M34080.25 65.324l-7.639-.044c-3.596.584-5.34 2.743-8.929 2.119-3.564-5.035-3.798-9.825-6.313-15.458 2.577-5.605 2.865-10.392 6.486-15.386 6.142-.57 10.408 1.622 16.544 2.261 3.565 5.035 7.567 7.677 10.082 13.311-2.578 5.604-6.61 8.202-10.231 13.197" fill="#6d7770"/><path d="M34185.406 65.597l-7.797-.044c-3.582.546-5.43 2.565-9.005 1.98-3.55-5.088-3.983-9.946-6.55-15.594 2.63-5.618 3.118-10.471 6.724-15.519 6.181-.53 10.606 1.524 16.78 2.124 3.551 5.088 7.51 7.936 10.077 13.583-2.63 5.619-6.622 8.423-10.229 13.47" fill="#6d7871"/><path d="M34290.555 65.859l-7.948-.045c-3.568.508-5.516 2.395-9.077 1.846-3.537-5.138-4.159-10.061-6.778-15.723 2.682-5.631 3.359-10.547 6.953-15.645 6.218-.494 10.794 1.429 17.005 1.992 3.537 5.138 7.455 8.183 10.073 13.844-2.68 5.632-6.634 8.633-10.228 13.731" fill="#6c7871"/><path d="M34395.698 66.109l-8.093-.046c-3.555.473-5.598 2.233-9.147 1.719-3.523-5.186-4.327-10.172-6.993-15.846 2.729-5.645 3.589-10.621 7.17-15.767 6.253-.458 10.973 1.338 17.22 1.867 3.524 5.186 7.404 8.418 10.07 14.093-2.729 5.644-6.646 8.833-10.227 13.98M34500.834 66.347l-8.231-.046c-3.543.439-5.676 2.077-9.213 1.598-3.511-5.232-4.487-10.278-7.2-15.965 2.776-5.656 3.809-10.69 7.378-15.883 6.286-.424 11.145 1.253 17.426 1.748 3.511 5.232 7.354 8.643 10.066 14.331-2.775 5.656-6.658 9.025-10.226 14.217" fill="#6c7972"/><path d="M34605.963 66.575l-8.362-.047c-3.531.407-5.751 1.929-9.276 1.482-3.499-5.276-4.641-10.378-7.397-16.077 2.82-5.668 4.019-10.757 7.576-15.993 6.318-.392 11.309 1.17 17.622 1.633 3.499 5.276 7.307 8.858 10.063 14.557-2.82 5.668-6.668 9.209-10.226 14.445" fill="#6b7a73"/><path d="M34711.087 66.792l-8.488-.048c-3.519.377-5.822 1.789-9.336 1.372-3.487-5.318-4.787-10.474-7.585-16.185 2.862-5.679 4.219-10.82 7.766-16.098 6.348-.361 11.464 1.091 17.809 1.524 3.487 5.318 7.261 9.063 10.058 14.774-2.861 5.679-6.678 9.383-10.224 14.661" fill="#6b7b74"/><path d="M34816.205 66.999l-8.608-.049c-3.508.348-5.89 1.654-9.393 1.267-3.477-5.357-4.926-10.565-7.764-16.287 2.901-5.689 4.41-10.881 7.946-16.199 6.377-.331 11.613 1.017 17.987 1.42 3.476 5.358 7.218 9.259 10.056 14.981-2.902 5.689-6.688 9.549-10.224 14.867M34921.317 67.196l-8.721-.049c-3.499.32-5.955 1.526-9.448 1.166-3.466-5.395-5.059-10.652-7.935-16.384 2.94-5.7 4.592-10.939 8.117-16.295 6.406-.303 11.756.946 18.157 1.322 3.466 5.395 7.178 9.444 10.053 15.176-2.939 5.7-6.697 9.708-10.223 15.064" fill="#6a7b74"/><path d="M35026.424 67.383l-8.83-.049c-3.488.293-6.016 1.404-9.5 1.071-3.456-5.432-5.185-10.736-8.096-16.478 2.975-5.708 4.763-10.993 8.28-16.385 6.431-.277 11.89.878 18.318 1.227 3.456 5.432 7.139 9.622 10.05 15.364-2.975 5.709-6.706 9.858-10.222 15.25" fill="#6a7c75"/><path d="M35131.526 67.562l-8.934-.051c-3.479.269-6.074 1.289-9.549.981-3.447-5.466-5.304-10.814-8.251-16.566 3.01-5.717 4.929-11.045 8.436-16.472 6.456-.251 12.018.814 18.472 1.138 3.446 5.466 7.101 9.79 10.047 15.542-3.01 5.717-6.714 10.001-10.221 15.428" fill="#697c75"/><path d="M35236.622 67.731l-9.031-.051c-3.47.245-6.13 1.178-9.596.895-3.438-5.499-5.419-10.89-8.397-16.65 3.042-5.726 5.084-11.094 8.583-16.554 6.48-.227 12.14.752 18.617 1.053 3.438 5.499 7.066 9.95 10.045 15.71-3.043 5.726-6.722 10.137-10.221 15.597M35341.714 67.891l-9.124-.051c-3.462.222-6.183 1.074-9.641.813-3.429-5.529-5.526-10.96-8.536-16.729 3.074-5.734 5.232-11.141 8.723-16.632 6.502-.205 12.255.694 18.755.973 3.43 5.529 7.033 10.101 10.042 15.87-3.073 5.734-6.729 10.266-10.219 15.756" fill="#697d76"/><path d="M35446.8 68.043l-9.212-.052c-3.454.201-6.232.976-9.682.736-3.422-5.558-5.629-11.027-8.668-16.804 3.103-5.742 5.372-11.185 8.855-16.705 6.524-.184 12.365.639 18.887.896 3.421 5.558 7.001 10.244 10.039 16.021-3.102 5.742-6.736 10.388-10.219 15.908" fill="#697e77"/><path d="M35551.882 68.187l-9.295-.053c-3.446.181-6.279.883-9.722.663-3.414-5.586-5.726-11.091-8.792-16.875 3.131-5.749 5.504-11.227 8.98-16.775 6.544-.163 12.468.587 19.01.824 3.414 5.586 6.971 10.38 10.038 16.165-3.131 5.749-6.743 10.503-10.219 16.051M35656.959 68.322l-9.373-.052c-3.439.161-6.324.794-9.76.594-3.407-5.613-5.817-11.151-8.909-16.943 3.157-5.756 5.629-11.267 9.098-16.84 6.563-.144 12.566.538 19.127.755 3.406 5.613 6.943 10.508 10.035 16.3-3.156 5.756-6.749 10.613-10.218 16.186M35762.032 68.45l-9.447-.053c-3.433.143-6.366.711-9.796.529-3.4-5.637-5.902-11.207-9.019-17.006 3.181-5.762 5.747-11.304 9.209-16.902 6.581-.126 12.658.492 19.237.692 3.4 5.637 6.917 10.628 10.034 16.426-3.182 5.763-6.756 10.716-10.218 16.314" fill="#687e77"/><path d="M35867.1 68.57l-9.516-.053c-3.426.126-6.405.633-9.829.468-3.393-5.661-5.983-11.261-9.123-17.065 3.204-5.769 5.857-11.34 9.313-16.961 6.598-.109 12.744.448 19.341.631 3.393 5.66 6.891 10.742 10.032 16.547-3.205 5.768-6.761 10.812-10.218 16.433" fill="#687f78"/><path d="M35972.165 68.683l-9.582-.054c-3.42.11-6.442.56-9.86.411-3.388-5.682-6.059-11.311-9.221-17.121 3.227-5.774 5.961-11.372 9.412-17.016 6.614-.092 12.825.408 19.437.575 3.388 5.682 6.868 10.849 10.03 16.659-3.226 5.775-6.766 10.902-10.216 16.546M36077.225 68.788l-9.643-.054c-3.415.095-6.477.491-9.889.357-3.382-5.702-6.13-11.357-9.312-17.173 3.247-5.779 6.058-11.403 9.503-17.066 6.629-.078 12.901.369 19.528.522 3.382 5.702 6.847 10.947 10.029 16.763-3.247 5.78-6.771 10.987-10.216 16.651M36182.28 68.886l-9.699-.055c-3.409.082-6.509.428-9.916.308-3.377-5.721-6.196-11.4-9.397-17.221 3.266-5.785 6.149-11.432 9.589-17.115 6.642-.063 12.971.335 19.612.473 3.377 5.721 6.826 11.041 10.027 16.862-3.265 5.784-6.775 11.066-10.216 16.748" fill="#677f78"/><path d="M36287.332 68.977l-9.752-.055c-3.404.069-6.538.369-9.941.261-3.372-5.738-6.257-11.44-9.476-17.266 3.283-5.789 6.233-11.458 9.668-17.158 6.655-.051 13.037.301 19.691.427 3.372 5.738 6.807 11.126 10.026 16.952-3.283 5.789-6.78 11.139-10.216 16.839M36392.381 69.062l-9.801-.056c-3.401.058-6.567.314-9.965.219-3.368-5.755-6.314-11.478-9.549-17.309 3.3-5.793 6.31-11.482 9.742-17.199 6.667-.039 13.097.271 19.763.385 3.368 5.755 6.79 11.206 10.025 17.036-3.3 5.794-6.784 11.207-10.215 16.924M36497.425 69.139l-9.846-.055c-3.396.046-6.592.263-9.987.179-3.363-5.77-6.366-11.512-9.615-17.347 3.314-5.798 6.381-11.506 9.809-17.237 6.678-.028 13.153.243 19.831.346 3.363 5.769 6.773 11.279 10.023 17.114-3.315 5.797-6.788 11.269-10.215 17M36602.465 69.211l-9.887-.056c-3.392.036-6.615.217-10.006.142-3.36-5.783-6.414-11.543-9.677-17.381 3.328-5.802 6.447-11.527 9.871-17.272 6.688-.018 13.205.217 19.892.31 3.36 5.783 6.759 11.346 10.022 17.185-3.328 5.801-6.791 11.326-10.215 17.072M36707.502 69.275l-9.924-.055c-3.389.027-6.637.174-10.024.109-3.357-5.796-6.458-11.572-9.734-17.414 3.341-5.804 6.507-11.545 9.928-17.303 6.697-.008 13.251.193 19.948.277 3.356 5.796 6.745 11.408 10.021 17.25-3.341 5.804-6.794 11.379-10.215 17.136" fill="#678079"/><path d="M36812.536 69.334l-9.959-.056c-3.386.019-6.655.137-10.04.08-3.353-5.808-6.497-11.598-9.784-17.443 3.352-5.808 6.561-11.563 9.978-17.332 6.706 0 13.294.172 19.999.248 3.353 5.807 6.733 11.463 10.02 17.308-3.352 5.808-6.797 11.426-10.214 17.195" fill="#668079"/><path d="M36917.566 69.387l-9.989-.057c-3.384.012-6.673.103-10.055.053-3.351-5.817-6.533-11.621-9.83-17.469 3.362-5.81 6.61-11.577 10.025-17.357 6.712.008 13.331.154 20.043.222 3.351 5.817 6.722 11.513 10.02 17.36-3.363 5.81-6.799 11.468-10.214 17.248M37022.592 69.433l-10.016-.056c-3.38.005-6.688.072-10.067.029-3.348-5.826-6.564-11.642-9.87-17.492 3.371-5.812 6.652-11.591 10.065-17.379 6.719.013 13.364.136 20.083.198 3.348 5.826 6.713 11.556 10.019 17.406-3.371 5.813-6.801 11.506-10.214 17.294M37127.615 69.474l-10.039-.057c-3.379-.001-6.701.046-10.079.009-3.346-5.834-6.591-11.66-9.905-17.512 3.379-5.815 6.69-11.603 10.1-17.399 6.725.019 13.394.121 20.119.177 3.346 5.835 6.704 11.595 10.018 17.448-3.379 5.814-6.803 11.538-10.214 17.334M37232.635 69.509l-10.059-.057c-3.377-.006-6.713.023-10.089-.009-3.344-5.841-6.615-11.675-9.935-17.529 3.385-5.817 6.722-11.614 10.13-17.417 6.73.025 13.42.11 20.149.161 3.344 5.841 6.697 11.628 10.018 17.482-3.386 5.816-6.805 11.566-10.214 17.369M37337.652 69.538l-10.076-.057c-3.376-.01-6.723.004-10.097-.024-3.343-5.846-6.635-11.688-9.961-17.544 3.391-5.817 6.749-11.622 10.156-17.43 6.734.029 13.44.099 20.174.146 3.343 5.846 6.691 11.655 10.017 17.511-3.391 5.817-6.806 11.589-10.213 17.398M37442.665 69.562l-10.09-.057c-3.374-.013-6.73-.011-10.103-.036-3.341-5.851-6.65-11.699-9.981-17.556 3.396-5.819 6.771-11.629 10.177-17.442 6.737.032 13.457.09 20.194.134 3.341 5.851 6.686 11.678 10.017 17.535-3.396 5.819-6.808 11.609-10.214 17.422M37547.676 69.58l-10.101-.057c-3.373-.016-6.736-.023-10.108-.045-3.341-5.855-6.663-11.707-9.997-17.565 3.399-5.82 6.787-11.634 10.192-17.451 6.74.035 13.471.084 20.211.125 3.34 5.855 6.681 11.695 10.016 17.553-3.4 5.82-6.808 11.623-10.213 17.44M37652.683 69.593l-10.108-.057c-3.372-.018-6.741-.032-10.112-.052-3.34-5.857-6.671-11.712-10.008-17.571 3.402-5.82 6.799-11.638 10.204-17.457 6.741.037 13.48.079 20.221.118 3.34 5.857 6.679 11.708 10.016 17.566-3.402 5.82-6.808 11.634-10.213 17.453M37757.688 69.6l-10.113-.057c-3.372-.018-6.743-.036-10.114-.055-3.339-5.859-6.677-11.716-10.015-17.575 3.403-5.821 6.807-11.64 10.211-17.461 6.742.038 13.485.076 20.228.115 3.339 5.858 6.677 11.714 10.016 17.573-3.404 5.821-6.809 11.64-10.213 17.46M37862.689 69.603l-10.114-.057c-3.372-.019-6.744-.038-10.115-.057-3.339-5.859-6.678-11.717-10.017-17.576 3.404-5.821 6.809-11.641 10.213-17.462 6.743.038 13.487.075 20.23.113 3.339 5.859 6.677 11.717 10.016 17.576-3.404 5.821-6.809 11.642-10.213 17.463" fill="#66817a"/></svg>