<svg
    xmlns="http://www.w3.org/2000/svg"
    viewBox="0 0 13 13"
    id="vector">
    <path
        id="path"
        d="M 9.242 5.225 L 9.046 5.331 L 8.909 5.083 L 9.113 4.97 Z"
        fill="#786721"
        stroke-width="1"/>
    <path
        id="path_1"
        d="M 9.191 5.151 C 9.265 5.334 9.415 5.473 9.549 5.56 C 9.455 5.413 9.43 5.317 9.417 5.196 C 9.473 5.366 9.626 5.365 9.755 5.457 C 9.635 5.236 9.671 5.177 9.668 5.073 C 9.744 5.185 9.8 5.295 9.951 5.303 L 9.862 4.972 C 10.001 5.208 10.066 5.122 10.158 5.171 C 10.077 5.061 10.009 4.948 10.01 4.816 C 10.103 4.876 10.182 4.955 10.315 4.96 C 10.186 4.663 10.247 4.539 10.364 4.267 C 10.119 4.316 9.952 4.369 9.701 4.262 C 9.644 4.344 9.635 4.358 9.666 4.432 C 9.504 4.395 9.444 4.334 9.408 4.266 C 9.337 4.327 9.359 4.461 9.383 4.579 C 9.299 4.555 9.232 4.491 9.174 4.406 C 9.139 4.572 9.143 4.612 9.271 4.728 C 9.146 4.703 9.061 4.634 8.993 4.545 C 8.98 4.786 9.08 4.944 9.191 5.151 Z"
        fill="#89a02c"
        stroke-width="1"/>
    <path
        id="path_2"
        d="M 8.592 4.956 L 8.428 5.107 L 8.234 4.9 L 8.404 4.741 Z"
        fill="#786721"
        stroke-width="1"/>
    <path
        id="path_3"
        d="M 8.524 4.896 C 8.641 5.056 8.821 5.154 8.971 5.205 C 8.845 5.086 8.797 4.999 8.755 4.885 C 8.851 5.036 8.998 4.997 9.147 5.055 C 8.975 4.87 8.996 4.804 8.967 4.704 C 9.069 4.794 9.15 4.888 9.298 4.858 L 9.131 4.559 C 9.324 4.754 9.366 4.654 9.467 4.68 C 9.362 4.592 9.268 4.499 9.236 4.371 C 9.341 4.407 9.437 4.464 9.567 4.436 C 9.37 4.18 9.398 4.045 9.445 3.752 C 9.219 3.86 9.071 3.952 8.801 3.91 C 8.766 4.003 8.761 4.019 8.809 4.083 C 8.643 4.087 8.569 4.042 8.518 3.986 C 8.464 4.062 8.518 4.186 8.571 4.295 C 8.483 4.292 8.403 4.247 8.325 4.178 C 8.332 4.348 8.346 4.386 8.499 4.467 C 8.371 4.474 8.271 4.428 8.184 4.358 C 8.23 4.595 8.366 4.723 8.524 4.896 Z"
        fill="#89a02c"
        stroke-width="1"/>
    <path
        id="path_4"
        d="M 7.748 9.435 L 8.083 9.61 L 8.262 9.777 L 8.024 9.907 L 8.309 9.871 L 8.193 10.079 L 8.479 9.99 L 8.728 10.186 L 8.541 10.418 L 8.786 10.275 L 9.207 10.621 L 8.91 10.192 L 9.056 10.044 L 8.878 10.101 L 8.561 9.714 L 8.702 9.611 L 8.47 9.641 L 8.234 9.363 L 8.033 9.194 L 7.722 9.384 Z"
        fill="#784421"
        stroke-width="1"/>
    <path
        id="path_5"
        d="M 3.631 7.096 L 3.854 7.095 L 3.856 7.379 L 3.623 7.381 Z"
        fill="#786721"
        stroke-width="1"/>
    <path
        id="path_6"
        d="M 3.64 7.185 C 3.662 6.988 3.596 6.795 3.519 6.655 C 3.532 6.829 3.509 6.925 3.463 7.037 C 3.494 6.861 3.359 6.79 3.289 6.648 C 3.29 6.9 3.23 6.935 3.184 7.028 C 3.17 6.892 3.173 6.769 3.044 6.69 L 2.965 7.024 C 2.954 6.75 2.856 6.795 2.799 6.708 C 2.818 6.843 2.823 6.976 2.761 7.092 C 2.707 6.994 2.675 6.887 2.561 6.819 C 2.533 7.142 2.421 7.222 2.188 7.406 C 2.428 7.48 2.599 7.512 2.77 7.725 C 2.858 7.68 2.873 7.672 2.881 7.592 C 3.006 7.701 3.03 7.784 3.03 7.86 C 3.121 7.841 3.165 7.713 3.2 7.597 C 3.262 7.658 3.291 7.746 3.302 7.849 C 3.411 7.719 3.427 7.682 3.369 7.519 C 3.467 7.6 3.51 7.701 3.528 7.812 C 3.653 7.606 3.64 7.42 3.64 7.185 Z"
        fill="#89a02c"
        stroke-width="1"/>
    <path
        id="path_7"
        d="M 7.6 9.294 C 7.406 9.336 7.244 9.461 7.137 9.578 C 7.297 9.51 7.396 9.501 7.517 9.509 C 7.34 9.536 7.316 9.687 7.204 9.799 C 7.442 9.716 7.494 9.762 7.597 9.776 C 7.474 9.833 7.356 9.869 7.323 10.017 L 7.664 9.984 C 7.408 10.083 7.483 10.161 7.418 10.243 C 7.54 10.182 7.664 10.134 7.794 10.156 C 7.719 10.238 7.628 10.303 7.6 10.433 C 7.915 10.356 8.027 10.436 8.276 10.597 C 8.269 10.347 8.244 10.174 8.391 9.944 C 8.32 9.875 8.308 9.864 8.229 9.882 C 8.293 9.728 8.363 9.679 8.436 9.655 C 8.388 9.574 8.252 9.574 8.131 9.578 C 8.169 9.499 8.244 9.444 8.337 9.4 C 8.179 9.338 8.139 9.335 8.003 9.443 C 8.049 9.324 8.131 9.251 8.23 9.198 C 7.994 9.146 7.822 9.218 7.6 9.294 Z"
        fill="#abc837"
        stroke-width="1"/>
    <path
        id="path_8"
        d="M 3.941 6.374 L 2.74 6.135 C 2.89 5.528 3.169 5.001 3.466 4.462 L 4.519 5.261 L 4.231 5.674 Z"
        fill="#f2f2f2"
        stroke-width="1"/>
    <path
        id="path_9"
        d="M 3.512 6.294 C 3.587 5.773 3.807 5.368 4.108 4.967 L 4.338 5.136 C 4.095 5.527 3.861 5.911 3.792 6.348 Z M 3.047 6.181 C 3.122 5.66 3.414 5.089 3.715 4.688 L 3.983 4.871 C 3.741 5.261 3.396 5.798 3.327 6.235 Z"
        fill="#5fbcd3"
        stroke-width="1"/>
    <path
        id="path_10"
        d="M 3.097 5.843 L 3.862 6.122 L 3.881 6.035 L 3.129 5.743 Z M 3.405 5.116 L 4.1 5.546 L 4.136 5.466 L 3.456 5.025 Z M 3.557 4.9 L 4.23 5.366 L 4.27 5.288 L 3.613 4.813 Z"
        fill="#ececec"
        stroke-width="1"/>
    <path
        id="path_11"
        d="M 2.831 5.823 L 1.63 5.584 C 1.779 4.976 2.059 4.45 2.356 3.911 L 3.409 4.71 L 3.121 5.122 Z"
        fill="#f2f2f2"
        stroke-width="1"/>
    <path
        id="path_12"
        d="M 2.029 5.671 C 2.105 5.15 2.396 4.579 2.697 4.178 L 2.965 4.361 C 2.723 4.751 2.378 5.288 2.309 5.725 Z"
        fill="#ff6600"
        stroke-width="1"/>
    <path
        id="path_13"
        d="M 2.53 5.775 C 2.601 5.275 2.823 4.848 3.105 4.464 L 3.318 4.606 C 3.091 4.98 2.858 5.408 2.793 5.826 Z"
        fill="#999999"
        stroke-width="1"/>
    <path
        id="path_14"
        d="M 6.474 4.533 C 5.973 4.532 5.484 4.693 5.078 4.994 C 4.673 5.294 4.37 5.719 4.215 6.207 C 4.06 6.695 4.06 7.221 4.215 7.709 C 4.37 8.197 4.673 8.622 5.078 8.923 C 5.484 9.223 5.973 9.385 6.474 9.383 C 7.102 9.383 7.705 9.127 8.149 8.673 C 8.593 8.218 8.843 7.601 8.843 6.958 C 8.843 6.315 8.593 5.698 8.149 5.243 C 7.705 4.789 7.102 4.533 6.474 4.533 Z"
        fill="#d45500"
        stroke-width="1"/>
    <path
        id="path_15"
        d="M 5.502 3.201 C 5.134 3.623 5.943 3.918 5.93 3.692 L 6.046 4.09 L 6.358 4.21 L 6.358 4.21 L 6.967 4.329 C 7.316 4.402 7.514 4.257 7.745 4.064 C 7.99 4.338 8.618 3.833 8.225 3.493 C 8.225 3.493 8.134 3.281 7.991 3.254 C 7.849 3.227 7.732 3.174 7.732 3.174 C 7.649 2.631 6.918 2.652 6.643 2.842 C 6.462 2.603 5.826 2.577 5.878 3.068 L 5.696 2.935 L 5.528 3.028 Z"
        fill="#abc837"
        stroke-width="1"/>
    <path
        id="path_16"
        d="M 6.461 4.502 L 6.539 3.984 L 6.332 3.812 L 6.332 3.599 L 5.852 3.347 L 6.293 3.466 L 6.448 3.573 L 6.423 3.705 L 6.526 3.812 L 6.617 3.586 L 6.863 3.559 L 6.928 3.413 L 7.265 3.307 L 7.291 3.161 L 7.369 3.241 L 7.356 3.36 L 7.019 3.44 L 6.967 3.573 L 7.058 3.705 L 6.993 3.838 L 7.032 4.011 L 7.382 3.918 L 7.499 3.666 L 7.499 3.918 L 7.162 4.064 L 7.032 4.064 L 6.967 4.329 L 7.032 4.515 L 6.863 4.914 L 6.461 4.502"
        fill="#504416"
        stroke-width="1"/>
    <g id="group">
        <path
            id="path_17"
            d="M 7.224 10.513 C 7.563 10.171 6.876 9.879 6.877 10.072 L 6.794 9.726 L 6.53 9.609 L 6.008 9.477 C 5.709 9.398 5.531 9.512 5.322 9.666 C 5.122 9.42 4.554 9.821 4.879 10.131 C 4.879 10.131 4.948 10.316 5.07 10.346 C 5.192 10.376 5.291 10.427 5.291 10.427 C 5.338 10.895 5.972 10.913 6.219 10.763 C 6.364 10.976 6.914 11.03 6.892 10.608 L 7.043 10.73 L 7.193 10.659 Z"
            fill="#c8ab37"
            stroke-width="1"/>
        <path
            id="path_18"
            d="M 6.454 9.355 L 6.362 9.793 L 6.534 9.951 L 6.524 10.132 L 6.928 10.371 L 6.551 10.247 L 6.422 10.149 L 6.45 10.037 L 6.366 9.941 L 6.276 10.13 L 6.062 10.141 L 5.999 10.262 L 5.701 10.337 L 5.672 10.46 L 5.608 10.388 L 5.625 10.287 L 5.921 10.235 L 5.972 10.124 L 5.9 10.007 L 5.962 9.896 L 5.937 9.747 L 5.629 9.809 L 5.516 10.019 L 5.528 9.804 L 5.827 9.695 L 5.939 9.702 L 6.008 9.478 L 5.961 9.316 L 6.125 8.984 L 6.454 9.356"
            fill="#554400"
            stroke-width="1"/>
    </g>
    <g id="group_1">
        <path
            id="path_19"
            d="M 8.472 5.195 L 9.061 4.739 C 9.457 5.162 9.586 5.635 9.749 6.173 L 9.111 6.316 C 8.987 5.878 8.741 5.55 8.472 5.195 Z"
            fill="#d3bc5f"
            stroke-width="1"/>
        <path
            id="path_20"
            d="M 8.848 5.218 L 9.023 5.541 L 9.391 5.348 L 9.468 5.312 L 9.225 4.906 Z M 9.113 5.708 L 9.231 6.056 L 9.626 5.929 L 9.708 5.907 L 9.537 5.465 Z"
            fill="#e6e6e6"
            stroke-width="1"/>
        <path
            id="path_21"
            d="M 8.901 4.591 L 9.624 4.579 C 10.02 5.003 10.09 5.224 10.211 5.762 L 9.797 6.374 C 9.67 5.81 9.199 4.93 8.901 4.591 Z"
            fill="#c87137"
            stroke-width="1"/>
        <path
            id="path_22"
            d="M 9.02 5.14 L 8.919 5.22 L 9.05 5.458 L 9.16 5.395 Z M 9.17 5.035 L 9.075 5.103 L 9.22 5.37 L 9.339 5.314 Z M 9.296 5.661 L 9.183 5.723 L 9.271 5.979 L 9.39 5.936 Z M 9.461 5.583 L 9.356 5.634 L 9.454 5.922 L 9.581 5.886 Z"
            fill="#53676c"
            stroke-width="1"/>
    </g>
    <g id="group_2">
        <path
            id="path_23"
            d="M 4.148 8.15 C 3.892 8.887 3.277 9.478 2.831 9.959 L 3.013 10.184 C 3.605 9.696 4.366 9.368 4.939 9.115 L 4.737 8.936 L 4.257 9.189 L 4.024 8.896 L 4.309 8.498 Z M 3.932 9.031 L 4.092 9.27 L 3.799 9.439 L 3.707 9.322 Z M 3.634 9.397 L 3.685 9.472 L 3.446 9.659 L 3.332 9.744 L 3.323 9.707 Z"
            fill="#808080"
            stroke-width="1"/>
        <path
            id="path_24"
            d="M 3.137 10.169 L 2.883 9.829 L 2.944 9.763 L 3.207 10.124 Z M 2.998 10.271 L 2.743 9.931 L 2.805 9.865 L 3.068 10.226 Z"
            fill="#b3b3b3"
            stroke-width="1"/>
        <path
            id="path_25"
            d="M 2.818 10.032 L 2.756 10.081 C 2.598 10.087 2.485 10.191 2.578 10.32 C 2.662 10.431 2.782 10.362 2.844 10.191 L 2.892 10.154 L 2.909 10.148 Z"
            fill="#c83737"
            stroke-width="1"/>
        <path
            id="path_26"
            d="M 3.897 9.685 L 3.488 9.139 L 3.522 9.109 L 3.933 9.664 Z M 4.326 9.486 L 3.783 8.721 L 3.817 8.691 L 4.364 9.46 Z M 3.395 9.935 L 3.14 9.595 L 3.202 9.529 L 3.464 9.89 Z"
            fill="#b3b3b3"
            stroke-width="1"/>
        <path
            id="path_27"
            d="M 6.526 4.294 C 5.816 4.294 5.134 4.581 4.632 5.09 C 4.129 5.599 3.847 6.291 3.847 7.011 C 3.847 7.731 4.129 8.423 4.632 8.932 C 5.134 9.442 5.816 9.728 6.526 9.728 C 7.237 9.728 7.919 9.442 8.421 8.932 C 8.923 8.423 9.206 7.731 9.206 7.011 C 9.206 6.291 8.923 5.599 8.421 5.09 C 7.919 4.581 7.237 4.294 6.526 4.294 Z"
            fill="#676c53"
            stroke-width="1"/>
    </g>
    <g id="group_3">
        <path
            id="path_28"
            d="M 3.941 6.374 L 3.979 6.388 C 4.041 6.144 4.144 5.912 4.259 5.692 L 4.231 5.674 C 4.108 5.911 4.017 6.137 3.941 6.374 Z M 4.519 5.261 L 4.547 5.291 C 4.707 5.098 4.896 4.944 5.093 4.797 L 5.072 4.76 C 4.858 4.903 4.688 5.081 4.519 5.261 Z M 5.322 4.611 L 5.337 4.649 C 5.557 4.535 5.79 4.469 6.028 4.412 L 6.022 4.37 C 5.771 4.416 5.546 4.512 5.322 4.611 Z M 6.599 4.326 L 6.595 4.367 C 6.841 4.374 7.077 4.428 7.313 4.493 L 7.328 4.453 C 7.084 4.373 6.842 4.348 6.599 4.326 Z M 7.895 4.722 L 7.872 4.755 C 8.084 4.884 8.264 5.048 8.44 5.222 L 8.472 5.195 C 8.297 5.003 8.097 4.862 7.895 4.722 Z M 8.882 5.867 L 8.845 5.883 C 8.958 6.107 9.026 6.345 9.084 6.588 L 9.125 6.582 C 9.077 6.325 8.981 6.096 8.882 5.868 Z M 8.956 7.996 L 8.92 7.977 C 8.828 8.211 8.696 8.419 8.555 8.623 L 8.586 8.651 C 8.745 8.445 8.851 8.221 8.956 7.996 Z M 8.033 9.194 L 8.012 9.158 C 7.813 9.307 7.594 9.411 7.368 9.507 L 7.38 9.548 C 7.621 9.46 7.827 9.328 8.033 9.194 Z M 6.856 9.656 L 6.854 9.614 C 6.61 9.647 6.369 9.63 6.126 9.603 L 6.117 9.645 C 6.37 9.686 6.613 9.672 6.856 9.655 Z M 5.586 9.481 L 5.604 9.444 C 5.373 9.354 5.168 9.224 4.966 9.083 L 4.939 9.115 C 5.143 9.274 5.364 9.378 5.586 9.48 Z M 4.499 8.696 L 4.532 8.671 C 4.369 8.481 4.248 8.267 4.135 8.046 L 4.096 8.061 C 4.203 8.299 4.35 8.498 4.499 8.695 Z M 3.954 7.54 L 3.994 7.534 C 3.939 7.288 3.931 7.041 3.934 6.791 L 3.893 6.785 C 3.877 7.047 3.915 7.293 3.955 7.539 Z"
            fill="#ffffff"
            stroke-width="1"/>
    </g>
    <path
        id="path_29"
        d="M 6.526 4.507 C 6.007 4.507 5.501 4.673 5.081 4.982 C 4.661 5.292 4.348 5.728 4.188 6.228 C 4.027 6.728 4.027 7.267 4.188 7.768 C 4.348 8.268 4.661 8.704 5.081 9.013 C 5.501 9.323 6.007 9.489 6.526 9.489 C 7.178 9.489 7.804 9.227 8.265 8.759 C 8.726 8.292 8.986 7.658 8.986 6.998 C 8.986 6.337 8.726 5.703 8.265 5.236 C 7.804 4.769 7.178 4.507 6.526 4.507 Z"
        fill="#c4c8b7"
        stroke-width="1"/>
    <path
        id="path_30"
        d="M 6.512 4.565 C 6.012 4.565 5.525 4.727 5.12 5.028 C 4.716 5.329 4.415 5.754 4.26 6.241 C 4.105 6.728 4.105 7.252 4.26 7.739 C 4.415 8.226 4.716 8.651 5.12 8.952 C 5.525 9.253 6.012 9.415 6.512 9.415 C 7.14 9.415 7.743 9.159 8.187 8.705 C 8.631 8.25 8.881 7.633 8.881 6.99 C 8.881 6.347 8.631 5.73 8.187 5.275 C 7.743 4.821 7.14 4.565 6.512 4.565 Z"
        fill="#abc837"
        stroke-width="1"/>
    <g id="group_4">
        <path
            id="path_31"
            d="M 6.487 4.86 L 6.461 4.502 L 6.358 4.21 L 6.526 4.436 L 6.617 4.794 L 6.682 4.608 L 6.811 4.449 L 6.967 4.329 L 6.824 4.555 L 6.76 4.807 L 6.941 4.608 L 7.032 4.515 L 6.915 4.781 L 6.863 4.914 Z M 7.881 5.456 L 8.108 5.182 L 8.234 4.9 L 8.2 5.181 L 8.018 5.502 L 8.192 5.416 L 8.394 5.396 L 8.586 5.423 L 8.33 5.481 L 8.111 5.614 L 8.377 5.603 L 8.505 5.602 L 8.24 5.707 L 8.112 5.764 Z M 4.668 7.753 L 4.362 7.93 L 4.148 8.15 L 4.275 7.898 L 4.554 7.661 L 4.362 7.68 L 4.166 7.628 L 3.994 7.534 L 4.254 7.57 L 4.505 7.523 L 4.252 7.44 L 4.131 7.395 L 4.415 7.391 L 4.555 7.382 Z M 5.007 5.522 L 4.73 5.301 L 4.448 5.184 L 4.725 5.207 L 5.046 5.379 L 4.954 5.205 L 4.926 5 L 4.944 4.801 L 5.012 5.061 L 5.151 5.279 L 5.128 5.008 L 5.122 4.877 L 5.236 5.144 L 5.298 5.272 Z M 6.314 8.93 L 6.314 9.289 L 6.396 9.588 L 6.244 9.35 L 6.18 8.986 L 6.102 9.166 L 5.961 9.315 L 5.797 9.423 L 5.955 9.208 L 6.038 8.962 L 5.843 9.147 L 5.746 9.232 L 5.881 8.977 L 5.942 8.848 Z M 8.271 7.775 L 8.599 7.903 L 8.902 7.931 L 8.63 7.991 L 8.275 7.923 L 8.412 8.062 L 8.498 8.25 L 8.537 8.445 L 8.398 8.217 L 8.203 8.05 L 8.302 8.303 L 8.345 8.426 L 8.16 8.205 L 8.064 8.101 Z"
            fill="#89a02c"
            stroke-width="1"/>
    </g>
    <g id="group_5">
        <path
            id="path_32"
            d="M 7.093 5.461 L 7.182 5.198 L 7.202 4.956 L 7.243 5.174 L 7.195 5.458 L 7.291 5.349 L 7.42 5.281 L 7.554 5.25 L 7.397 5.36 L 7.282 5.517 L 7.455 5.438 L 7.54 5.403 L 7.388 5.551 L 7.316 5.628 Z M 7.803 6.36 L 8.028 6.244 L 8.191 6.087 L 8.086 6.275 L 7.877 6.44 L 8.012 6.439 L 8.146 6.493 L 8.261 6.578 L 8.081 6.532 L 7.903 6.551 L 8.075 6.634 L 8.157 6.677 L 7.958 6.661 L 7.86 6.658 Z M 5.09 6.884 L 4.844 6.904 L 4.644 6.987 L 4.799 6.852 L 5.045 6.78 L 4.918 6.728 L 4.809 6.623 L 4.727 6.498 L 4.881 6.613 L 5.054 6.666 L 4.918 6.52 L 4.855 6.447 L 5.036 6.541 L 5.127 6.583 Z M 5.96 5.421 L 5.849 5.17 L 5.705 4.991 L 5.873 5.102 L 6.026 5.334 L 6.019 5.179 L 6.062 5.024 L 6.131 4.89 L 6.098 5.097 L 6.122 5.299 L 6.188 5.1 L 6.222 5.005 L 6.216 5.232 L 6.218 5.344 Z M 5.79 8.28 L 5.684 8.535 L 5.649 8.775 L 5.622 8.554 L 5.688 8.274 L 5.586 8.375 L 5.453 8.432 L 5.317 8.452 L 5.481 8.355 L 5.606 8.209 L 5.427 8.273 L 5.341 8.3 L 5.502 8.166 L 5.578 8.095 Z M 7.371 8.134 L 7.542 8.337 L 7.725 8.461 L 7.536 8.41 L 7.33 8.241 L 7.376 8.386 L 7.375 8.548 L 7.343 8.7 L 7.322 8.491 L 7.247 8.305 L 7.235 8.518 L 7.227 8.621 L 7.174 8.401 L 7.144 8.294 Z"
            fill="#89a02c"
            stroke-width="1"/>
    </g>
    <path
        id="path_33"
        d="M 9.642 6.468 C 9.294 6.135 9.038 6.85 9.227 6.841 L 8.893 6.94 L 8.789 7.215 L 8.682 7.755 C 8.617 8.063 8.736 8.241 8.895 8.449 C 8.663 8.663 9.077 9.227 9.366 8.883 C 9.366 8.883 9.544 8.805 9.568 8.679 C 9.592 8.552 9.638 8.449 9.638 8.449 C 10.093 8.382 10.084 7.733 9.928 7.486 C 10.13 7.328 10.16 6.764 9.749 6.804 L 9.862 6.644 L 9.786 6.493 Z"
        fill="#89a02c"
        stroke-width="1"/>
    <path
        id="path_34"
        d="M 8.574 7.233 L 8.789 7.215 L 8.975 7.379 L 9.122 7.197 L 9.3 7.199 L 9.516 6.776 L 9.411 7.166 L 9.32 7.303 L 9.21 7.278 L 9.12 7.369 L 9.307 7.453 L 9.327 7.672 L 9.448 7.731 L 9.533 8.032 L 9.654 8.057 L 9.587 8.125 L 9.487 8.112 L 9.424 7.811 L 9.314 7.764 L 9.202 7.843 L 9.092 7.783 L 8.947 7.816 L 9.021 8.128 L 9.23 8.235 L 9.02 8.232 L 8.902 7.93 L 8.903 7.815 L 8.682 7.754 L 8.526 7.809 L 8.43 7.783 C 8.541 7.624 8.584 7.58 8.587 7.394"
        fill="#504416"
        stroke-width="1"/>
    <g id="group_6">
        <path
            id="path_35"
            d="M 7.41 6.323 L 7.558 6.201 L 7.651 6.066 L 7.609 6.207 L 7.483 6.357 L 7.586 6.327 L 7.699 6.332 L 7.803 6.36 L 7.657 6.37 L 7.525 6.421 L 7.673 6.436 L 7.744 6.445 L 7.589 6.479 L 7.513 6.498 Z M 7.618 7.095 L 7.814 7.106 L 7.979 7.071 L 7.845 7.144 L 7.644 7.168 L 7.74 7.214 L 7.816 7.293 L 7.869 7.382 L 7.758 7.293 L 7.626 7.242 L 7.72 7.35 L 7.764 7.404 L 7.629 7.325 L 7.561 7.289 Z M 5.538 6.457 L 5.359 6.383 L 5.191 6.362 L 5.344 6.337 L 5.54 6.38 L 5.467 6.306 L 5.425 6.207 L 5.408 6.105 L 5.479 6.226 L 5.584 6.317 L 5.535 6.184 L 5.514 6.12 L 5.612 6.238 L 5.662 6.294 Z M 6.625 5.905 L 6.629 5.72 L 6.585 5.565 L 6.668 5.689 L 6.701 5.877 L 6.746 5.785 L 6.826 5.709 L 6.919 5.655 L 6.828 5.764 L 6.779 5.891 L 6.89 5.797 L 6.945 5.753 L 6.867 5.884 L 6.832 5.95 Z M 5.577 7.516 L 5.42 7.628 L 5.317 7.756 L 5.37 7.618 L 5.507 7.478 L 5.403 7.501 L 5.29 7.488 L 5.188 7.452 L 5.335 7.452 L 5.471 7.41 L 5.324 7.386 L 5.254 7.371 L 5.412 7.349 L 5.488 7.335 Z M 6.737 7.982 L 6.791 8.16 L 6.881 8.296 L 6.763 8.2 L 6.674 8.029 L 6.659 8.13 L 6.606 8.225 L 6.534 8.302 L 6.587 8.173 L 6.594 8.038 L 6.517 8.159 L 6.478 8.216 L 6.512 8.069 L 6.526 7.996 Z"
            fill="#89a02c"
            stroke-width="1"/>
    </g>
    <path
        id="path_36"
        d="M 3.224 5.472 L 3.95 5.845 L 3.979 5.762 L 3.268 5.378 Z"
        fill="#ececec"
        stroke-width="1"/>
    <g id="group_7">
        <path
            id="path_37"
            d="M 4.983 4.165 L 4.811 4.431 L 4.906 4.657 L 4.989 4.651 L 5.393 4.408 L 5.808 4.259 L 6.235 4.2 L 6.217 3.874 L 5.938 3.85 L 5.6 3.429 L 5.274 3.524 L 5.001 3.708 Z"
            fill="#c83737"
            stroke-width="1"/>
        <path
            id="path_38"
            d="M 4.764 4.669 L 4.942 4.52 L 4.989 4.651 L 4.823 4.746 Z M 6.161 4.099 L 6.391 4.075 L 6.358 4.21 L 6.167 4.196 Z"
            fill="#b3b3b3"
            stroke-width="1"/>
        <path
            id="path_39"
            d="M 5.077 3.748 L 5.093 4.103 L 5.342 3.973 L 5.401 3.957 L 5.264 3.638 Z M 5.324 3.604 L 5.456 3.938 L 5.702 3.858 L 5.823 3.847 L 5.593 3.517 Z"
            fill="#d7e3f4"
            stroke-width="1"/>
        <path
            id="path_40"
            d="M 5.2 4.304 C 5.161 4.304 5.123 4.316 5.091 4.339 C 5.06 4.363 5.036 4.395 5.024 4.433 C 5.012 4.471 5.012 4.511 5.024 4.549 C 5.036 4.586 5.06 4.619 5.091 4.642 C 5.123 4.665 5.161 4.678 5.2 4.678 C 5.239 4.678 5.277 4.665 5.308 4.642 C 5.34 4.619 5.363 4.586 5.375 4.549 C 5.387 4.511 5.387 4.471 5.375 4.433 C 5.363 4.395 5.34 4.363 5.308 4.339 C 5.277 4.316 5.239 4.304 5.2 4.304 Z"
            fill="#1c2224"
            stroke-width="1"/>
        <path
            id="path_41"
            d="M 5.197 4.345 C 5.168 4.345 5.14 4.355 5.117 4.372 C 5.093 4.389 5.076 4.414 5.067 4.442 C 5.058 4.47 5.058 4.5 5.067 4.528 C 5.076 4.556 5.093 4.58 5.117 4.598 C 5.14 4.615 5.168 4.624 5.197 4.624 C 5.226 4.624 5.254 4.615 5.277 4.598 C 5.3 4.58 5.318 4.556 5.327 4.528 C 5.335 4.5 5.335 4.47 5.327 4.442 C 5.318 4.414 5.3 4.389 5.277 4.372 C 5.254 4.355 5.226 4.345 5.197 4.345 Z"
            fill="#6f918a"
            stroke-width="1"/>
        <path
            id="path_42"
            d="M 5.195 4.375 C 5.167 4.375 5.141 4.386 5.121 4.406 C 5.101 4.426 5.09 4.453 5.09 4.48 C 5.09 4.508 5.101 4.535 5.121 4.555 C 5.141 4.575 5.167 4.586 5.195 4.586 C 5.223 4.586 5.25 4.575 5.27 4.555 C 5.289 4.535 5.301 4.508 5.301 4.48 C 5.301 4.453 5.289 4.426 5.27 4.406 C 5.25 4.386 5.223 4.375 5.195 4.375 Z"
            fill="#e6e6e6"
            stroke-width="1"/>
        <path
            id="path_43"
            d="M 5.912 4.013 C 5.863 4.013 5.816 4.033 5.782 4.068 C 5.747 4.103 5.728 4.151 5.728 4.2 C 5.728 4.25 5.747 4.297 5.782 4.332 C 5.816 4.367 5.863 4.387 5.912 4.387 C 5.96 4.387 6.007 4.367 6.042 4.332 C 6.076 4.297 6.096 4.25 6.096 4.2 C 6.096 4.151 6.076 4.103 6.042 4.068 C 6.007 4.033 5.96 4.013 5.912 4.013 Z"
            fill="#1c2224"
            stroke-width="1"/>
        <path
            id="path_44"
            d="M 5.909 4.055 C 5.872 4.055 5.838 4.069 5.812 4.096 C 5.787 4.122 5.772 4.157 5.772 4.194 C 5.772 4.231 5.787 4.267 5.812 4.293 C 5.838 4.319 5.872 4.334 5.909 4.334 C 5.945 4.334 5.98 4.319 6.005 4.293 C 6.031 4.267 6.045 4.231 6.045 4.194 C 6.045 4.157 6.031 4.122 6.005 4.096 C 5.98 4.069 5.945 4.055 5.909 4.055 Z"
            fill="#6f918a"
            stroke-width="1"/>
        <path
            id="path_45"
            d="M 5.907 4.084 C 5.879 4.084 5.852 4.096 5.833 4.115 C 5.813 4.135 5.802 4.162 5.802 4.19 C 5.802 4.218 5.813 4.244 5.833 4.264 C 5.852 4.284 5.879 4.295 5.907 4.295 C 5.935 4.295 5.962 4.284 5.982 4.264 C 6.001 4.244 6.012 4.218 6.012 4.19 C 6.012 4.162 6.001 4.135 5.982 4.115 C 5.962 4.096 5.935 4.084 5.907 4.084 Z"
            fill="#e6e6e6"
            stroke-width="1"/>
    </g>
    <g id="group_8">
        <path
            id="path_46"
            d="M 8.827 9.341 L 8.931 9.041 L 8.786 8.845 L 8.707 8.87 L 8.372 9.201 L 8.003 9.443 L 7.602 9.6 L 7.696 9.913 L 7.972 9.871 L 8.4 10.201 L 8.695 10.032 L 8.917 9.789 Z"
            fill="#373e48"
            stroke-width="1"/>
        <path
            id="path_47"
            d="M 8.922 8.8 L 8.784 8.986 L 8.707 8.87 L 8.846 8.739 Z M 7.697 9.682 L 7.479 9.758 L 7.48 9.62 L 7.669 9.589 Z"
            fill="#b3b3b3"
            stroke-width="1"/>
        <path
            id="path_48"
            d="M 8.833 9.768 L 8.735 9.426 L 8.523 9.611 L 8.47 9.641 L 8.677 9.919 Z M 8.627 9.966 L 8.42 9.673 L 8.2 9.808 L 8.084 9.847 L 8.386 10.114 Z"
            fill="#d7e3f4"
            stroke-width="1"/>
        <path
            id="path_49"
            d="M 8.584 9.257 C 8.621 9.247 8.655 9.226 8.68 9.197 C 8.706 9.167 8.721 9.129 8.723 9.09 C 8.726 9.051 8.717 9.011 8.696 8.978 C 8.676 8.944 8.645 8.918 8.609 8.903 C 8.573 8.887 8.534 8.884 8.496 8.893 C 8.458 8.902 8.424 8.923 8.399 8.953 C 8.374 8.983 8.359 9.021 8.356 9.06 C 8.353 9.099 8.363 9.138 8.383 9.172 C 8.404 9.206 8.434 9.232 8.47 9.247 C 8.506 9.262 8.546 9.266 8.584 9.257 Z"
            fill="#1c2224"
            stroke-width="1"/>
        <path
            id="path_50"
            d="M 8.577 9.216 C 8.605 9.209 8.63 9.193 8.649 9.171 C 8.667 9.149 8.678 9.121 8.681 9.091 C 8.683 9.062 8.676 9.033 8.66 9.008 C 8.645 8.982 8.622 8.963 8.596 8.951 C 8.569 8.94 8.539 8.938 8.511 8.944 C 8.483 8.951 8.458 8.967 8.439 8.989 C 8.421 9.011 8.41 9.039 8.408 9.069 C 8.405 9.098 8.413 9.127 8.428 9.152 C 8.443 9.178 8.466 9.197 8.492 9.209 C 8.519 9.22 8.549 9.222 8.577 9.216 Z"
            fill="#6f918a"
            stroke-width="1"/>
        <path
            id="path_51"
            d="M 8.571 9.186 C 8.593 9.181 8.612 9.169 8.627 9.152 C 8.641 9.135 8.65 9.114 8.652 9.092 C 8.654 9.07 8.648 9.048 8.637 9.029 C 8.625 9.01 8.607 8.995 8.587 8.986 C 8.566 8.978 8.543 8.976 8.522 8.982 C 8.5 8.987 8.481 8.999 8.466 9.016 C 8.452 9.033 8.443 9.054 8.441 9.076 C 8.44 9.098 8.445 9.12 8.457 9.139 C 8.468 9.158 8.486 9.173 8.506 9.181 C 8.527 9.19 8.55 9.192 8.571 9.186 Z"
            fill="#e6e6e6"
            stroke-width="1"/>
        <path
            id="path_52"
            d="M 7.96 9.706 C 7.998 9.697 8.031 9.676 8.057 9.646 C 8.082 9.616 8.097 9.579 8.1 9.54 C 8.103 9.5 8.093 9.461 8.073 9.427 C 8.052 9.394 8.022 9.367 7.986 9.352 C 7.95 9.337 7.91 9.334 7.872 9.343 C 7.834 9.352 7.8 9.373 7.775 9.403 C 7.75 9.433 7.735 9.47 7.732 9.509 C 7.729 9.549 7.739 9.588 7.759 9.622 C 7.78 9.655 7.81 9.682 7.846 9.697 C 7.882 9.712 7.922 9.715 7.96 9.706 Z"
            fill="#1c2224"
            stroke-width="1"/>
        <path
            id="path_53"
            d="M 7.953 9.665 C 7.981 9.658 8.006 9.643 8.025 9.62 C 8.044 9.598 8.055 9.57 8.057 9.541 C 8.059 9.512 8.052 9.482 8.037 9.457 C 8.021 9.432 7.999 9.412 7.972 9.401 C 7.945 9.39 7.916 9.387 7.888 9.394 C 7.859 9.401 7.834 9.416 7.816 9.439 C 7.797 9.461 7.786 9.489 7.784 9.518 C 7.781 9.548 7.789 9.577 7.804 9.602 C 7.819 9.627 7.842 9.647 7.869 9.658 C 7.895 9.67 7.925 9.672 7.953 9.665 Z"
            fill="#6f918a"
            stroke-width="1"/>
        <path
            id="path_54"
            d="M 7.947 9.636 C 7.969 9.631 7.989 9.619 8.003 9.602 C 8.018 9.585 8.026 9.564 8.028 9.542 C 8.03 9.519 8.024 9.497 8.013 9.478 C 8.001 9.459 7.984 9.445 7.963 9.436 C 7.942 9.428 7.92 9.426 7.898 9.431 C 7.876 9.436 7.857 9.448 7.842 9.465 C 7.828 9.482 7.819 9.503 7.817 9.525 C 7.816 9.548 7.821 9.57 7.833 9.589 C 7.844 9.608 7.862 9.623 7.882 9.631 C 7.903 9.639 7.926 9.641 7.947 9.636 Z"
            fill="#e6e6e6"
            stroke-width="1"/>
    </g>
</svg>
