<svg xmlns="http://www.w3.org/2000/svg" viewBox="0 0 4732 105" width="4732" height="105"><path d="M.387 210.866s.15-46.162.1-62.538c-.049-16.377-.604-42.083 25.518-42.712 26.122.484 25.325 26.344 26.127 42.068.803 15.723.41 63 .41 63z" fill="#abc837"/><path d="M52.387 210.69668s.15-46.162.1-62.538c-.049-16.377-.604-42.083 25.518-42.712 26.122.484 25.325 26.344 26.127 42.068.803 15.723.41 63 .41 63z" fill="#abc837"/><path d="M104.387 210.148774s.15-46.162.1-62.538c-.049-16.377-.604-42.083 25.518-42.712 26.122.484 25.325 26.344 26.127 42.068.803 15.723.41 63 .41 63z" fill="#abc837"/><path d="M156.387 209.151274s.15-46.162.1-62.538c-.049-16.377-.604-42.083 25.518-42.712 26.122.484 25.325 26.344 26.127 42.068.803 15.723.41 63 .41 63z" fill="#abc837"/><path d="M208.387 207.61549s.15-46.162.1-62.538c-.049-16.377-.604-42.083 25.518-42.712 26.122.484 25.325 26.344 26.127 42.068.803 15.723.41 63 .41 63z" fill="#abc837"/><path d="M260.387 205.431704s.15-46.162.1-62.538c-.049-16.377-.604-42.083 25.518-42.712 26.122.484 25.325 26.344 26.127 42.068.803 15.723.41 63 .41 63z" fill="#abc837"/><path d="M312.387 202.468363s.15-46.162.1-62.538c-.049-16.377-.604-42.083 25.518-42.712 26.122.484 25.325 26.344 26.127 42.068.803 15.723.41 63 .41 63z" fill="#abc837"/><path d="M364.387 198.57973s.15-46.162.1-62.538c-.049-16.377-.604-42.083 25.518-42.712 26.122.484 25.325 26.344 26.127 42.068.803 15.723.41 63 .41 63z" fill="#abc837"/><path d="M416.387 193.634395s.15-46.162.1-62.538c-.049-16.377-.604-42.083 25.518-42.712 26.122.484 25.325 26.344 26.127 42.068.803 15.723.41 63 .41 63z" fill="#abc837"/><path d="M468.387 187.581444s.15-46.162.1-62.538c-.049-16.377-.604-42.083 25.518-42.712 26.122.484 25.325 26.344 26.127 42.068.803 15.723.41 63 .41 63z" fill="#abc837"/><path d="M520.387 180.55087s.15-46.162.1-62.538c-.049-16.377-.604-42.083 25.518-42.712 26.122.484 25.325 26.344 26.127 42.068.803 15.723.41 63 .41 63z" fill="#abc837"/><path d="M572.387 172.913909s.15-46.162.1-62.538c-.049-16.377-.604-42.083 25.518-42.712 26.122.484 25.325 26.344 26.127 42.068.803 15.723.41 63 .41 63z" fill="#abc837"/><path d="M624.387 165.190022s.15-46.162.1-62.538c-.049-16.377-.604-42.083 25.518-42.712 26.122.484 25.325 26.344 26.127 42.068.803 15.723.41 63 .41 63z" fill="#abc837"/><path d="M676.387 157.838243s.15-46.162.1-62.538c-.049-16.377-.604-42.083 25.518-42.712 26.122.484 25.325 26.344 26.127 42.068.803 15.723.41 63 .41 63z" fill="#abc837"/><path d="M728.387 151.124955s.15-46.162.1-62.538c-.049-16.377-.604-42.083 25.518-42.712 26.122.484 25.325 26.344 26.127 42.068.803 15.723.41 63 .41 63z" fill="#abc837"/><path d="M780.387 145.137323s.15-46.162.1-62.538c-.049-16.377-.604-42.083 25.518-42.712 26.122.484 25.325 26.344 26.127 42.068.803 15.723.41 63 .41 63z" fill="#abc837"/><path d="M797.438 69.170323c-.688 0-1.358.326-1.915.931-.557.604-.971 1.457-1.184 2.435-.212.978-.212 2.032 0 3.011.213.978.627 1.83 1.184 2.435.557.604 1.227.93 1.915.93s1.359-.326 1.915-.93c.557-.605.971-1.457 1.184-2.435.213-.979.213-2.033 0-3.011-.213-.978-.627-1.831-1.184-2.435-.556-.605-1.227-.931-1.915-.931zm16.533.131c-.69-.003-1.362.321-1.921.925-.558.604-.974 1.458-1.188 2.438-.213.98-.213 2.036 0 3.016.214.98.63 1.834 1.188 2.438.559.604 1.231.928 1.921.925.863 0 1.693-.514 2.304-1.427.61-.913.954-2.153.954-3.444s-.344-2.531-.954-3.444c-.611-.913-1.441-1.427-2.304-1.427zm-7.965 18.379c-.688 0-1.358.325-1.915.93-.557.605-.971 1.457-1.184 2.435-.212.979-.212 2.033 0 3.011.213.978.627 1.831 1.184 2.435.557.605 1.227.93 1.915.93s1.359-.325 1.915-.93c.557-.604.971-1.457 1.184-2.435.212-.978.212-2.032 0-3.011-.213-.978-.627-1.83-1.184-2.435-.556-.605-1.227-.93-1.915-.93z" fill="#24221c" fill-opacity=".001746"/><path d="M832.387 139.856765s.15-46.162.1-62.538c-.049-16.377-.604-42.083 25.518-42.712 26.122.484 25.325 26.344 26.127 42.068.803 15.723.41 63 .41 63z" fill="#abc837"/><path d="M849.438 63.889765c-.688 0-1.358.326-1.915.931-.557.604-.971 1.457-1.184 2.435-.212.978-.212 2.032 0 3.011.213.978.627 1.83 1.184 2.435.557.604 1.227.93 1.915.93s1.359-.326 1.915-.93c.557-.605.971-1.457 1.184-2.435.213-.979.213-2.033 0-3.011-.213-.978-.627-1.831-1.184-2.435-.556-.605-1.227-.931-1.915-.931zm16.533.131c-.69-.003-1.362.321-1.921.925-.558.604-.974 1.458-1.188 2.438-.213.98-.213 2.036 0 3.016.214.98.63 1.834 1.188 2.438.559.604 1.231.928 1.921.925.863 0 1.693-.514 2.304-1.427.61-.913.954-2.153.954-3.444s-.344-2.531-.954-3.444c-.611-.913-1.441-1.427-2.304-1.427zm-7.965 18.379c-.688 0-1.358.325-1.915.93-.557.605-.971 1.457-1.184 2.435-.212.979-.212 2.033 0 3.011.213.978.627 1.831 1.184 2.435.557.605 1.227.93 1.915.93s1.359-.325 1.915-.93c.557-.604.971-1.457 1.184-2.435.212-.978.212-2.032 0-3.011-.213-.978-.627-1.83-1.184-2.435-.556-.605-1.227-.93-1.915-.93z" fill="#24221c" fill-opacity=".020802"/><path d="M884.387 135.219684s.15-46.162.1-62.538c-.049-16.377-.604-42.083 25.518-42.712 26.122.484 25.325 26.344 26.127 42.068.803 15.723.41 63 .41 63z" fill="#abc837"/><path d="M901.438 59.252684c-.688 0-1.358.326-1.915.931-.557.604-.971 1.457-1.184 2.435-.212.978-.212 2.032 0 3.011.213.978.627 1.83 1.184 2.435.557.604 1.227.93 1.915.93s1.359-.326 1.915-.93c.557-.605.971-1.457 1.184-2.435.213-.979.213-2.033 0-3.011-.213-.978-.627-1.831-1.184-2.435-.556-.605-1.227-.931-1.915-.931zm16.533.131c-.69-.003-1.362.321-1.921.925-.558.604-.974 1.458-1.188 2.438-.213.98-.213 2.036 0 3.016.214.98.63 1.834 1.188 2.438.559.604 1.231.928 1.921.925.863 0 1.693-.514 2.304-1.427.61-.913.954-2.153.954-3.444s-.344-2.531-.954-3.444c-.611-.913-1.441-1.427-2.304-1.427zm-7.965 18.379c-.688 0-1.358.325-1.915.93-.557.605-.971 1.457-1.184 2.435-.212.979-.212 2.033 0 3.011.213.978.627 1.831 1.184 2.435.557.605 1.227.93 1.915.93s1.359-.325 1.915-.93c.557-.604.971-1.457 1.184-2.435.212-.978.212-2.032 0-3.011-.213-.978-.627-1.83-1.184-2.435-.556-.605-1.227-.93-1.915-.93z" fill="#24221c" fill-opacity=".069418"/><path d="M936.387 131.150915s.15-46.162.1-62.538c-.049-16.377-.604-42.083 25.518-42.712 26.122.484 25.325 26.344 26.127 42.068.803 15.723.41 63 .41 63z" fill="#abc837"/><path d="M953.438 55.183915c-.688 0-1.358.326-1.915.931-.557.604-.971 1.457-1.184 2.435-.212.978-.212 2.032 0 3.011.213.978.627 1.83 1.184 2.435.557.604 1.227.93 1.915.93s1.359-.326 1.915-.93c.557-.605.971-1.457 1.184-2.435.213-.979.213-2.033 0-3.011-.213-.978-.627-1.831-1.184-2.435-.556-.605-1.227-.931-1.915-.931zm16.533.131c-.69-.003-1.362.321-1.921.925-.558.604-.974 1.458-1.188 2.438-.213.98-.213 2.036 0 3.016.214.98.63 1.834 1.188 2.438.559.604 1.231.928 1.921.925.863 0 1.693-.514 2.304-1.427.61-.913.954-2.153.954-3.444s-.344-2.531-.954-3.444c-.611-.913-1.441-1.427-2.304-1.427zm-7.965 18.379c-.688 0-1.358.325-1.915.93-.557.605-.971 1.457-1.184 2.435-.212.979-.212 2.033 0 3.011.213.978.627 1.831 1.184 2.435.557.605 1.227.93 1.915.93s1.359-.325 1.915-.93c.557-.604.971-1.457 1.184-2.435.212-.978.212-2.032 0-3.011-.213-.978-.627-1.83-1.184-2.435-.556-.605-1.227-.93-1.915-.93z" fill="#24221c" fill-opacity=".16244"/><path d="M988.387 127.578414s.15-46.162.1-62.538c-.049-16.377-.604-42.083 25.518-42.712 26.122.484 25.325 26.344 26.127 42.068.803 15.723.41 63 .41 63z" fill="#abc837"/><path d="M1005.438 51.611414c-.688 0-1.358.326-1.915.931-.557.604-.971 1.457-1.184 2.435-.212.978-.212 2.032 0 3.011.213.978.627 1.83 1.184 2.435.557.604 1.227.93 1.915.93s1.359-.326 1.915-.93c.557-.605.971-1.457 1.184-2.435.213-.979.213-2.033 0-3.011-.213-.978-.627-1.831-1.184-2.435-.556-.605-1.227-.931-1.915-.931zm16.533.131c-.69-.003-1.362.321-1.921.925-.558.604-.974 1.458-1.188 2.438-.213.98-.213 2.036 0 3.016.214.98.63 1.834 1.188 2.438.559.604 1.231.928 1.921.925.863 0 1.693-.514 2.304-1.427.61-.913.954-2.153.954-3.444s-.344-2.531-.954-3.444c-.611-.913-1.441-1.427-2.304-1.427zm-7.965 18.379c-.688 0-1.358.325-1.915.93-.557.605-.971 1.457-1.184 2.435-.212.979-.212 2.033 0 3.011.213.978.627 1.831 1.184 2.435.557.605 1.227.93 1.915.93s1.359-.325 1.915-.93c.557-.604.971-1.457 1.184-2.435.212-.978.212-2.032 0-3.011-.213-.978-.627-1.83-1.184-2.435-.556-.605-1.227-.93-1.915-.93z" fill="#24221c" fill-opacity=".308526"/><path d="M1040.387 124.438386s.15-46.162.1-62.538c-.049-16.377-.604-42.083 25.518-42.712 26.122.484 25.325 26.344 26.127 42.068.803 15.723.41 63 .41 63z" fill="#abc837"/><path d="M1057.438 48.471386c-.688 0-1.358.326-1.915.931-.557.604-.971 1.457-1.184 2.435-.212.978-.212 2.032 0 3.011.213.978.627 1.83 1.184 2.435.557.604 1.227.93 1.915.93s1.359-.326 1.915-.93c.557-.605.971-1.457 1.184-2.435.213-.979.213-2.033 0-3.011-.213-.978-.627-1.831-1.184-2.435-.556-.605-1.227-.931-1.915-.931zm16.533.131c-.69-.003-1.362.321-1.921.925-.558.604-.974 1.458-1.188 2.438-.213.98-.213 2.036 0 3.016.214.98.63 1.834 1.188 2.438.559.604 1.231.928 1.921.925.863 0 1.693-.514 2.304-1.427.61-.913.954-2.153.954-3.444s-.344-2.531-.954-3.444c-.611-.913-1.441-1.427-2.304-1.427zm-7.965 18.379c-.688 0-1.358.325-1.915.93-.557.605-.971 1.457-1.184 2.435-.212.979-.212 2.033 0 3.011.213.978.627 1.831 1.184 2.435.557.605 1.227.93 1.915.93s1.359-.325 1.915-.93c.557-.604.971-1.457 1.184-2.435.212-.978.212-2.032 0-3.011-.213-.978-.627-1.83-1.184-2.435-.556-.605-1.227-.93-1.915-.93z" fill="#24221c" fill-opacity=".476757"/><path d="M1092.387 121.676198s.15-46.162.1-62.538c-.049-16.377-.604-42.083 25.518-42.712 26.122.484 25.325 26.344 26.127 42.068.803 15.723.41 63 .41 63z" fill="#abc837"/><path d="M1109.438 45.709198c-.688 0-1.358.326-1.915.931-.557.604-.971 1.457-1.184 2.435-.212.978-.212 2.032 0 3.011.213.978.627 1.83 1.184 2.435.557.604 1.227.93 1.915.93s1.359-.326 1.915-.93c.557-.605.971-1.457 1.184-2.435.213-.979.213-2.033 0-3.011-.213-.978-.627-1.831-1.184-2.435-.556-.605-1.227-.931-1.915-.931zm16.533.131c-.69-.003-1.362.321-1.921.925-.558.604-.974 1.458-1.188 2.438-.213.98-.213 2.036 0 3.016.214.98.63 1.834 1.188 2.438.559.604 1.231.928 1.921.925.863 0 1.693-.514 2.304-1.427.61-.913.954-2.153.954-3.444s-.344-2.531-.954-3.444c-.611-.913-1.441-1.427-2.304-1.427zm-7.965 18.379c-.688 0-1.358.325-1.915.93-.557.605-.971 1.457-1.184 2.435-.212.979-.212 2.033 0 3.011.213.978.627 1.831 1.184 2.435.557.605 1.227.93 1.915.93s1.359-.325 1.915-.93c.557-.604.971-1.457 1.184-2.435.212-.978.212-2.032 0-3.011-.213-.978-.627-1.83-1.184-2.435-.556-.605-1.227-.93-1.915-.93z" fill="#24221c" fill-opacity=".620417"/><path d="M1144.387 119.245694s.15-46.162.1-62.538c-.049-16.377-.604-42.083 25.518-42.712 26.122.484 25.325 26.344 26.127 42.068.803 15.723.41 63 .41 63z" fill="#abc837"/><path d="M1161.438 43.278694c-.688 0-1.358.326-1.915.931-.557.604-.971 1.457-1.184 2.435-.212.978-.212 2.032 0 3.011.213.978.627 1.83 1.184 2.435.557.604 1.227.93 1.915.93s1.359-.326 1.915-.93c.557-.605.971-1.457 1.184-2.435.213-.979.213-2.033 0-3.011-.213-.978-.627-1.831-1.184-2.435-.556-.605-1.227-.931-1.915-.931zm16.533.131c-.69-.003-1.362.321-1.921.925-.558.604-.974 1.458-1.188 2.438-.213.98-.213 2.036 0 3.016.214.98.63 1.834 1.188 2.438.559.604 1.231.928 1.921.925.863 0 1.693-.514 2.304-1.427.61-.913.954-2.153.954-3.444s-.344-2.531-.954-3.444c-.611-.913-1.441-1.427-2.304-1.427zm-7.965 18.379c-.688 0-1.358.325-1.915.93-.557.605-.971 1.457-1.184 2.435-.212.979-.212 2.033 0 3.011.213.978.627 1.831 1.184 2.435.557.605 1.227.93 1.915.93s1.359-.325 1.915-.93c.557-.604.971-1.457 1.184-2.435.212-.978.212-2.032 0-3.011-.213-.978-.627-1.83-1.184-2.435-.556-.605-1.227-.93-1.915-.93z" fill="#24221c" fill-opacity=".728854"/><path d="M1196.387 117.108014s.15-46.162.1-62.538c-.049-16.377-.604-42.083 25.518-42.712 26.122.484 25.325 26.344 26.127 42.068.803 15.723.41 63 .41 63z" fill="#abc837"/><path d="M1213.438 41.141014c-.688 0-1.358.326-1.915.931-.557.604-.971 1.457-1.184 2.435-.212.978-.212 2.032 0 3.011.213.978.627 1.83 1.184 2.435.557.604 1.227.93 1.915.93s1.359-.326 1.915-.93c.557-.605.971-1.457 1.184-2.435.213-.979.213-2.033 0-3.011-.213-.978-.627-1.831-1.184-2.435-.556-.605-1.227-.931-1.915-.931zm16.533.131c-.69-.003-1.362.321-1.921.925-.558.604-.974 1.458-1.188 2.438-.213.98-.213 2.036 0 3.016.214.98.63 1.834 1.188 2.438.559.604 1.231.928 1.921.925.863 0 1.693-.514 2.304-1.427.61-.913.954-2.153.954-3.444s-.344-2.531-.954-3.444c-.611-.913-1.441-1.427-2.304-1.427zm-7.965 18.379c-.688 0-1.358.325-1.915.93-.557.605-.971 1.457-1.184 2.435-.212.979-.212 2.033 0 3.011.213.978.627 1.831 1.184 2.435.557.605 1.227.93 1.915.93s1.359-.325 1.915-.93c.557-.604.971-1.457 1.184-2.435.212-.978.212-2.032 0-3.011-.213-.978-.627-1.83-1.184-2.435-.556-.605-1.227-.93-1.915-.93z" fill="#24221c" fill-opacity=".809121"/><path d="M1248.387 115.2304s.15-46.162.1-62.538c-.049-16.377-.604-42.083 25.518-42.712 26.122.484 25.325 26.344 26.127 42.068.803 15.723.41 63 .41 63z" fill="#abc837"/><path d="M1265.438 39.2634c-.688 0-1.358.326-1.915.931-.557.604-.971 1.457-1.184 2.435-.212.978-.212 2.032 0 3.011.213.978.627 1.83 1.184 2.435.557.604 1.227.93 1.915.93s1.359-.326 1.915-.93c.557-.605.971-1.457 1.184-2.435.213-.979.213-2.033 0-3.011-.213-.978-.627-1.831-1.184-2.435-.556-.605-1.227-.931-1.915-.931zm16.533.131c-.69-.003-1.362.321-1.921.925-.558.604-.974 1.458-1.188 2.438-.213.98-.213 2.036 0 3.016.214.98.63 1.834 1.188 2.438.559.604 1.231.928 1.921.925.863 0 1.693-.514 2.304-1.427.61-.913.954-2.153.954-3.444s-.344-2.531-.954-3.444c-.611-.913-1.441-1.427-2.304-1.427zm-7.965 18.379c-.688 0-1.358.325-1.915.93-.557.605-.971 1.457-1.184 2.435-.212.979-.212 2.033 0 3.011.213.978.627 1.831 1.184 2.435.557.605 1.227.93 1.915.93s1.359-.325 1.915-.93c.557-.604.971-1.457 1.184-2.435.212-.978.212-2.032 0-3.011-.213-.978-.627-1.83-1.184-2.435-.556-.605-1.227-.93-1.915-.93z" fill="#24221c" fill-opacity=".868744"/><path d="M1300.387 113.585125s.15-46.162.1-62.538c-.049-16.377-.604-42.083 25.518-42.712 26.122.484 25.325 26.344 26.127 42.068.803 15.723.41 63 .41 63z" fill="#abc837"/><path d="M1317.438 37.618125c-.688 0-1.358.326-1.915.931-.557.604-.971 1.457-1.184 2.435-.212.978-.212 2.032 0 3.011.213.978.627 1.83 1.184 2.435.557.604 1.227.93 1.915.93s1.359-.326 1.915-.93c.557-.605.971-1.457 1.184-2.435.213-.979.213-2.033 0-3.011-.213-.978-.627-1.831-1.184-2.435-.556-.605-1.227-.931-1.915-.931zm16.533.131c-.69-.003-1.362.321-1.921.925-.558.604-.974 1.458-1.188 2.438-.213.98-.213 2.036 0 3.016.214.98.63 1.834 1.188 2.438.559.604 1.231.928 1.921.925.863 0 1.693-.514 2.304-1.427.61-.913.954-2.153.954-3.444s-.344-2.531-.954-3.444c-.611-.913-1.441-1.427-2.304-1.427zm-7.965 18.379c-.688 0-1.358.325-1.915.93-.557.605-.971 1.457-1.184 2.435-.212.979-.212 2.033 0 3.011.213.978.627 1.831 1.184 2.435.557.605 1.227.93 1.915.93s1.359-.325 1.915-.93c.557-.604.971-1.457 1.184-2.435.212-.978.212-2.032 0-3.011-.213-.978-.627-1.83-1.184-2.435-.556-.605-1.227-.93-1.915-.93z" fill="#24221c" fill-opacity=".913054"/><path d="M1352.387 112.14859s.15-46.162.1-62.538c-.049-16.377-.604-42.083 25.518-42.712 26.122.484 25.325 26.344 26.127 42.068.803 15.723.41 63 .41 63z" fill="#abc837"/><path d="M1369.438 36.18159c-.688 0-1.358.326-1.915.931-.557.604-.971 1.457-1.184 2.435-.212.978-.212 2.032 0 3.011.213.978.627 1.83 1.184 2.435.557.604 1.227.93 1.915.93s1.359-.326 1.915-.93c.557-.605.971-1.457 1.184-2.435.213-.979.213-2.033 0-3.011-.213-.978-.627-1.831-1.184-2.435-.556-.605-1.227-.931-1.915-.931zm16.533.131c-.69-.003-1.362.321-1.921.925-.558.604-.974 1.458-1.188 2.438-.213.98-.213 2.036 0 3.016.214.98.63 1.834 1.188 2.438.559.604 1.231.928 1.921.925.863 0 1.693-.514 2.304-1.427.61-.913.954-2.153.954-3.444s-.344-2.531-.954-3.444c-.611-.913-1.441-1.427-2.304-1.427zm-7.965 18.379c-.688 0-1.358.325-1.915.93-.557.605-.971 1.457-1.184 2.435-.212.979-.212 2.033 0 3.011.213.978.627 1.831 1.184 2.435.557.605 1.227.93 1.915.93s1.359-.325 1.915-.93c.557-.604.971-1.457 1.184-2.435.212-.978.212-2.032 0-3.011-.213-.978-.627-1.83-1.184-2.435-.556-.605-1.227-.93-1.915-.93z" fill="#24221c" fill-opacity=".945661"/><path d="M1404.387 110.9006s.15-46.162.1-62.538c-.049-16.377-.604-42.083 25.518-42.712 26.122.484 25.325 26.344 26.127 42.068.803 15.723.41 63 .41 63z" fill="#abc837"/><path d="M1421.438 34.9336c-.688 0-1.358.326-1.915.931-.557.604-.971 1.457-1.184 2.435-.212.978-.212 2.032 0 3.011.213.978.627 1.83 1.184 2.435.557.604 1.227.93 1.915.93s1.359-.326 1.915-.93c.557-.605.971-1.457 1.184-2.435.213-.979.213-2.033 0-3.011-.213-.978-.627-1.831-1.184-2.435-.556-.605-1.227-.931-1.915-.931zm16.533.131c-.69-.003-1.362.321-1.921.925-.558.604-.974 1.458-1.188 2.438-.213.98-.213 2.036 0 3.016.214.98.63 1.834 1.188 2.438.559.604 1.231.928 1.921.925.863 0 1.693-.514 2.304-1.427.61-.913.954-2.153.954-3.444s-.344-2.531-.954-3.444c-.611-.913-1.441-1.427-2.304-1.427zm-7.965 18.379c-.688 0-1.358.325-1.915.93-.557.605-.971 1.457-1.184 2.435-.212.979-.212 2.033 0 3.011.213.978.627 1.831 1.184 2.435.557.605 1.227.93 1.915.93s1.359-.325 1.915-.93c.557-.604.971-1.457 1.184-2.435.212-.978.212-2.032 0-3.011-.213-.978-.627-1.83-1.184-2.435-.556-.605-1.227-.93-1.915-.93z" fill="#24221c" fill-opacity=".969051"/><path d="M1456.387 109.823759s.15-46.162.1-62.538c-.049-16.377-.604-42.083 25.518-42.712 26.122.484 25.325 26.344 26.127 42.068.803 15.723.41 63 .41 63z" fill="#abc837"/><path d="M1473.438 33.856759c-.688 0-1.358.326-1.915.931-.557.604-.971 1.457-1.184 2.435-.212.978-.212 2.032 0 3.011.213.978.627 1.83 1.184 2.435.557.604 1.227.93 1.915.93s1.359-.326 1.915-.93c.557-.605.971-1.457 1.184-2.435.213-.979.213-2.033 0-3.011-.213-.978-.627-1.831-1.184-2.435-.556-.605-1.227-.931-1.915-.931zm16.533.131c-.69-.003-1.362.321-1.921.925-.558.604-.974 1.458-1.188 2.438-.213.98-.213 2.036 0 3.016.214.98.63 1.834 1.188 2.438.559.604 1.231.928 1.921.925.863 0 1.693-.514 2.304-1.427.61-.913.954-2.153.954-3.444s-.344-2.531-.954-3.444c-.611-.913-1.441-1.427-2.304-1.427zm-7.965 18.379c-.688 0-1.358.325-1.915.93-.557.605-.971 1.457-1.184 2.435-.212.979-.212 2.033 0 3.011.213.978.627 1.831 1.184 2.435.557.605 1.227.93 1.915.93s1.359-.325 1.915-.93c.557-.604.971-1.457 1.184-2.435.212-.978.212-2.032 0-3.011-.213-.978-.627-1.83-1.184-2.435-.556-.605-1.227-.93-1.915-.93z" fill="#24221c" fill-opacity=".984992"/><path d="M1508.387 108.903s.15-46.162.1-62.538c-.049-16.377-.604-42.083 25.518-42.712 26.122.484 25.325 26.344 26.127 42.068.803 15.723.41 63 .41 63z" fill="#abc837"/><path d="M1525.438 32.936c-.688 0-1.358.326-1.915.931-.557.604-.971 1.457-1.184 2.435-.212.978-.212 2.032 0 3.011.213.978.627 1.83 1.184 2.435.557.604 1.227.93 1.915.93s1.359-.326 1.915-.93c.557-.605.971-1.457 1.184-2.435.213-.979.213-2.033 0-3.011-.213-.978-.627-1.831-1.184-2.435-.556-.605-1.227-.931-1.915-.931zm16.533.131c-.69-.003-1.362.321-1.921.925-.558.604-.974 1.458-1.188 2.438-.213.98-.213 2.036 0 3.016.214.98.63 1.834 1.188 2.438.559.604 1.231.928 1.921.925.863 0 1.693-.514 2.304-1.427.61-.913.954-2.153.954-3.444s-.344-2.531-.954-3.444c-.611-.913-1.441-1.427-2.304-1.427zm-7.965 18.379c-.688 0-1.358.325-1.915.93-.557.605-.971 1.457-1.184 2.435-.212.979-.212 2.033 0 3.011.213.978.627 1.831 1.184 2.435.557.605 1.227.93 1.915.93s1.359-.325 1.915-.93c.557-.604.971-1.457 1.184-2.435.212-.978.212-2.032 0-3.011-.213-.978-.627-1.83-1.184-2.435-.556-.605-1.227-.93-1.915-.93z" fill="#24221c" fill-opacity=".994779"/><path d="M1560.387 108.125192s.15-46.162.1-62.538c-.049-16.377-.604-42.083 25.518-42.712 26.122.484 25.325 26.344 26.127 42.068.803 15.723.41 63 .41 63z" fill="#abc837"/><path d="M1577.438 32.158192c-.688 0-1.358.326-1.915.931-.557.604-.971 1.457-1.184 2.435-.212.978-.212 2.032 0 3.011.213.978.627 1.83 1.184 2.435.557.604 1.227.93 1.915.93s1.359-.326 1.915-.93c.557-.605.971-1.457 1.184-2.435.213-.979.213-2.033 0-3.011-.213-.978-.627-1.831-1.184-2.435-.556-.605-1.227-.931-1.915-.931zm16.533.131c-.69-.003-1.362.321-1.921.925-.558.604-.974 1.458-1.188 2.438-.213.98-.213 2.036 0 3.016.214.98.63 1.834 1.188 2.438.559.604 1.231.928 1.921.925.863 0 1.693-.514 2.304-1.427.61-.913.954-2.153.954-3.444s-.344-2.531-.954-3.444c-.611-.913-1.441-1.427-2.304-1.427zm-7.965 18.379c-.688 0-1.358.325-1.915.93-.557.605-.971 1.457-1.184 2.435-.212.979-.212 2.033 0 3.011.213.978.627 1.831 1.184 2.435.557.605 1.227.93 1.915.93s1.359-.325 1.915-.93c.557-.604.971-1.457 1.184-2.435.212-.978.212-2.032 0-3.011-.213-.978-.627-1.83-1.184-2.435-.556-.605-1.227-.93-1.915-.93z" fill="#24221c" fill-opacity=".99939"/><path d="M1612.387 107.47883s.15-46.162.1-62.538c-.049-16.377-.604-42.083 25.518-42.712 26.122.484 25.325 26.344 26.127 42.068.803 15.723.41 63 .41 63z" fill="#abc837"/><path d="M1629.438 31.51183c-.688 0-1.358.326-1.915.931-.557.604-.971 1.457-1.184 2.435-.212.978-.212 2.032 0 3.011.213.978.627 1.83 1.184 2.435.557.604 1.227.93 1.915.93s1.359-.326 1.915-.93c.557-.605.971-1.457 1.184-2.435.213-.979.213-2.033 0-3.011-.213-.978-.627-1.831-1.184-2.435-.556-.605-1.227-.931-1.915-.931zm16.533.131c-.69-.003-1.362.321-1.921.925-.558.604-.974 1.458-1.188 2.438-.213.98-.213 2.036 0 3.016.214.98.63 1.834 1.188 2.438.559.604 1.231.928 1.921.925.863 0 1.693-.514 2.304-1.427.61-.913.954-2.153.954-3.444s-.344-2.531-.954-3.444c-.611-.913-1.441-1.427-2.304-1.427zm-7.965 18.379c-.688 0-1.358.325-1.915.93-.557.605-.971 1.457-1.184 2.435-.212.979-.212 2.033 0 3.011.213.978.627 1.831 1.184 2.435.557.605 1.227.93 1.915.93s1.359-.325 1.915-.93c.557-.604.971-1.457 1.184-2.435.212-.978.212-2.032 0-3.011-.213-.978-.627-1.83-1.184-2.435-.556-.605-1.227-.93-1.915-.93z" fill="#24221c"/><path d="M1664.387 106.95378s.15-46.162.1-62.538c-.049-16.377-.604-42.083 25.518-42.712 26.122.484 25.325 26.344 26.127 42.068.803 15.723.41 63 .41 63z" fill="#abc837"/><path d="M1681.438 30.98678c-.688 0-1.358.326-1.915.931-.557.604-.971 1.457-1.184 2.435-.212.978-.212 2.032 0 3.011.213.978.627 1.83 1.184 2.435.557.604 1.227.93 1.915.93s1.359-.326 1.915-.93c.557-.605.971-1.457 1.184-2.435.213-.979.213-2.033 0-3.011-.213-.978-.627-1.831-1.184-2.435-.556-.605-1.227-.931-1.915-.931zm16.533.131c-.69-.003-1.362.321-1.921.925-.558.604-.974 1.458-1.188 2.438-.213.98-.213 2.036 0 3.016.214.98.63 1.834 1.188 2.438.559.604 1.231.928 1.921.925.863 0 1.693-.514 2.304-1.427.61-.913.954-2.153.954-3.444s-.344-2.531-.954-3.444c-.611-.913-1.441-1.427-2.304-1.427zm-7.965 18.379c-.688 0-1.358.325-1.915.93-.557.605-.971 1.457-1.184 2.435-.212.979-.212 2.033 0 3.011.213.978.627 1.831 1.184 2.435.557.605 1.227.93 1.915.93s1.359-.325 1.915-.93c.557-.604.971-1.457 1.184-2.435.212-.978.212-2.032 0-3.011-.213-.978-.627-1.83-1.184-2.435-.556-.605-1.227-.93-1.915-.93z" fill="#24221c"/><path d="M1716.387 106.541072s.15-46.162.1-62.538c-.049-16.377-.604-42.083 25.518-42.712 26.122.484 25.325 26.344 26.127 42.068.803 15.723.41 63 .41 63z" fill="#abc837"/><path d="M1733.438 30.574072c-.688 0-1.358.326-1.915.931-.557.604-.971 1.457-1.184 2.435-.212.978-.212 2.032 0 3.011.213.978.627 1.83 1.184 2.435.557.604 1.227.93 1.915.93s1.359-.326 1.915-.93c.557-.605.971-1.457 1.184-2.435.213-.979.213-2.033 0-3.011-.213-.978-.627-1.831-1.184-2.435-.556-.605-1.227-.931-1.915-.931zm16.533.131c-.69-.003-1.362.321-1.921.925-.558.604-.974 1.458-1.188 2.438-.213.98-.213 2.036 0 3.016.214.98.63 1.834 1.188 2.438.559.604 1.231.928 1.921.925.863 0 1.693-.514 2.304-1.427.61-.913.954-2.153.954-3.444s-.344-2.531-.954-3.444c-.611-.913-1.441-1.427-2.304-1.427zm-7.965 18.379c-.688 0-1.358.325-1.915.93-.557.605-.971 1.457-1.184 2.435-.212.979-.212 2.033 0 3.011.213.978.627 1.831 1.184 2.435.557.605 1.227.93 1.915.93s1.359-.325 1.915-.93c.557-.604.971-1.457 1.184-2.435.212-.978.212-2.032 0-3.011-.213-.978-.627-1.83-1.184-2.435-.556-.605-1.227-.93-1.915-.93z" fill="#24221c"/><path d="M1768.387 106.232729s.15-46.162.1-62.538c-.049-16.377-.604-42.083 25.518-42.712 26.122.484 25.325 26.344 26.127 42.068.803 15.723.41 63 .41 63z" fill="#abc837"/><path d="M1785.438 30.265729c-.688 0-1.358.326-1.915.931-.557.604-.971 1.457-1.184 2.435-.212.978-.212 2.032 0 3.011.213.978.627 1.83 1.184 2.435.557.604 1.227.93 1.915.93s1.359-.326 1.915-.93c.557-.605.971-1.457 1.184-2.435.213-.979.213-2.033 0-3.011-.213-.978-.627-1.831-1.184-2.435-.556-.605-1.227-.931-1.915-.931zm16.533.131c-.69-.003-1.362.321-1.921.925-.558.604-.974 1.458-1.188 2.438-.213.98-.213 2.036 0 3.016.214.98.63 1.834 1.188 2.438.559.604 1.231.928 1.921.925.863 0 1.693-.514 2.304-1.427.61-.913.954-2.153.954-3.444s-.344-2.531-.954-3.444c-.611-.913-1.441-1.427-2.304-1.427zm-7.965 18.379c-.688 0-1.358.325-1.915.93-.557.605-.971 1.457-1.184 2.435-.212.979-.212 2.033 0 3.011.213.978.627 1.831 1.184 2.435.557.605 1.227.93 1.915.93s1.359-.325 1.915-.93c.557-.604.971-1.457 1.184-2.435.212-.978.212-2.032 0-3.011-.213-.978-.627-1.83-1.184-2.435-.556-.605-1.227-.93-1.915-.93z" fill="#24221c"/><path d="M1820.387 106.021623s.15-46.162.1-62.538c-.049-16.377-.604-42.083 25.518-42.712 26.122.484 25.325 26.344 26.127 42.068.803 15.723.41 63 .41 63z" fill="#abc837"/><path d="M1837.438 30.054623c-.688 0-1.358.326-1.915.931-.557.604-.971 1.457-1.184 2.435-.212.978-.212 2.032 0 3.011.213.978.627 1.83 1.184 2.435.557.604 1.227.93 1.915.93s1.359-.326 1.915-.93c.557-.605.971-1.457 1.184-2.435.213-.979.213-2.033 0-3.011-.213-.978-.627-1.831-1.184-2.435-.556-.605-1.227-.931-1.915-.931zm16.533.131c-.69-.003-1.362.321-1.921.925-.558.604-.974 1.458-1.188 2.438-.213.98-.213 2.036 0 3.016.214.98.63 1.834 1.188 2.438.559.604 1.231.928 1.921.925.863 0 1.693-.514 2.304-1.427.61-.913.954-2.153.954-3.444s-.344-2.531-.954-3.444c-.611-.913-1.441-1.427-2.304-1.427zm-7.965 18.379c-.688 0-1.358.325-1.915.93-.557.605-.971 1.457-1.184 2.435-.212.979-.212 2.033 0 3.011.213.978.627 1.831 1.184 2.435.557.605 1.227.93 1.915.93s1.359-.325 1.915-.93c.557-.604.971-1.457 1.184-2.435.212-.978.212-2.032 0-3.011-.213-.978-.627-1.83-1.184-2.435-.556-.605-1.227-.93-1.915-.93z" fill="#24221c"/><path d="M1872.387 105.901364s.15-46.162.1-62.538c-.049-16.377-.604-42.083 25.518-42.712 26.122.484 25.325 26.344 26.127 42.068.803 15.723.41 63 .41 63z" fill="#abc837"/><path d="M1889.438 29.934364c-.688 0-1.358.326-1.915.931-.557.604-.971 1.457-1.184 2.435-.212.978-.212 2.032 0 3.011.213.978.627 1.83 1.184 2.435.557.604 1.227.93 1.915.93s1.359-.326 1.915-.93c.557-.605.971-1.457 1.184-2.435.213-.979.213-2.033 0-3.011-.213-.978-.627-1.831-1.184-2.435-.556-.605-1.227-.931-1.915-.931zm16.533.131c-.69-.003-1.362.321-1.921.925-.558.604-.974 1.458-1.188 2.438-.213.98-.213 2.036 0 3.016.214.98.63 1.834 1.188 2.438.559.604 1.231.928 1.921.925.863 0 1.693-.514 2.304-1.427.61-.913.954-2.153.954-3.444s-.344-2.531-.954-3.444c-.611-.913-1.441-1.427-2.304-1.427zm-7.965 18.379c-.688 0-1.358.325-1.915.93-.557.605-.971 1.457-1.184 2.435-.212.979-.212 2.033 0 3.011.213.978.627 1.831 1.184 2.435.557.605 1.227.93 1.915.93s1.359-.325 1.915-.93c.557-.604.971-1.457 1.184-2.435.212-.978.212-2.032 0-3.011-.213-.978-.627-1.83-1.184-2.435-.556-.605-1.227-.93-1.915-.93z" fill="#24221c"/><path d="M1924.387 105.866s.15-46.162.1-62.538c-.049-16.377-.604-42.083 25.518-42.712 26.122.484 25.325 26.344 26.127 42.068.803 15.723.41 63 .41 63z" fill="#abc837"/><path d="M1941.438 29.899c-.688 0-1.358.326-1.915.931-.557.604-.971 1.457-1.184 2.435-.212.978-.212 2.032 0 3.011.213.978.627 1.83 1.184 2.435.557.604 1.227.93 1.915.93s1.359-.326 1.915-.93c.557-.605.971-1.457 1.184-2.435.213-.979.213-2.033 0-3.011-.213-.978-.627-1.831-1.184-2.435-.556-.605-1.227-.931-1.915-.931zm16.533.131c-.69-.003-1.362.321-1.921.925-.558.604-.974 1.458-1.188 2.438-.213.98-.213 2.036 0 3.016.214.98.63 1.834 1.188 2.438.559.604 1.231.928 1.921.925.863 0 1.693-.514 2.304-1.427.61-.913.954-2.153.954-3.444s-.344-2.531-.954-3.444c-.611-.913-1.441-1.427-2.304-1.427zm-7.965 18.379c-.688 0-1.358.325-1.915.93-.557.605-.971 1.457-1.184 2.435-.212.979-.212 2.033 0 3.011.213.978.627 1.831 1.184 2.435.557.605 1.227.93 1.915.93s1.359-.325 1.915-.93c.557-.604.971-1.457 1.184-2.435.212-.978.212-2.032 0-3.011-.213-.978-.627-1.83-1.184-2.435-.556-.605-1.227-.93-1.915-.93z" fill="#24221c"/><path d="M1976.387 105.866s.15-46.162.1-62.538c-.049-16.377-.604-42.083 25.518-42.712 26.122.484 25.325 26.344 26.127 42.068.803 15.723.41 63 .41 63z" fill="#abc837"/><path d="M1993.438 29.899c-.688 0-1.358.326-1.915.931-.557.604-.971 1.457-1.184 2.435-.212.978-.212 2.032 0 3.011.213.978.627 1.83 1.184 2.435.557.604 1.227.93 1.915.93s1.359-.326 1.915-.93c.557-.605.971-1.457 1.184-2.435.213-.979.213-2.033 0-3.011-.213-.978-.627-1.831-1.184-2.435-.556-.605-1.227-.931-1.915-.931zm16.533.131c-.69-.003-1.362.321-1.921.925-.558.604-.974 1.458-1.188 2.438-.213.98-.213 2.036 0 3.016.214.98.63 1.834 1.188 2.438.559.604 1.231.928 1.921.925.863 0 1.693-.514 2.304-1.427.61-.913.954-2.153.954-3.444s-.344-2.531-.954-3.444c-.611-.913-1.441-1.427-2.304-1.427zm-7.965 18.379c-.688 0-1.358.325-1.915.93-.557.605-.971 1.457-1.184 2.435-.212.979-.212 2.033 0 3.011.213.978.627 1.831 1.184 2.435.557.605 1.227.93 1.915.93s1.359-.325 1.915-.93c.557-.604.971-1.457 1.184-2.435.212-.978.212-2.032 0-3.011-.213-.978-.627-1.83-1.184-2.435-.556-.605-1.227-.93-1.915-.93z" fill="#24221c"/><path d="M2028.387 105.866s.15-46.162.1-62.538c-.049-16.377-.604-42.083 25.518-42.712 26.122.484 25.325 26.344 26.127 42.068.803 15.723.41 63 .41 63z" fill="#abc837"/><path d="M2045.438 29.899c-.688 0-1.358.326-1.915.931-.557.604-.971 1.457-1.184 2.435-.212.978-.212 2.032 0 3.011.213.978.627 1.83 1.184 2.435.557.604 1.227.93 1.915.93s1.359-.326 1.915-.93c.557-.605.971-1.457 1.184-2.435.213-.979.213-2.033 0-3.011-.213-.978-.627-1.831-1.184-2.435-.556-.605-1.227-.931-1.915-.931zm16.533.131c-.69-.003-1.362.321-1.921.925-.558.604-.974 1.458-1.188 2.438-.213.98-.213 2.036 0 3.016.214.98.63 1.834 1.188 2.438.559.604 1.231.928 1.921.925.863 0 1.693-.514 2.304-1.427.61-.913.954-2.153.954-3.444s-.344-2.531-.954-3.444c-.611-.913-1.441-1.427-2.304-1.427zm-7.965 18.379c-.688 0-1.358.325-1.915.93-.557.605-.971 1.457-1.184 2.435-.212.979-.212 2.033 0 3.011.213.978.627 1.831 1.184 2.435.557.605 1.227.93 1.915.93s1.359-.325 1.915-.93c.557-.604.971-1.457 1.184-2.435.212-.978.212-2.032 0-3.011-.213-.978-.627-1.83-1.184-2.435-.556-.605-1.227-.93-1.915-.93z" fill="#24221c"/><path d="M2080.387 105.866s.15-46.162.1-62.538c-.049-16.377-.604-42.083 25.518-42.712 26.122.484 25.325 26.344 26.127 42.068.803 15.723.41 63 .41 63z" fill="#abc837"/><path d="M2097.438 29.899c-.688 0-1.358.326-1.915.931-.557.604-.971 1.457-1.184 2.435-.212.978-.212 2.032 0 3.011.213.978.627 1.83 1.184 2.435.557.604 1.227.93 1.915.93s1.359-.326 1.915-.93c.557-.605.971-1.457 1.184-2.435.213-.979.213-2.033 0-3.011-.213-.978-.627-1.831-1.184-2.435-.556-.605-1.227-.931-1.915-.931zm16.533.131c-.69-.003-1.362.321-1.921.925-.558.604-.974 1.458-1.188 2.438-.213.98-.213 2.036 0 3.016.214.98.63 1.834 1.188 2.438.559.604 1.231.928 1.921.925.863 0 1.693-.514 2.304-1.427.61-.913.954-2.153.954-3.444s-.344-2.531-.954-3.444c-.611-.913-1.441-1.427-2.304-1.427zm-7.965 18.379c-.688 0-1.358.325-1.915.93-.557.605-.971 1.457-1.184 2.435-.212.979-.212 2.033 0 3.011.213.978.627 1.831 1.184 2.435.557.605 1.227.93 1.915.93s1.359-.325 1.915-.93c.557-.604.971-1.457 1.184-2.435.212-.978.212-2.032 0-3.011-.213-.978-.627-1.83-1.184-2.435-.556-.605-1.227-.93-1.915-.93z" fill="#24221c"/><path d="M2132.387 105.866s.15-46.162.1-62.538c-.049-16.377-.604-42.083 25.518-42.712 26.122.484 25.325 26.344 26.127 42.068.803 15.723.41 63 .41 63z" fill="#abc837"/><path d="M2149.438 29.899c-.688 0-1.358.326-1.915.931-.557.604-.971 1.457-1.184 2.435-.212.978-.212 2.032 0 3.011.213.978.627 1.83 1.184 2.435.557.604 1.227.93 1.915.93s1.359-.326 1.915-.93c.557-.605.971-1.457 1.184-2.435.213-.979.213-2.033 0-3.011-.213-.978-.627-1.831-1.184-2.435-.556-.605-1.227-.931-1.915-.931zm16.533.131c-.69-.003-1.362.321-1.921.925-.558.604-.974 1.458-1.188 2.438-.213.98-.213 2.036 0 3.016.214.98.63 1.834 1.188 2.438.559.604 1.231.928 1.921.925.863 0 1.693-.514 2.304-1.427.61-.913.954-2.153.954-3.444s-.344-2.531-.954-3.444c-.611-.913-1.441-1.427-2.304-1.427zm-7.965 18.379c-.688 0-1.358.325-1.915.93-.557.605-.971 1.457-1.184 2.435-.212.979-.212 2.033 0 3.011.213.978.627 1.831 1.184 2.435.557.605 1.227.93 1.915.93s1.359-.325 1.915-.93c.557-.604.971-1.457 1.184-2.435.212-.978.212-2.032 0-3.011-.213-.978-.627-1.83-1.184-2.435-.556-.605-1.227-.93-1.915-.93z" fill="#24221c"/><path d="M2184.387 105.866s.15-46.162.1-62.538c-.049-16.377-.604-42.083 25.518-42.712 26.122.484 25.325 26.344 26.127 42.068.803 15.723.41 63 .41 63z" fill="#abc837"/><path d="M2201.438 29.899c-.688 0-1.358.326-1.915.931-.557.604-.971 1.457-1.184 2.435-.212.978-.212 2.032 0 3.011.213.978.627 1.83 1.184 2.435.557.604 1.227.93 1.915.93s1.359-.326 1.915-.93c.557-.605.971-1.457 1.184-2.435.213-.979.213-2.033 0-3.011-.213-.978-.627-1.831-1.184-2.435-.556-.605-1.227-.931-1.915-.931zm16.533.131c-.69-.003-1.362.321-1.921.925-.558.604-.974 1.458-1.188 2.438-.213.98-.213 2.036 0 3.016.214.98.63 1.834 1.188 2.438.559.604 1.231.928 1.921.925.863 0 1.693-.514 2.304-1.427.61-.913.954-2.153.954-3.444s-.344-2.531-.954-3.444c-.611-.913-1.441-1.427-2.304-1.427zm-7.965 18.379c-.688 0-1.358.325-1.915.93-.557.605-.971 1.457-1.184 2.435-.212.979-.212 2.033 0 3.011.213.978.627 1.831 1.184 2.435.557.605 1.227.93 1.915.93s1.359-.325 1.915-.93c.557-.604.971-1.457 1.184-2.435.212-.978.212-2.032 0-3.011-.213-.978-.627-1.83-1.184-2.435-.556-.605-1.227-.93-1.915-.93z" fill="#24221c"/><path d="M2236.387 105.866s.15-46.162.1-62.538c-.049-16.377-.604-42.083 25.518-42.712 26.122.484 25.325 26.344 26.127 42.068.803 15.723.41 63 .41 63z" fill="#abc837"/><path d="M2253.438 29.899c-.688 0-1.358.326-1.915.931-.557.604-.971 1.457-1.184 2.435-.212.978-.212 2.032 0 3.011.213.978.627 1.83 1.184 2.435.557.604 1.227.93 1.915.93s1.359-.326 1.915-.93c.557-.605.971-1.457 1.184-2.435.213-.979.213-2.033 0-3.011-.213-.978-.627-1.831-1.184-2.435-.556-.605-1.227-.931-1.915-.931zm16.533.131c-.69-.003-1.362.321-1.921.925-.558.604-.974 1.458-1.188 2.438-.213.98-.213 2.036 0 3.016.214.98.63 1.834 1.188 2.438.559.604 1.231.928 1.921.925.863 0 1.693-.514 2.304-1.427.61-.913.954-2.153.954-3.444s-.344-2.531-.954-3.444c-.611-.913-1.441-1.427-2.304-1.427zm-7.965 18.379c-.688 0-1.358.325-1.915.93-.557.605-.971 1.457-1.184 2.435-.212.979-.212 2.033 0 3.011.213.978.627 1.831 1.184 2.435.557.605 1.227.93 1.915.93s1.359-.325 1.915-.93c.557-.604.971-1.457 1.184-2.435.212-.978.212-2.032 0-3.011-.213-.978-.627-1.83-1.184-2.435-.556-.605-1.227-.93-1.915-.93z" fill="#24221c"/><path d="M2288.387 105.866s.15-46.162.1-62.538c-.049-16.377-.604-42.083 25.518-42.712 26.122.484 25.325 26.344 26.127 42.068.803 15.723.41 63 .41 63z" fill="#abc837"/><path d="M2305.438 29.899c-.688 0-1.358.326-1.915.931-.557.604-.971 1.457-1.184 2.435-.212.978-.212 2.032 0 3.011.213.978.627 1.83 1.184 2.435.557.604 1.227.93 1.915.93s1.359-.326 1.915-.93c.557-.605.971-1.457 1.184-2.435.213-.979.213-2.033 0-3.011-.213-.978-.627-1.831-1.184-2.435-.556-.605-1.227-.931-1.915-.931zm16.533.131c-.69-.003-1.362.321-1.921.925-.558.604-.974 1.458-1.188 2.438-.213.98-.213 2.036 0 3.016.214.98.63 1.834 1.188 2.438.559.604 1.231.928 1.921.925.863 0 1.693-.514 2.304-1.427.61-.913.954-2.153.954-3.444s-.344-2.531-.954-3.444c-.611-.913-1.441-1.427-2.304-1.427zm-7.965 18.379c-.688 0-1.358.325-1.915.93-.557.605-.971 1.457-1.184 2.435-.212.979-.212 2.033 0 3.011.213.978.627 1.831 1.184 2.435.557.605 1.227.93 1.915.93s1.359-.325 1.915-.93c.557-.604.971-1.457 1.184-2.435.212-.978.212-2.032 0-3.011-.213-.978-.627-1.83-1.184-2.435-.556-.605-1.227-.93-1.915-.93z" fill="#24221c"/><path d="M2340.387 105.866s.15-46.162.1-62.538c-.049-16.377-.604-42.083 25.518-42.712 26.122.484 25.325 26.344 26.127 42.068.803 15.723.41 63 .41 63z" fill="#abc837"/><path d="M2357.438 29.899c-.688 0-1.358.326-1.915.931-.557.604-.971 1.457-1.184 2.435-.212.978-.212 2.032 0 3.011.213.978.627 1.83 1.184 2.435.557.604 1.227.93 1.915.93s1.359-.326 1.915-.93c.557-.605.971-1.457 1.184-2.435.213-.979.213-2.033 0-3.011-.213-.978-.627-1.831-1.184-2.435-.556-.605-1.227-.931-1.915-.931zm16.533.131c-.69-.003-1.362.321-1.921.925-.558.604-.974 1.458-1.188 2.438-.213.98-.213 2.036 0 3.016.214.98.63 1.834 1.188 2.438.559.604 1.231.928 1.921.925.863 0 1.693-.514 2.304-1.427.61-.913.954-2.153.954-3.444s-.344-2.531-.954-3.444c-.611-.913-1.441-1.427-2.304-1.427zm-7.965 18.379c-.688 0-1.358.325-1.915.93-.557.605-.971 1.457-1.184 2.435-.212.979-.212 2.033 0 3.011.213.978.627 1.831 1.184 2.435.557.605 1.227.93 1.915.93s1.359-.325 1.915-.93c.557-.604.971-1.457 1.184-2.435.212-.978.212-2.032 0-3.011-.213-.978-.627-1.83-1.184-2.435-.556-.605-1.227-.93-1.915-.93z" fill="#24221c"/><path d="M2392.387 105.866s.15-46.162.1-62.538c-.049-16.377-.604-42.083 25.518-42.712 26.122.484 25.325 26.344 26.127 42.068.803 15.723.41 63 .41 63z" fill="#abc837"/><path d="M2409.438 29.899c-.688 0-1.358.326-1.915.931-.557.604-.971 1.457-1.184 2.435-.212.978-.212 2.032 0 3.011.213.978.627 1.83 1.184 2.435.557.604 1.227.93 1.915.93s1.359-.326 1.915-.93c.557-.605.971-1.457 1.184-2.435.213-.979.213-2.033 0-3.011-.213-.978-.627-1.831-1.184-2.435-.556-.605-1.227-.931-1.915-.931zm16.533.131c-.69-.003-1.362.321-1.921.925-.558.604-.974 1.458-1.188 2.438-.213.98-.213 2.036 0 3.016.214.98.63 1.834 1.188 2.438.559.604 1.231.928 1.921.925.863 0 1.693-.514 2.304-1.427.61-.913.954-2.153.954-3.444s-.344-2.531-.954-3.444c-.611-.913-1.441-1.427-2.304-1.427zm-7.965 18.379c-.688 0-1.358.325-1.915.93-.557.605-.971 1.457-1.184 2.435-.212.979-.212 2.033 0 3.011.213.978.627 1.831 1.184 2.435.557.605 1.227.93 1.915.93s1.359-.325 1.915-.93c.557-.604.971-1.457 1.184-2.435.212-.978.212-2.032 0-3.011-.213-.978-.627-1.83-1.184-2.435-.556-.605-1.227-.93-1.915-.93z" fill="#24221c"/><path d="M2444.387 105.866s.15-46.162.1-62.538c-.049-16.377-.604-42.083 25.518-42.712 26.122.484 25.325 26.344 26.127 42.068.803 15.723.41 63 .41 63z" fill="#abc837"/><path d="M2461.438 29.899c-.688 0-1.358.326-1.915.931-.557.604-.971 1.457-1.184 2.435-.212.978-.212 2.032 0 3.011.213.978.627 1.83 1.184 2.435.557.604 1.227.93 1.915.93s1.359-.326 1.915-.93c.557-.605.971-1.457 1.184-2.435.213-.979.213-2.033 0-3.011-.213-.978-.627-1.831-1.184-2.435-.556-.605-1.227-.931-1.915-.931zm16.533.131c-.69-.003-1.362.321-1.921.925-.558.604-.974 1.458-1.188 2.438-.213.98-.213 2.036 0 3.016.214.98.63 1.834 1.188 2.438.559.604 1.231.928 1.921.925.863 0 1.693-.514 2.304-1.427.61-.913.954-2.153.954-3.444s-.344-2.531-.954-3.444c-.611-.913-1.441-1.427-2.304-1.427zm-7.965 18.379c-.688 0-1.358.325-1.915.93-.557.605-.971 1.457-1.184 2.435-.212.979-.212 2.033 0 3.011.213.978.627 1.831 1.184 2.435.557.605 1.227.93 1.915.93s1.359-.325 1.915-.93c.557-.604.971-1.457 1.184-2.435.212-.978.212-2.032 0-3.011-.213-.978-.627-1.83-1.184-2.435-.556-.605-1.227-.93-1.915-.93z" fill="#24221c"/><path d="M2496.387 105.866s.15-46.162.1-62.538c-.049-16.377-.604-42.083 25.518-42.712 26.122.484 25.325 26.344 26.127 42.068.803 15.723.41 63 .41 63z" fill="#abc837"/><path d="M2513.438 29.899c-.688 0-1.358.326-1.915.931-.557.604-.971 1.457-1.184 2.435-.212.978-.212 2.032 0 3.011.213.978.627 1.83 1.184 2.435.557.604 1.227.93 1.915.93s1.359-.326 1.915-.93c.557-.605.971-1.457 1.184-2.435.213-.979.213-2.033 0-3.011-.213-.978-.627-1.831-1.184-2.435-.556-.605-1.227-.931-1.915-.931zm16.533.131c-.69-.003-1.362.321-1.921.925-.558.604-.974 1.458-1.188 2.438-.213.98-.213 2.036 0 3.016.214.98.63 1.834 1.188 2.438.559.604 1.231.928 1.921.925.863 0 1.693-.514 2.304-1.427.61-.913.954-2.153.954-3.444s-.344-2.531-.954-3.444c-.611-.913-1.441-1.427-2.304-1.427zm-7.965 18.379c-.688 0-1.358.325-1.915.93-.557.605-.971 1.457-1.184 2.435-.212.979-.212 2.033 0 3.011.213.978.627 1.831 1.184 2.435.557.605 1.227.93 1.915.93s1.359-.325 1.915-.93c.557-.604.971-1.457 1.184-2.435.212-.978.212-2.032 0-3.011-.213-.978-.627-1.83-1.184-2.435-.556-.605-1.227-.93-1.915-.93z" fill="#24221c"/><path d="M2548.387 105.866s.15-46.162.1-62.538c-.049-16.377-.604-42.083 25.518-42.712 26.122.484 25.325 26.344 26.127 42.068.803 15.723.41 63 .41 63z" fill="#abc837"/><path d="M2565.438 29.899c-.688 0-1.358.326-1.915.931-.557.604-.971 1.457-1.184 2.435-.212.978-.212 2.032 0 3.011.213.978.627 1.83 1.184 2.435.557.604 1.227.93 1.915.93s1.359-.326 1.915-.93c.557-.605.971-1.457 1.184-2.435.213-.979.213-2.033 0-3.011-.213-.978-.627-1.831-1.184-2.435-.556-.605-1.227-.931-1.915-.931zm16.533.131c-.69-.003-1.362.321-1.921.925-.558.604-.974 1.458-1.188 2.438-.213.98-.213 2.036 0 3.016.214.98.63 1.834 1.188 2.438.559.604 1.231.928 1.921.925.863 0 1.693-.514 2.304-1.427.61-.913.954-2.153.954-3.444s-.344-2.531-.954-3.444c-.611-.913-1.441-1.427-2.304-1.427zm-7.965 18.379c-.688 0-1.358.325-1.915.93-.557.605-.971 1.457-1.184 2.435-.212.979-.212 2.033 0 3.011.213.978.627 1.831 1.184 2.435.557.605 1.227.93 1.915.93s1.359-.325 1.915-.93c.557-.604.971-1.457 1.184-2.435.212-.978.212-2.032 0-3.011-.213-.978-.627-1.83-1.184-2.435-.556-.605-1.227-.93-1.915-.93z" fill="#24221c"/><path d="M2600.387 105.866s.15-46.162.1-62.538c-.049-16.377-.604-42.083 25.518-42.712 26.122.484 25.325 26.344 26.127 42.068.803 15.723.41 63 .41 63z" fill="#abc837"/><path d="M2617.438 29.899c-.688 0-1.358.326-1.915.931-.557.604-.971 1.457-1.184 2.435-.212.978-.212 2.032 0 3.011.213.978.627 1.83 1.184 2.435.557.604 1.227.93 1.915.93s1.359-.326 1.915-.93c.557-.605.971-1.457 1.184-2.435.213-.979.213-2.033 0-3.011-.213-.978-.627-1.831-1.184-2.435-.556-.605-1.227-.931-1.915-.931zm16.533.131c-.69-.003-1.362.321-1.921.925-.558.604-.974 1.458-1.188 2.438-.213.98-.213 2.036 0 3.016.214.98.63 1.834 1.188 2.438.559.604 1.231.928 1.921.925.863 0 1.693-.514 2.304-1.427.61-.913.954-2.153.954-3.444s-.344-2.531-.954-3.444c-.611-.913-1.441-1.427-2.304-1.427zm-7.965 18.379c-.688 0-1.358.325-1.915.93-.557.605-.971 1.457-1.184 2.435-.212.979-.212 2.033 0 3.011.213.978.627 1.831 1.184 2.435.557.605 1.227.93 1.915.93s1.359-.325 1.915-.93c.557-.604.971-1.457 1.184-2.435.212-.978.212-2.032 0-3.011-.213-.978-.627-1.83-1.184-2.435-.556-.605-1.227-.93-1.915-.93z" fill="#24221c"/><path d="M2652.387 105.866s.15-46.162.1-62.538c-.049-16.377-.604-42.083 25.518-42.712 26.122.484 25.325 26.344 26.127 42.068.803 15.723.41 63 .41 63z" fill="#abc837"/><path d="M2669.438 29.899c-.688 0-1.358.326-1.915.931-.557.604-.971 1.457-1.184 2.435-.212.978-.212 2.032 0 3.011.213.978.627 1.83 1.184 2.435.557.604 1.227.93 1.915.93s1.359-.326 1.915-.93c.557-.605.971-1.457 1.184-2.435.213-.979.213-2.033 0-3.011-.213-.978-.627-1.831-1.184-2.435-.556-.605-1.227-.931-1.915-.931zm16.533.131c-.69-.003-1.362.321-1.921.925-.558.604-.974 1.458-1.188 2.438-.213.98-.213 2.036 0 3.016.214.98.63 1.834 1.188 2.438.559.604 1.231.928 1.921.925.863 0 1.693-.514 2.304-1.427.61-.913.954-2.153.954-3.444s-.344-2.531-.954-3.444c-.611-.913-1.441-1.427-2.304-1.427zm-7.965 18.379c-.688 0-1.358.325-1.915.93-.557.605-.971 1.457-1.184 2.435-.212.979-.212 2.033 0 3.011.213.978.627 1.831 1.184 2.435.557.605 1.227.93 1.915.93s1.359-.325 1.915-.93c.557-.604.971-1.457 1.184-2.435.212-.978.212-2.032 0-3.011-.213-.978-.627-1.83-1.184-2.435-.556-.605-1.227-.93-1.915-.93z" fill="#24221c"/><path d="M2704.387 105.866s.15-46.162.1-62.538c-.049-16.377-.604-42.083 25.518-42.712 26.122.484 25.325 26.344 26.127 42.068.803 15.723.41 63 .41 63z" fill="#abc837"/><path d="M2721.438 29.899c-.688 0-1.358.326-1.915.931-.557.604-.971 1.457-1.184 2.435-.212.978-.212 2.032 0 3.011.213.978.627 1.83 1.184 2.435.557.604 1.227.93 1.915.93s1.359-.326 1.915-.93c.557-.605.971-1.457 1.184-2.435.213-.979.213-2.033 0-3.011-.213-.978-.627-1.831-1.184-2.435-.556-.605-1.227-.931-1.915-.931zm16.533.131c-.69-.003-1.362.321-1.921.925-.558.604-.974 1.458-1.188 2.438-.213.98-.213 2.036 0 3.016.214.98.63 1.834 1.188 2.438.559.604 1.231.928 1.921.925.863 0 1.693-.514 2.304-1.427.61-.913.954-2.153.954-3.444s-.344-2.531-.954-3.444c-.611-.913-1.441-1.427-2.304-1.427zm-7.965 18.379c-.688 0-1.358.325-1.915.93-.557.605-.971 1.457-1.184 2.435-.212.979-.212 2.033 0 3.011.213.978.627 1.831 1.184 2.435.557.605 1.227.93 1.915.93s1.359-.325 1.915-.93c.557-.604.971-1.457 1.184-2.435.212-.978.212-2.032 0-3.011-.213-.978-.627-1.83-1.184-2.435-.556-.605-1.227-.93-1.915-.93z" fill="#24221c"/><g><path d="M2756.387 105.866s.15-46.162.1-62.538c-.049-16.377-.604-42.083 25.518-42.712 26.122.484 25.325 26.344 26.127 42.068.803 15.723.41 63 .41 63z" fill="#abc837"/><path d="M2773.438 29.899c-.688 0-1.358.326-1.915.931-.557.604-.971 1.457-1.184 2.435-.212.978-.212 2.032 0 3.011.213.978.627 1.83 1.184 2.435.557.604 1.227.93 1.915.93s1.359-.326 1.915-.93c.557-.605.971-1.457 1.184-2.435.213-.979.213-2.033 0-3.011-.213-.978-.627-1.831-1.184-2.435-.556-.605-1.227-.931-1.915-.931zm16.533.131c-.69-.003-1.362.321-1.921.925-.558.604-.974 1.458-1.188 2.438-.213.98-.213 2.036 0 3.016.214.98.63 1.834 1.188 2.438.559.604 1.231.928 1.921.925.863 0 1.693-.514 2.304-1.427.61-.913.954-2.153.954-3.444s-.344-2.531-.954-3.444c-.611-.913-1.441-1.427-2.304-1.427zm-7.965 18.379c-.688 0-1.358.325-1.915.93-.557.605-.971 1.457-1.184 2.435-.212.979-.212 2.033 0 3.011.213.978.627 1.831 1.184 2.435.557.605 1.227.93 1.915.93s1.359-.325 1.915-.93c.557-.604.971-1.457 1.184-2.435.212-.978.212-2.032 0-3.011-.213-.978-.627-1.83-1.184-2.435-.556-.605-1.227-.93-1.915-.93z" fill="#24221c"/></g><g><path d="M2808.387 105.866s.15-46.162.1-62.538c-.049-16.377-.604-42.083 25.518-42.712 26.122.484 25.325 26.344 26.127 42.068.803 15.723.41 63 .41 63z" fill="#abc837"/><path d="M2825.438 29.899c-.688 0-1.358.326-1.915.931-.557.604-.971 1.457-1.184 2.435-.212.978-.212 2.032 0 3.011.213.978.627 1.83 1.184 2.435.557.604 1.227.93 1.915.93s1.359-.326 1.915-.93c.557-.605.971-1.457 1.184-2.435.213-.979.213-2.033 0-3.011-.213-.978-.627-1.831-1.184-2.435-.556-.605-1.227-.931-1.915-.931zm16.533.131c-.69-.003-1.362.321-1.921.925-.558.604-.974 1.458-1.188 2.438-.213.98-.213 2.036 0 3.016.214.98.63 1.834 1.188 2.438.559.604 1.231.928 1.921.925.863 0 1.693-.514 2.304-1.427.61-.913.954-2.153.954-3.444s-.344-2.531-.954-3.444c-.611-.913-1.441-1.427-2.304-1.427zm-7.965 18.379c-.688 0-1.358.325-1.915.93-.557.605-.971 1.457-1.184 2.435-.212.979-.212 2.033 0 3.011.213.978.627 1.831 1.184 2.435.557.605 1.227.93 1.915.93s1.359-.325 1.915-.93c.557-.604.971-1.457 1.184-2.435.212-.978.212-2.032 0-3.011-.213-.978-.627-1.83-1.184-2.435-.556-.605-1.227-.93-1.915-.93z" fill="#24221c"/></g><g><path d="M2860.387 105.866018s.15-46.162.1-62.538c-.049-16.377-.604-42.083 25.518-42.712 26.122.484 25.325 26.344 26.127 42.068.803 15.723.41 63 .41 63z" fill="#abc837"/><path d="M2877.438 29.899018c-.688 0-1.358.326-1.915.931-.557.604-.971 1.457-1.184 2.435-.212.978-.212 2.032 0 3.011.213.978.627 1.83 1.184 2.435.557.604 1.227.93 1.915.93s1.359-.326 1.915-.93c.557-.605.971-1.457 1.184-2.435.213-.979.213-2.033 0-3.011-.213-.978-.627-1.831-1.184-2.435-.556-.605-1.227-.931-1.915-.931zm16.533.131c-.69-.003-1.362.321-1.921.925-.558.604-.974 1.458-1.188 2.438-.213.98-.213 2.036 0 3.016.214.98.63 1.834 1.188 2.438.559.604 1.231.928 1.921.925.863 0 1.693-.514 2.304-1.427.61-.913.954-2.153.954-3.444s-.344-2.531-.954-3.444c-.611-.913-1.441-1.427-2.304-1.427zm-7.965 18.379c-.688 0-1.358.325-1.915.93-.557.605-.971 1.457-1.184 2.435-.212.979-.212 2.033 0 3.011.213.978.627 1.831 1.184 2.435.557.605 1.227.93 1.915.93s1.359-.325 1.915-.93c.557-.604.971-1.457 1.184-2.435.212-.978.212-2.032 0-3.011-.213-.978-.627-1.83-1.184-2.435-.556-.605-1.227-.93-1.915-.93z" fill="#24221c" fill-opacity=".999999"/></g><g><path d="M2912.387 106.05889s.15-46.162.1-62.538c-.049-16.377-.604-42.083 25.518-42.712 26.122.484 25.325 26.344 26.127 42.068.803 15.723.41 63 .41 63z" fill="#abc837"/><path d="M2929.438 30.09189c-.688 0-1.358.326-1.915.931-.557.604-.971 1.457-1.184 2.435-.212.978-.212 2.032 0 3.011.213.978.627 1.83 1.184 2.435.557.604 1.227.93 1.915.93s1.359-.326 1.915-.93c.557-.605.971-1.457 1.184-2.435.213-.979.213-2.033 0-3.011-.213-.978-.627-1.831-1.184-2.435-.556-.605-1.227-.931-1.915-.931zm16.533.131c-.69-.003-1.362.321-1.921.925-.558.604-.974 1.458-1.188 2.438-.213.98-.213 2.036 0 3.016.214.98.63 1.834 1.188 2.438.559.604 1.231.928 1.921.925.863 0 1.693-.514 2.304-1.427.61-.913.954-2.153.954-3.444s-.344-2.531-.954-3.444c-.611-.913-1.441-1.427-2.304-1.427zm-7.965 18.379c-.688 0-1.358.325-1.915.93-.557.605-.971 1.457-1.184 2.435-.212.979-.212 2.033 0 3.011.213.978.627 1.831 1.184 2.435.557.605 1.227.93 1.915.93s1.359-.325 1.915-.93c.557-.604.971-1.457 1.184-2.435.212-.978.212-2.032 0-3.011-.213-.978-.627-1.83-1.184-2.435-.556-.605-1.227-.93-1.915-.93z" fill="#24221c" fill-opacity=".991632"/></g><g><path d="M2964.387 106.677806s.15-46.162.1-62.538c-.049-16.377-.604-42.083 25.518-42.712 26.122.484 25.325 26.344 26.127 42.068.803 15.723.41 63 .41 63z" fill="#abc837"/><path d="M2981.438 30.710806c-.688 0-1.358.326-1.915.931-.557.604-.971 1.457-1.184 2.435-.212.978-.212 2.032 0 3.011.213.978.627 1.83 1.184 2.435.557.604 1.227.93 1.915.93s1.359-.326 1.915-.93c.557-.605.971-1.457 1.184-2.435.213-.979.213-2.033 0-3.011-.213-.978-.627-1.831-1.184-2.435-.556-.605-1.227-.931-1.915-.931zm16.533.131c-.69-.003-1.362.321-1.921.925-.558.604-.974 1.458-1.188 2.438-.213.98-.213 2.036 0 3.016.214.98.63 1.834 1.188 2.438.559.604 1.231.928 1.921.925.863 0 1.693-.514 2.304-1.427.61-.913.954-2.153.954-3.444s-.344-2.531-.954-3.444c-.611-.913-1.441-1.427-2.304-1.427zm-7.965 18.379c-.688 0-1.358.325-1.915.93-.557.605-.971 1.457-1.184 2.435-.212.979-.212 2.033 0 3.011.213.978.627 1.831 1.184 2.435.557.605 1.227.93 1.915.93s1.359-.325 1.915-.93c.557-.604.971-1.457 1.184-2.435.212-.978.212-2.032 0-3.011-.213-.978-.627-1.83-1.184-2.435-.556-.605-1.227-.93-1.915-.93z" fill="#24221c" fill-opacity=".961944"/></g><g><path d="M3016.387 107.807913s.15-46.162.1-62.538c-.049-16.377-.604-42.083 25.518-42.712 26.122.484 25.325 26.344 26.127 42.068.803 15.723.41 63 .41 63z" fill="#abc837"/><path d="M3033.438 31.840913c-.688 0-1.358.326-1.915.931-.557.604-.971 1.457-1.184 2.435-.212.978-.212 2.032 0 3.011.213.978.627 1.83 1.184 2.435.557.604 1.227.93 1.915.93s1.359-.326 1.915-.93c.557-.605.971-1.457 1.184-2.435.213-.979.213-2.033 0-3.011-.213-.978-.627-1.831-1.184-2.435-.556-.605-1.227-.931-1.915-.931zm16.533.131c-.69-.003-1.362.321-1.921.925-.558.604-.974 1.458-1.188 2.438-.213.98-.213 2.036 0 3.016.214.98.63 1.834 1.188 2.438.559.604 1.231.928 1.921.925.863 0 1.693-.514 2.304-1.427.61-.913.954-2.153.954-3.444s-.344-2.531-.954-3.444c-.611-.913-1.441-1.427-2.304-1.427zm-7.965 18.379c-.688 0-1.358.325-1.915.93-.557.605-.971 1.457-1.184 2.435-.212.979-.212 2.033 0 3.011.213.978.627 1.831 1.184 2.435.557.605 1.227.93 1.915.93s1.359-.325 1.915-.93c.557-.604.971-1.457 1.184-2.435.212-.978.212-2.032 0-3.011-.213-.978-.627-1.83-1.184-2.435-.556-.605-1.227-.93-1.915-.93z" fill="#24221c" fill-opacity=".90053"/></g><g><path d="M3068.387 109.55679s.15-46.162.1-62.538c-.049-16.377-.604-42.083 25.518-42.712 26.122.484 25.325 26.344 26.127 42.068.803 15.723.41 63 .41 63z" fill="#abc837"/><path d="M3085.438 33.58979c-.688 0-1.358.326-1.915.931-.557.604-.971 1.457-1.184 2.435-.212.978-.212 2.032 0 3.011.213.978.627 1.83 1.184 2.435.557.604 1.227.93 1.915.93s1.359-.326 1.915-.93c.557-.605.971-1.457 1.184-2.435.213-.979.213-2.033 0-3.011-.213-.978-.627-1.831-1.184-2.435-.556-.605-1.227-.931-1.915-.931zm16.533.131c-.69-.003-1.362.321-1.921.925-.558.604-.974 1.458-1.188 2.438-.213.98-.213 2.036 0 3.016.214.98.63 1.834 1.188 2.438.559.604 1.231.928 1.921.925.863 0 1.693-.514 2.304-1.427.61-.913.954-2.153.954-3.444s-.344-2.531-.954-3.444c-.611-.913-1.441-1.427-2.304-1.427zm-7.965 18.379c-.688 0-1.358.325-1.915.93-.557.605-.971 1.457-1.184 2.435-.212.979-.212 2.033 0 3.011.213.978.627 1.831 1.184 2.435.557.605 1.227.93 1.915.93s1.359-.325 1.915-.93c.557-.604.971-1.457 1.184-2.435.212-.978.212-2.032 0-3.011-.213-.978-.627-1.83-1.184-2.435-.556-.605-1.227-.93-1.915-.93z" fill="#24221c" fill-opacity=".794406"/></g><g><path d="M3120.387 112.058515s.15-46.162.1-62.538c-.049-16.377-.604-42.083 25.518-42.712 26.122.484 25.325 26.344 26.127 42.068.803 15.723.41 63 .41 63z" fill="#abc837"/><path d="M3137.438 36.091515c-.688 0-1.358.326-1.915.931-.557.604-.971 1.457-1.184 2.435-.212.978-.212 2.032 0 3.011.213.978.627 1.83 1.184 2.435.557.604 1.227.93 1.915.93s1.359-.326 1.915-.93c.557-.605.971-1.457 1.184-2.435.213-.979.213-2.033 0-3.011-.213-.978-.627-1.831-1.184-2.435-.556-.605-1.227-.931-1.915-.931zm16.533.131c-.69-.003-1.362.321-1.921.925-.558.604-.974 1.458-1.188 2.438-.213.98-.213 2.036 0 3.016.214.98.63 1.834 1.188 2.438.559.604 1.231.928 1.921.925.863 0 1.693-.514 2.304-1.427.61-.913.954-2.153.954-3.444s-.344-2.531-.954-3.444c-.611-.913-1.441-1.427-2.304-1.427zm-7.965 18.379c-.688 0-1.358.325-1.915.93-.557.605-.971 1.457-1.184 2.435-.212.979-.212 2.033 0 3.011.213.978.627 1.831 1.184 2.435.557.605 1.227.93 1.915.93s1.359-.325 1.915-.93c.557-.604.971-1.457 1.184-2.435.212-.978.212-2.032 0-3.011-.213-.978-.627-1.83-1.184-2.435-.556-.605-1.227-.93-1.915-.93z" fill="#24221c" fill-opacity=".644794"/></g><g><path d="M3172.387 115.473122s.15-46.162.1-62.538c-.049-16.377-.604-42.083 25.518-42.712 26.122.484 25.325 26.344 26.127 42.068.803 15.723.41 63 .41 63z" fill="#abc837"/><path d="M3189.438 39.506122c-.688 0-1.358.326-1.915.931-.557.604-.971 1.457-1.184 2.435-.212.978-.212 2.032 0 3.011.213.978.627 1.83 1.184 2.435.557.604 1.227.93 1.915.93s1.359-.326 1.915-.93c.557-.605.971-1.457 1.184-2.435.213-.979.213-2.033 0-3.011-.213-.978-.627-1.831-1.184-2.435-.556-.605-1.227-.931-1.915-.931zm16.533.131c-.69-.003-1.362.321-1.921.925-.558.604-.974 1.458-1.188 2.438-.213.98-.213 2.036 0 3.016.214.98.63 1.834 1.188 2.438.559.604 1.231.928 1.921.925.863 0 1.693-.514 2.304-1.427.61-.913.954-2.153.954-3.444s-.344-2.531-.954-3.444c-.611-.913-1.441-1.427-2.304-1.427zm-7.965 18.379c-.688 0-1.358.325-1.915.93-.557.605-.971 1.457-1.184 2.435-.212.979-.212 2.033 0 3.011.213.978.627 1.831 1.184 2.435.557.605 1.227.93 1.915.93s1.359-.325 1.915-.93c.557-.604.971-1.457 1.184-2.435.212-.978.212-2.032 0-3.011-.213-.978-.627-1.83-1.184-2.435-.556-.605-1.227-.93-1.915-.93z" fill="#24221c" fill-opacity=".488658"/></g><g><path d="M3224.387 119.971098s.15-46.162.1-62.538c-.049-16.377-.604-42.083 25.518-42.712 26.122.484 25.325 26.344 26.127 42.068.803 15.723.41 63 .41 63z" fill="#abc837"/><path d="M3241.438 44.004098c-.688 0-1.358.326-1.915.931-.557.604-.971 1.457-1.184 2.435-.212.978-.212 2.032 0 3.011.213.978.627 1.83 1.184 2.435.557.604 1.227.93 1.915.93s1.359-.326 1.915-.93c.557-.605.971-1.457 1.184-2.435.213-.979.213-2.033 0-3.011-.213-.978-.627-1.831-1.184-2.435-.556-.605-1.227-.931-1.915-.931zm16.533.131c-.69-.003-1.362.321-1.921.925-.558.604-.974 1.458-1.188 2.438-.213.98-.213 2.036 0 3.016.214.98.63 1.834 1.188 2.438.559.604 1.231.928 1.921.925.863 0 1.693-.514 2.304-1.427.61-.913.954-2.153.954-3.444s-.344-2.531-.954-3.444c-.611-.913-1.441-1.427-2.304-1.427zm-7.965 18.379c-.688 0-1.358.325-1.915.93-.557.605-.971 1.457-1.184 2.435-.212.979-.212 2.033 0 3.011.213.978.627 1.831 1.184 2.435.557.605 1.227.93 1.915.93s1.359-.325 1.915-.93c.557-.604.971-1.457 1.184-2.435.212-.978.212-2.032 0-3.011-.213-.978-.627-1.83-1.184-2.435-.556-.605-1.227-.93-1.915-.93z" fill="#24221c" fill-opacity=".35963"/></g><g><path d="M3276.387 125.682445s.15-46.162.1-62.538c-.049-16.377-.604-42.083 25.518-42.712 26.122.484 25.325 26.344 26.127 42.068.803 15.723.41 63 .41 63z" fill="#abc837"/><path d="M3293.438 49.715445c-.688 0-1.358.326-1.915.931-.557.604-.971 1.457-1.184 2.435-.212.978-.212 2.032 0 3.011.213.978.627 1.83 1.184 2.435.557.604 1.227.93 1.915.93s1.359-.326 1.915-.93c.557-.605.971-1.457 1.184-2.435.213-.979.213-2.033 0-3.011-.213-.978-.627-1.831-1.184-2.435-.556-.605-1.227-.931-1.915-.931zm16.533.131c-.69-.003-1.362.321-1.921.925-.558.604-.974 1.458-1.188 2.438-.213.98-.213 2.036 0 3.016.214.98.63 1.834 1.188 2.438.559.604 1.231.928 1.921.925.863 0 1.693-.514 2.304-1.427.61-.913.954-2.153.954-3.444s-.344-2.531-.954-3.444c-.611-.913-1.441-1.427-2.304-1.427zm-7.965 18.379c-.688 0-1.358.325-1.915.93-.557.605-.971 1.457-1.184 2.435-.212.979-.212 2.033 0 3.011.213.978.627 1.831 1.184 2.435.557.605 1.227.93 1.915.93s1.359-.325 1.915-.93c.557-.604.971-1.457 1.184-2.435.212-.978.212-2.032 0-3.011-.213-.978-.627-1.83-1.184-2.435-.556-.605-1.227-.93-1.915-.93z" fill="#24221c" fill-opacity=".261421"/></g><g><path d="M3328.387 132.590396s.15-46.162.1-62.538c-.049-16.377-.604-42.083 25.518-42.712 26.122.484 25.325 26.344 26.127 42.068.803 15.723.41 63 .41 63z" fill="#abc837"/><path d="M3345.438 56.623396c-.688 0-1.358.326-1.915.931-.557.604-.971 1.457-1.184 2.435-.212.978-.212 2.032 0 3.011.213.978.627 1.83 1.184 2.435.557.604 1.227.93 1.915.93s1.359-.326 1.915-.93c.557-.605.971-1.457 1.184-2.435.213-.979.213-2.033 0-3.011-.213-.978-.627-1.831-1.184-2.435-.556-.605-1.227-.931-1.915-.931zm16.533.131c-.69-.003-1.362.321-1.921.925-.558.604-.974 1.458-1.188 2.438-.213.98-.213 2.036 0 3.016.214.98.63 1.834 1.188 2.438.559.604 1.231.928 1.921.925.863 0 1.693-.514 2.304-1.427.61-.913.954-2.153.954-3.444s-.344-2.531-.954-3.444c-.611-.913-1.441-1.427-2.304-1.427zm-7.965 18.379c-.688 0-1.358.325-1.915.93-.557.605-.971 1.457-1.184 2.435-.212.979-.212 2.033 0 3.011.213.978.627 1.831 1.184 2.435.557.605 1.227.93 1.915.93s1.359-.325 1.915-.93c.557-.604.971-1.457 1.184-2.435.212-.978.212-2.032 0-3.011-.213-.978-.627-1.83-1.184-2.435-.556-.605-1.227-.93-1.915-.93z" fill="#24221c" fill-opacity=".187481"/></g><g><path d="M3380.387 140.407378s.15-46.162.1-62.538c-.049-16.377-.604-42.083 25.518-42.712 26.122.484 25.325 26.344 26.127 42.068.803 15.723.41 63 .41 63z" fill="#abc837"/><path d="M3397.438 64.440378c-.688 0-1.358.326-1.915.931-.557.604-.971 1.457-1.184 2.435-.212.978-.212 2.032 0 3.011.213.978.627 1.83 1.184 2.435.557.604 1.227.93 1.915.93s1.359-.326 1.915-.93c.557-.605.971-1.457 1.184-2.435.213-.979.213-2.033 0-3.011-.213-.978-.627-1.831-1.184-2.435-.556-.605-1.227-.931-1.915-.931zm16.533.131c-.69-.003-1.362.321-1.921.925-.558.604-.974 1.458-1.188 2.438-.213.98-.213 2.036 0 3.016.214.98.63 1.834 1.188 2.438.559.604 1.231.928 1.921.925.863 0 1.693-.514 2.304-1.427.61-.913.954-2.153.954-3.444s-.344-2.531-.954-3.444c-.611-.913-1.441-1.427-2.304-1.427zm-7.965 18.379c-.688 0-1.358.325-1.915.93-.557.605-.971 1.457-1.184 2.435-.212.979-.212 2.033 0 3.011.213.978.627 1.831 1.184 2.435.557.605 1.227.93 1.915.93s1.359-.325 1.915-.93c.557-.604.971-1.457 1.184-2.435.212-.978.212-2.032 0-3.011-.213-.978-.627-1.83-1.184-2.435-.556-.605-1.227-.93-1.915-.93z" fill="#24221c" fill-opacity=".131612"/></g><g><path d="M3432.387 148.581632s.15-46.162.1-62.538c-.049-16.377-.604-42.083 25.518-42.712 26.122.484 25.325 26.344 26.127 42.068.803 15.723.41 63 .41 63z" fill="#abc837"/><path d="M3449.438 72.614632c-.688 0-1.358.326-1.915.931-.557.604-.971 1.457-1.184 2.435-.212.978-.212 2.032 0 3.011.213.978.627 1.83 1.184 2.435.557.604 1.227.93 1.915.93s1.359-.326 1.915-.93c.557-.605.971-1.457 1.184-2.435.213-.979.213-2.033 0-3.011-.213-.978-.627-1.831-1.184-2.435-.556-.605-1.227-.931-1.915-.931zm16.533.131c-.69-.003-1.362.321-1.921.925-.558.604-.974 1.458-1.188 2.438-.213.98-.213 2.036 0 3.016.214.98.63 1.834 1.188 2.438.559.604 1.231.928 1.921.925.863 0 1.693-.514 2.304-1.427.61-.913.954-2.153.954-3.444s-.344-2.531-.954-3.444c-.611-.913-1.441-1.427-2.304-1.427zm-7.965 18.379c-.688 0-1.358.325-1.915.93-.557.605-.971 1.457-1.184 2.435-.212.979-.212 2.033 0 3.011.213.978.627 1.831 1.184 2.435.557.605 1.227.93 1.915.93s1.359-.325 1.915-.93c.557-.604.971-1.457 1.184-2.435.212-.978.212-2.032 0-3.011-.213-.978-.627-1.83-1.184-2.435-.556-.605-1.227-.93-1.915-.93z" fill="#24221c" fill-opacity=".089383"/></g><g><path d="M3484.387 156.519634s.15-46.162.1-62.538c-.049-16.377-.604-42.083 25.518-42.712 26.122.484 25.325 26.344 26.127 42.068.803 15.723.41 63 .41 63z" fill="#abc837"/><path d="M3501.438 80.552634c-.688 0-1.358.326-1.915.931-.557.604-.971 1.457-1.184 2.435-.212.978-.212 2.032 0 3.011.213.978.627 1.83 1.184 2.435.557.604 1.227.93 1.915.93s1.359-.326 1.915-.93c.557-.605.971-1.457 1.184-2.435.213-.979.213-2.033 0-3.011-.213-.978-.627-1.831-1.184-2.435-.556-.605-1.227-.931-1.915-.931zm16.533.131c-.69-.003-1.362.321-1.921.925-.558.604-.974 1.458-1.188 2.438-.213.98-.213 2.036 0 3.016.214.98.63 1.834 1.188 2.438.559.604 1.231.928 1.921.925.863 0 1.693-.514 2.304-1.427.61-.913.954-2.153.954-3.444s-.344-2.531-.954-3.444c-.611-.913-1.441-1.427-2.304-1.427zm-7.965 18.379c-.688 0-1.358.325-1.915.93-.557.605-.971 1.457-1.184 2.435-.212.979-.212 2.033 0 3.011.213.978.627 1.831 1.184 2.435.557.605 1.227.93 1.915.93s1.359-.325 1.915-.93c.557-.604.971-1.457 1.184-2.435.212-.978.212-2.032 0-3.011-.213-.978-.627-1.83-1.184-2.435-.556-.605-1.227-.93-1.915-.93z" fill="#24221c" fill-opacity=".05773"/></g><g><path d="M3536.387 163.822187s.15-46.162.1-62.538c-.049-16.377-.604-42.083 25.518-42.712 26.122.484 25.325 26.344 26.127 42.068.803 15.723.41 63 .41 63z" fill="#abc837"/><path d="M3553.438 87.855187c-.688 0-1.358.326-1.915.931-.557.604-.971 1.457-1.184 2.435-.212.978-.212 2.032 0 3.011.213.978.627 1.83 1.184 2.435.557.604 1.227.93 1.915.93s1.359-.326 1.915-.93c.557-.605.971-1.457 1.184-2.435.213-.979.213-2.033 0-3.011-.213-.978-.627-1.831-1.184-2.435-.556-.605-1.227-.931-1.915-.931zm16.533.131c-.69-.003-1.362.321-1.921.925-.558.604-.974 1.458-1.188 2.438-.213.98-.213 2.036 0 3.016.214.98.63 1.834 1.188 2.438.559.604 1.231.928 1.921.925.863 0 1.693-.514 2.304-1.427.61-.913.954-2.153.954-3.444s-.344-2.531-.954-3.444c-.611-.913-1.441-1.427-2.304-1.427zm-7.965 18.379c-.688 0-1.358.325-1.915.93-.557.605-.971 1.457-1.184 2.435-.212.979-.212 2.033 0 3.011.213.978.627 1.831 1.184 2.435.557.605 1.227.93 1.915.93s1.359-.325 1.915-.93c.557-.604.971-1.457 1.184-2.435.212-.978.212-2.032 0-3.011-.213-.978-.627-1.83-1.184-2.435-.556-.605-1.227-.93-1.915-.93z" fill="#24221c" fill-opacity=".0345"/></g><g><path d="M3588.387 170.330073s.15-46.162.1-62.538c-.049-16.377-.604-42.083 25.518-42.712 26.122.484 25.325 26.344 26.127 42.068.803 15.723.41 63 .41 63z" fill="#abc837"/><path d="M3605.438 94.363073c-.688 0-1.358.326-1.915.931-.557.604-.971 1.457-1.184 2.435-.212.978-.212 2.032 0 3.011.213.978.627 1.83 1.184 2.435.557.604 1.227.93 1.915.93s1.359-.326 1.915-.93c.557-.605.971-1.457 1.184-2.435.213-.979.213-2.033 0-3.011-.213-.978-.627-1.831-1.184-2.435-.556-.605-1.227-.931-1.915-.931zm16.533.131c-.69-.003-1.362.321-1.921.925-.558.604-.974 1.458-1.188 2.438-.213.98-.213 2.036 0 3.016.214.98.63 1.834 1.188 2.438.559.604 1.231.928 1.921.925.863 0 1.693-.514 2.304-1.427.61-.913.954-2.153.954-3.444s-.344-2.531-.954-3.444c-.611-.913-1.441-1.427-2.304-1.427zm-7.965 18.379c-.688 0-1.358.325-1.915.93-.557.605-.971 1.457-1.184 2.435-.212.979-.212 2.033 0 3.011.213.978.627 1.831 1.184 2.435.557.605 1.227.93 1.915.93s1.359-.325 1.915-.93c.557-.604.971-1.457 1.184-2.435.212-.978.212-2.032 0-3.011-.213-.978-.627-1.83-1.184-2.435-.556-.605-1.227-.93-1.915-.93z" fill="#24221c" fill-opacity=".018138"/></g><g><path d="M3640.387 176.040985s.15-46.162.1-62.538c-.049-16.377-.604-42.083 25.518-42.712 26.122.484 25.325 26.344 26.127 42.068.803 15.723.41 63 .41 63z" fill="#abc837"/><path d="M3657.438 100.073985c-.688 0-1.358.326-1.915.931-.557.604-.971 1.457-1.184 2.435-.212.978-.212 2.032 0 3.011.213.978.627 1.83 1.184 2.435.557.604 1.227.93 1.915.93s1.359-.326 1.915-.93c.557-.605.971-1.457 1.184-2.435.213-.979.213-2.033 0-3.011-.213-.978-.627-1.831-1.184-2.435-.556-.605-1.227-.931-1.915-.931zm16.533.131c-.69-.003-1.362.321-1.921.925-.558.604-.974 1.458-1.188 2.438-.213.98-.213 2.036 0 3.016.214.98.63 1.834 1.188 2.438.559.604 1.231.928 1.921.925.863 0 1.693-.514 2.304-1.427.61-.913.954-2.153.954-3.444s-.344-2.531-.954-3.444c-.611-.913-1.441-1.427-2.304-1.427zm-7.965 18.379c-.688 0-1.358.325-1.915.93-.557.605-.971 1.457-1.184 2.435-.212.979-.212 2.033 0 3.011.213.978.627 1.831 1.184 2.435.557.605 1.227.93 1.915.93s1.359-.325 1.915-.93c.557-.604.971-1.457 1.184-2.435.212-.978.212-2.032 0-3.011-.213-.978-.627-1.83-1.184-2.435-.556-.605-1.227-.93-1.915-.93z" fill="#24221c" fill-opacity=".007489"/></g><g><path d="M3692.387 181.022667s.15-46.162.1-62.538c-.049-16.377-.604-42.083 25.518-42.712 26.122.484 25.325 26.344 26.127 42.068.803 15.723.41 63 .41 63z" fill="#abc837"/><path d="M3709.438 105.055667c-.688 0-1.358.326-1.915.931-.557.604-.971 1.457-1.184 2.435-.212.978-.212 2.032 0 3.011.213.978.627 1.83 1.184 2.435.557.604 1.227.93 1.915.93s1.359-.326 1.915-.93c.557-.605.971-1.457 1.184-2.435.213-.979.213-2.033 0-3.011-.213-.978-.627-1.831-1.184-2.435-.556-.605-1.227-.931-1.915-.931zm16.533.131c-.69-.003-1.362.321-1.921.925-.558.604-.974 1.458-1.188 2.438-.213.98-.213 2.036 0 3.016.214.98.63 1.834 1.188 2.438.559.604 1.231.928 1.921.925.863 0 1.693-.514 2.304-1.427.61-.913.954-2.153.954-3.444s-.344-2.531-.954-3.444c-.611-.913-1.441-1.427-2.304-1.427zm-7.965 18.379c-.688 0-1.358.325-1.915.93-.557.605-.971 1.457-1.184 2.435-.212.979-.212 2.033 0 3.011.213.978.627 1.831 1.184 2.435.557.605 1.227.93 1.915.93s1.359-.325 1.915-.93c.557-.604.971-1.457 1.184-2.435.212-.978.212-2.032 0-3.011-.213-.978-.627-1.83-1.184-2.435-.556-.605-1.227-.93-1.915-.93z" fill="#24221c" fill-opacity=".001673"/></g><g><path d="M3744.387 185.36259s.15-46.162.1-62.538c-.049-16.377-.604-42.083 25.518-42.712 26.122.484 25.325 26.344 26.127 42.068.803 15.723.41 63 .41 63z" fill="#abc837"/></g><g><path d="M3796.387 189.14587s.15-46.162.1-62.538c-.049-16.377-.604-42.083 25.518-42.712 26.122.484 25.325 26.344 26.127 42.068.803 15.723.41 63 .41 63z" fill="#abc837"/></g><g><path d="M3848.387 192.447696s.15-46.162.1-62.538c-.049-16.377-.604-42.083 25.518-42.712 26.122.484 25.325 26.344 26.127 42.068.803 15.723.41 63 .41 63z" fill="#abc837"/></g><g><path d="M3900.387 195.331936s.15-46.162.1-62.538c-.049-16.377-.604-42.083 25.518-42.712 26.122.484 25.325 26.344 26.127 42.068.803 15.723.41 63 .41 63z" fill="#abc837"/></g><g><path d="M3952.387 197.852047s.15-46.162.1-62.538c-.049-16.377-.604-42.083 25.518-42.712 26.122.484 25.325 26.344 26.127 42.068.803 15.723.41 63 .41 63z" fill="#abc837"/></g><g><path d="M4004.387 200.052614s.15-46.162.1-62.538c-.049-16.377-.604-42.083 25.518-42.712 26.122.484 25.325 26.344 26.127 42.068.803 15.723.41 63 .41 63z" fill="#abc837"/></g><g><path d="M4056.387 201.970893s.15-46.162.1-62.538c-.049-16.377-.604-42.083 25.518-42.712 26.122.484 25.325 26.344 26.127 42.068.803 15.723.41 63 .41 63z" fill="#abc837"/></g><g><path d="M4108.387 203.638168s.15-46.162.1-62.538c-.049-16.377-.604-42.083 25.518-42.712 26.122.484 25.325 26.344 26.127 42.068.803 15.723.41 63 .41 63z" fill="#abc837"/></g><g><path d="M4160.387 205.08087s.15-46.162.1-62.538c-.049-16.377-.604-42.083 25.518-42.712 26.122.484 25.325 26.344 26.127 42.068.803 15.723.41 63 .41 63z" fill="#abc837"/></g><g><path d="M4212.387 206.321474s.15-46.162.1-62.538c-.049-16.377-.604-42.083 25.518-42.712 26.122.484 25.325 26.344 26.127 42.068.803 15.723.41 63 .41 63z" fill="#abc837"/></g><g><path d="M4264.387 207.379228s.15-46.162.1-62.538c-.049-16.377-.604-42.083 25.518-42.712 26.122.484 25.325 26.344 26.127 42.068.803 15.723.41 63 .41 63z" fill="#abc837"/></g><g><path d="M4316.387 208.270716s.15-46.162.1-62.538c-.049-16.377-.604-42.083 25.518-42.712 26.122.484 25.325 26.344 26.127 42.068.803 15.723.41 63 .41 63z" fill="#abc837"/></g><g><path d="M4368.387 209.010325s.15-46.162.1-62.538c-.049-16.377-.604-42.083 25.518-42.712 26.122.484 25.325 26.344 26.127 42.068.803 15.723.41 63 .41 63z" fill="#abc837"/></g><g><path d="M4420.387 209.610605s.15-46.162.1-62.538c-.049-16.377-.604-42.083 25.518-42.712 26.122.484 25.325 26.344 26.127 42.068.803 15.723.41 63 .41 63z" fill="#abc837"/></g><g><path d="M4472.387 210.08257s.15-46.162.1-62.538c-.049-16.377-.604-42.083 25.518-42.712 26.122.484 25.325 26.344 26.127 42.068.803 15.723.41 63 .41 63z" fill="#abc837"/></g><g><path d="M4524.387 210.435936s.15-46.162.1-62.538c-.049-16.377-.604-42.083 25.518-42.712 26.122.484 25.325 26.344 26.127 42.068.803 15.723.41 63 .41 63z" fill="#abc837"/></g><g><path d="M4576.387 210.679316s.15-46.162.1-62.538c-.049-16.377-.604-42.083 25.518-42.712 26.122.484 25.325 26.344 26.127 42.068.803 15.723.41 63 .41 63z" fill="#abc837"/></g><g><path d="M4628.387 210.820383s.15-46.162.1-62.538c-.049-16.377-.604-42.083 25.518-42.712 26.122.484 25.325 26.344 26.127 42.068.803 15.723.41 63 .41 63z" fill="#abc837"/></g><g><path d="M4680.387 210.866s.15-46.162.1-62.538c-.049-16.377-.604-42.083 25.518-42.712 26.122.484 25.325 26.344 26.127 42.068.803 15.723.41 63 .41 63z" fill="#abc837"/></g></svg>